<svg xmlns="http://www.w3.org/2000/svg" viewBox="0 0 107.78 107.78">
  <g transform="translate(-83.249,216.694)">
    <path fill="#a02531" d="m 149.356,-113.956 c -0.623,-1.504 -0.507,-6.01 0.241,-9.374 0.79,-3.551 0.513,-8.002 -0.764,-12.247 -1.618,-5.383 -1.68,-5.662 -1.445,-6.548 0.392,-1.476 0.733,-1.73 3.788,-2.809 8.399,-2.966 14.791,-10.901 14.791,-18.36 0,-7.218 -7.054,-12.995 -15.901,-13.023 -8.1,-0.025 -21.633,5.036 -32.006,11.97 -4.475,2.991 -6.068,4.513 -6.068,5.796 0,1.135 -0.663,1.631 -2.179,1.631 -2.046,0 -2.226,-0.568 -2.901,-9.172 -0.762,-9.71 -1.772,-17.714 -2.939,-23.283 -1.213,-5.791 -1.357,-7.755 -0.667,-9.09 1.108,-2.141 13.559,-8.794 21.21,-11.332 14.26,-4.731 25.292,-3.958 32.569,2.28 5,-4.286 9.286,13.097 11.484,23.61 4.172,19.953 3.675,38.924 -1.301,49.665 -2.711,5.852 -8.251,13.921 -12.709,18.51 -3.275,3.37 -4.386,3.75 -5.203,1.776 z"/>
  </g>
</svg>
