<?xml version="1.0" encoding="UTF-8" standalone="no"?>
<!-- Created with Inkscape (http://www.inkscape.org/) -->

<svg
   width="400"
   height="400"
   viewBox="0 0 107.7795 107.7795"
   version="1.1"
   id="svg1"
   inkscape:version="1.4.2 (ebf0e940d0, 2025-05-08)"
   sodipodi:docname="icone-aiscgre-negativo.svg"
   inkscape:export-filename="icone-aiscgre-negativo.png"
   inkscape:export-xdpi="96"
   inkscape:export-ydpi="96"
   xmlns:inkscape="http://www.inkscape.org/namespaces/inkscape"
   xmlns:sodipodi="http://sodipodi.sourceforge.net/DTD/sodipodi-0.dtd"
   xmlns="http://www.w3.org/2000/svg"
   xmlns:svg="http://www.w3.org/2000/svg">
  <sodipodi:namedview
     id="namedview1"
     pagecolor="#231c27"
     bordercolor="#000000"
     borderopacity="0.25"
     inkscape:showpageshadow="false"
     inkscape:pageopacity="0.0"
     inkscape:pagecheckerboard="0"
     inkscape:deskcolor="#d1d1d1"
     inkscape:document-units="mm"
     inkscape:zoom="0.25417602"
     inkscape:cx="763.2506"
     inkscape:cy="1058.3217"
     inkscape:window-width="1920"
     inkscape:window-height="1008"
     inkscape:window-x="0"
     inkscape:window-y="0"
     inkscape:window-maximized="1"
     inkscape:current-layer="layer1"
     showborder="false"
     borderlayer="false" />
  <defs
     id="defs1" />
  <g
     inkscape:label="Camada 1"
     inkscape:groupmode="layer"
     id="layer1"
     transform="translate(148.46202,216.69377)">
    <path
       style="fill:#e6505f;fill-opacity:1"
       d="m -82.354748,-113.95639 c -0.62306,-1.50421 -0.50703,-6.00948 0.24141,-9.3736 0.79011,-3.55136 0.51263,-8.00215 -0.7635,-12.24667 -1.61859,-5.38358 -1.68001,-5.6619 -1.44503,-6.5477 0.39171,-1.47665 0.733,-1.7297 3.78814,-2.80873 8.39851,-2.9662 14.79083,-10.9013 14.79083,-18.36055 0,-7.21776 -7.05433,-12.99517 -15.90102,-13.02273 -8.09995,-0.0252 -21.632782,5.03586 -32.006192,11.96987 -4.47487,2.99119 -6.06778,4.5127 -6.06778,5.7958 0,1.1348 -0.66293,1.63099 -2.17909,1.63099 -2.04604,0 -2.22557,-0.56771 -2.90062,-9.17223 -0.76173,-9.70933 -1.77212,-17.71397 -2.93893,-23.28333 -1.21312,-5.79038 -1.35735,-7.75488 -0.66731,-9.08928 1.10767,-2.14199 13.55857,-8.79466 21.20956,-11.33253 14.260562,-4.7303 25.292372,-3.95802 32.569272,2.28001 5.00029,4.28643 9.28584,13.09705 11.48402,23.60986 4.17203,19.95276 3.67491,38.92377 -1.30145,49.66528 -2.71121,5.85218 -8.25131,13.92051 -12.70917,18.50903 -3.27499,3.37097 -4.38562,3.75018 -5.20314,1.77651 z"
       id="path65" />
  </g>
</svg>
