<?xml version="1.0" encoding="UTF-8" standalone="no"?>
<!-- Created with Inkscape (http://www.inkscape.org/) -->

<svg
   width="603.79034mm"
   height="654.27502mm"
   viewBox="0 0 603.79034 654.27502"
   version="1.1"
   id="svg1"
   inkscape:version="1.4.2 (f4327f4, 2025-05-13)"
   sodipodi:docname="logo-aiscgre-brasil-mono-negativo.svg"
   xmlns:inkscape="http://www.inkscape.org/namespaces/inkscape"
   xmlns:sodipodi="http://sodipodi.sourceforge.net/DTD/sodipodi-0.dtd"
   xmlns="http://www.w3.org/2000/svg"
   xmlns:svg="http://www.w3.org/2000/svg">
  <sodipodi:namedview
     id="namedview1"
     pagecolor="#3d4347"
     bordercolor="#000000"
     borderopacity="0.25"
     inkscape:showpageshadow="2"
     inkscape:pageopacity="0.0"
     inkscape:pagecheckerboard="0"
     inkscape:deskcolor="#d1d1d1"
     inkscape:document-units="mm"
     inkscape:zoom="0.25417602"
     inkscape:cx="598.01078"
     inkscape:cy="1194.0544"
     inkscape:window-width="1920"
     inkscape:window-height="1009"
     inkscape:window-x="-8"
     inkscape:window-y="-8"
     inkscape:window-maximized="1"
     inkscape:current-layer="layer1" />
  <defs
     id="defs1" />
  <g
     inkscape:label="Camada 1"
     inkscape:groupmode="layer"
     id="layer1"
     transform="translate(178.85832,216.69376)">
    <path
       style="fill:#ffffff;fill-opacity:1"
       d="m 129.71081,-117.80034 c -0.62306,-1.50421 -0.50703,-6.00948 0.24141,-9.3736 0.79011,-3.55136 0.51263,-8.00215 -0.7635,-12.24667 -1.61859,-5.38358 -1.68001,-5.6619 -1.44503,-6.5477 0.39171,-1.47665 0.733,-1.7297 3.78814,-2.80873 8.39851,-2.9662 14.79083,-10.9013 14.79083,-18.36055 0,-7.21776 -7.05433,-12.99517 -15.90102,-13.02273 -8.09995,-0.0252 -21.63278,5.03586 -32.00619,11.96987 -4.47487,2.99119 -6.06778,4.5127 -6.06778,5.7958 0,1.1348 -0.66293,1.63099 -2.17909,1.63099 -2.04604,0 -2.22557,-0.56771 -2.90062,-9.17223 -0.76173,-9.70933 -1.77212,-17.71397 -2.93893,-23.28333 -1.21312,-5.79038 -1.35735,-7.75488 -0.66731,-9.08928 1.10767,-2.14199 13.55857,-8.79466 21.20956,-11.33253 14.26056,-4.7303 25.29237,-3.95802 32.56927,2.28001 5.00029,4.28643 9.28584,13.09705 11.48402,23.60986 4.17203,19.95276 3.67491,38.92377 -1.30145,49.66528 -2.71121,5.85218 -8.25131,13.92051 -12.70917,18.50903 -3.27499,3.37097 -4.38562,3.75018 -5.20314,1.77651 z"
       id="path65" />
    <g
       id="g65"
       style="fill:#ffffff;fill-opacity:1"
       transform="translate(671.96008,-33.602151)">
      <path
         style="fill:#ffffff;fill-opacity:1"
         d="m -416.98187,108.61517 c -1.02883,-0.41449 -1.85237,-1.37827 -2.82839,-3.31006 -1.40612,-2.78306 -4.73448,-7.140246 -7.7829,-10.188656 -6.19871,-6.19872 -13.61566,-10.433366 -20.44201,-11.671226 -2.62711,-0.47638 -3.9648,-1.09588 -4.73223,-2.19154 -0.87546,-1.2499 -0.68131,-2.02156 0.6484,-2.57715 1.00587,-0.42028 2.32694,-0.44021 8.20209,-0.12375 4.48159,0.24139 10.62316,0.27321 17.05726,0.0884 14.50388,-0.4167 13.32238,-0.47731 14.36684,0.73695 l 0.89421,1.03958 -0.1592,13.348036 c -0.154,12.911286 -0.18306,13.371896 -0.88823,14.077066 -0.73935,0.73935 -3.29001,1.19373 -4.33584,0.77239 z"
         id="path64" />
      <path
         style="fill:#ffffff;fill-opacity:1"
         d="m -548.39158,280.28897 c -15.93748,-1.42227 -31.31433,-6.72985 -44.44999,-15.34268 l -2.82223,-1.85048 -7.9375,-0.19129 c -10.63565,-0.25632 -17.1168,-1.32236 -26.62586,-4.37951 -10.76992,-3.46251 -20.23098,-8.4333 -29.64219,-15.57383 -4.16759,-3.16206 -13.29137,-12.16934 -16.13157,-15.92559 l -2.00195,-2.64764 -0.36852,-87.48709 c -0.20269,-48.117896 -0.46792,-101.345152 -0.58941,-118.282782 l -0.22089,-30.795711 -0.9835,-0.9835 c -0.55938,-0.55938 -1.94808,-1.28638 -3.22022,-1.68581 -2.09488,-0.65778 -2.25782,-0.78614 -2.56965,-2.0244 -0.42877,-1.70262 0.0786,-2.05628 2.4496,-1.7076 0.97014,0.14266 7.75671,0.25938 15.08127,0.25938 h 13.31738 l 0.002,117.298617 0.002,117.298626 2.95018,3.52778 c 8.55819,10.23373 18.81266,18.78187 28.61915,23.85696 3.7,1.91484 9.83152,4.32188 10.46843,4.10958 0.16482,-0.0549 -0.36184,-0.89301 -1.17035,-1.86238 -10.10816,-12.11918 -17.07188,-26.17048 -20.77725,-41.92404 -2.21327,-9.4098 -3.01644,-22.71069 -1.96315,-32.51068 1.3799,-12.83885 4.59853,-23.84216 10.33776,-35.34092 l 2.32056,-4.64925 -2.10607,-2.40631 c -11.24564,-12.8488 -16.8212,-28.10934 -16.2171,-44.386862 0.50106,-13.50109 4.94852,-23.69921 14.47514,-33.19179 11.22168,-11.18158 25.65812,-16.59745 42.37929,-15.89868 15.1486,0.63305 28.91572,5.19461 40.5375,13.43159 l 2.94651,2.08835 -0.6134,2.14499 c -1.09444,3.82716 -2.13646,9.10308 -2.75842,13.96629 l -0.60866,4.75925 -1.83314,-0.0143 c -1.00823,-0.008 -1.92996,-0.11106 -2.04829,-0.22939 -0.11834,-0.11834 -0.43502,-1.26601 -0.70375,-2.55038 -1.78083,-8.51146 -11.18313,-16.45133 -22.79927,-19.25307 -4.63446,-1.1178 -11.02004,-1.57705 -15.24612,-1.0965 -15.349,1.74536 -27.96226,14.04253 -30.75139,29.98077 -1.37252,7.84313 -0.0958,16.580346 3.41443,23.366982 1.37309,2.65471 5.55729,8.20285 6.72398,8.91583 0.4964,0.30336 1.0826,-0.0979 3.35139,-2.2938 12.21149,-11.819486 29.44419,-20.800542 46.59952,-24.285992 4.02822,-0.81841 11.52405,-1.78048 13.87241,-1.78048 h 1.65159 l 0.19857,-2.02847 c 0.10922,-1.11566 0.29349,-3.45722 0.40949,-5.20347 1.02478,-15.42633 6.01839,-32.79978 13.05585,-45.42308 13.59093,-24.3784304 35.68142,-39.8650607 63.84008,-44.755371 5.35824,-0.93056 19.02769,-1.31188 24.55663,-0.68503 10.18081,1.15428 19.56831,3.96978 29.41836,8.8231503 11.04428,5.4418103 19.39953,11.5052103 29.06955,21.0957807 l 6.139,6.08855 -0.22526,3.68161 c -0.12389,2.02489 -0.32835,6.66811 -0.45434,10.31828 -0.126,3.65016 -0.38568,6.8351 -0.57707,7.07763 -0.48022,0.60853 -1.63023,0.5281 -3.01639,-0.21097 -0.92465,-0.493 -1.44361,-1.24157 -2.49656,-3.60119 -9.86805,-22.11371 -39.20178,-39.3795704 -65.12105,-38.33030038 -15.44911,0.62541 -29.42821,6.90309998 -41.69924,18.72615038 -7.14859,6.88761 -12.63192,14.30454 -17.15339,23.20222 -6.31845,12.43391 -10.12218,27.48857 -10.12218,40.06223 v 3.60453 l 1.4993,0.39081 c 12.43074,3.240196 23.7258,8.704106 34.10637,16.498722 2.245,1.68574 6.44407,5.3679 9.33125,8.18257 l 5.24943,5.11759 -0.20089,3.52778 c -0.61163,10.74051 -1.06268,14.75361 -1.73366,15.42459 -1.30414,1.30413 -2.60359,0.29591 -6.50046,-5.04361 -6.722,-9.21056 -16.79076,-17.78396 -26.84837,-22.86103 -4.65444,-2.34955 -13.21327,-5.37864 -13.73198,-4.85993 -0.3105,0.3105 0.43709,5.48281 1.67318,11.57607 3.4058,16.78881 9.79173,31.02048 18.74379,41.77236 8.81016,10.58145 21.14989,17.63692 35.20925,20.13154 5.69435,1.01037 17.87385,0.92013 22.93056,-0.1699 7.54462,-1.62632 15.11275,-4.62768 21.51556,-8.53261 3.78577,-2.30886 8.17723,-5.4738 10.52923,-7.58845 l 1.82187,-1.63802 V 118.57702 80.042048 l 0.86798,-0.81543 c 1.31606,-1.23637 5.23563,-1.57978 14.38966,-1.26076 l 7.67292,0.26741 v 7.89845 c 0,4.344146 0.086,7.898446 0.19104,7.898446 0.10507,0 1.73226,-0.53472 3.61597,-1.18827 14.4078,-4.998726 27.33832,-4.02812 37.71193,2.83079 2.68426,1.7748 7.17336,6.063296 9.35513,8.937096 3.56582,4.69683 6.66844,12.44107 6.13135,15.30403 -0.29487,1.57178 -0.99791,2.10913 -3.73598,2.85547 -1.26118,0.34377 -3.64881,1.20894 -5.30584,1.92259 -11.49805,4.95203 -20.23693,13.25228 -23.40606,22.23123 -0.94438,2.67567 -1.06532,3.46747 -1.05436,6.90291 0.0103,3.23513 0.16825,4.34995 0.94957,6.70278 0.51546,1.55222 1.30139,3.41871 1.7465,4.14777 l 0.80929,1.32554 3.19806,-2.78763 c 6.73526,-5.8709 11.6185,-13.41429 12.64245,-19.52943 0.1217,-0.72684 0.59786,-1.75872 1.05812,-2.29306 l 0.83684,-0.97153 h 5.52799 5.528 l 0.85138,0.98981 c 2.30945,2.68493 -0.30637,9.72608 -6.96496,18.74805 -2.911,3.9442 -8.94743,10.2253 -12.05794,12.54667 l -2.05901,1.53664 1.52984,0.80639 c 0.84142,0.44352 2.79985,1.23064 4.35207,1.74918 3.81142,1.27323 10.14707,1.36575 14.47251,0.21134 9.52322,-2.54164 19.10337,-9.25749 24.87799,-17.43991 3.51972,-4.98732 4.90185,-8.55477 5.07037,-13.08735 0.18766,-5.04696 1.74826,-7.26296 4.7758,-6.78143 0.6878,0.10939 3.82175,0.35668 6.96434,0.54951 6.55317,0.40212 7.51538,0.64705 7.51538,1.91302 0,1.55097 -1.37335,4.61268 -3.62565,8.08296 -1.20735,1.86026 -3.20018,5.11391 -4.42851,7.23033 -5.06228,8.72237 -13.02971,17.65082 -19.6651,22.03708 -8.96913,5.92896 -18.36491,8.82118 -28.72518,8.8422 -7.30927,0.0148 -12.68672,-1.17733 -18.52084,-4.106 -7.35209,-3.69069 -14.2578,-11.05561 -18.14311,-19.34961 -2.40905,-5.14261 -3.02717,-8.11455 -3.00009,-14.42471 0.0211,-4.91812 0.12077,-5.78624 0.99089,-8.63178 1.21498,-3.97332 3.28821,-8.24079 5.61425,-11.55622 2.3204,-3.30737 7.68898,-8.8373 11.30902,-11.64888 4.4041,-3.42054 4.57305,-3.64464 4.35556,-5.77715 -0.43924,-4.30673 -3.30709,-7.26694 -8.83942,-9.12408 -9.42821,-3.16494 -21.08978,0.58025 -22.95649,7.37262 -0.37271,1.35618 -0.54653,5.80249 -0.71142,18.19882 -0.12001,9.02229 -0.3749,23.89179 -0.5664,33.04333 -0.24116,11.52424 -0.23465,17.14586 0.0212,18.28746 0.49944,2.22862 1.59688,3.74012 4.38579,6.04054 2.73366,2.25485 3.70499,3.88901 3.10036,5.21603 -0.23895,0.52443 -0.85947,0.9978 -1.56241,1.19189 -0.64419,0.17787 -6.60642,0.2623 -13.32227,0.18865 -10.03892,-0.11009 -12.29663,-0.22531 -12.96236,-0.66151 l -0.80614,-0.52821 v -9.51686 c 0,-5.23428 -0.0847,-9.51687 -0.18822,-9.51687 -0.10353,0 -1.73072,0.93149 -3.61598,2.06999 -6.96237,4.20453 -15.59885,8.06695 -22.47774,10.05252 -9.46154,2.73105 -17.49642,3.49814 -28.06351,2.67923 -23.85055,-1.84835 -43.4935,-10.63443 -58.28454,-26.07008 -6.6132,-6.90141 -11.20173,-13.58575 -15.63393,-22.77472 -5.27996,-10.94654 -8.37196,-21.66294 -9.95427,-34.49992 l -0.59986,-4.866566 -1.41111,0.21189 c -3.18534,0.478296 -10.42055,2.443776 -13.79741,3.748116 -6.96329,2.68963 -13.9432,6.76042 -20.10285,11.7243 -2.68928,2.16721 -11.43168,10.94019 -11.43168,11.47166 0,0.13478 2.57969,2.3224 5.73264,4.86138 9.19461,7.40414 13.41131,11.1323 20.66898,18.2743 7.66802,7.54581 11.33212,11.78281 15.29856,17.69053 5.04981,7.52133 8.95067,16.99267 10.51713,25.5357 1.06131,5.78816 1.30872,14.21868 0.56498,19.252 -2.63896,17.85934 -14.34168,33.74198 -31.69305,43.01302 l -2.74558,1.46699 3.83437,2.19471 c 14.34698,8.21191 31.45072,10.86363 47.97377,7.43774 17.84296,-3.69956 35.26531,-15.79773 45.70338,-31.73668 2.35894,-3.60209 2.84199,-4.6074 5.3396,-11.1125 0.89396,-2.32833 1.94843,-4.51114 2.34326,-4.85069 0.63861,-0.54919 1.61217,-0.61736 8.81589,-0.61736 4.84337,0 8.36891,0.14498 8.77207,0.36075 0.6611,0.35381 0.66013,0.39622 -0.0505,2.20486 -2.51165,6.39275 -9.34509,16.0376 -19.07679,26.92533 -16.05075,17.95742 -36.52224,28.92384 -59.90987,32.09323 -4.70561,0.63768 -15.69128,0.90676 -20.28472,0.49684 z m -32.35416,-34.34394 c 2.73665,-0.99731 7.26068,-3.52883 10.02106,-5.6075 7.78098,-5.85938 12.47365,-14.82876 13.18851,-25.20798 0.67479,-9.79753 -2.41617,-19.57228 -8.95496,-28.31882 -3.20977,-4.2935 -10.09066,-12.12003 -15.92874,-18.1178 -6.08425,-6.25066 -20.70886,-18.84479 -21.23359,-18.28552 -0.39806,0.42425 -2.78004,8.16034 -3.65107,11.85779 -1.7633,7.48506 -2.1176,11.03113 -2.1176,21.19414 0,9.94139 0.23158,12.51494 1.77771,19.75556 3.30818,15.49238 10.19997,29.09879 20.63225,40.73407 3.11271,3.47166 2.63494,3.31948 6.26643,1.99606 z"
         id="path63" />
      <path
         style="fill:#ffffff;fill-opacity:1"
         d="m -725.76827,281.11683 c -0.48187,-0.77967 -0.57551,-2.83374 -0.16515,-3.62235 0.36936,-0.7098 0.87201,-0.93168 2.84042,-1.25381 1.81042,-0.29628 2.62471,-0.62446 3.3507,-1.35044 l 0.95907,-0.95906 v -64.28575 -64.28575 l -21.1847,-0.0909 -21.1847,-0.0909 -7.735,11.73259 c -27.64279,41.92905 -28.34956,43.0667 -27.89089,44.89417 0.11989,0.4777 0.70051,1.4181 1.29027,2.0898 1.21845,1.38774 1.49655,2.91617 0.63277,3.47777 -0.41214,0.26796 -1.90045,0.24082 -5.19069,-0.0947 -3.20526,-0.3268 -6.98163,-0.40411 -12.37554,-0.25335 -4.55394,0.12729 -7.84486,0.084 -7.96151,-0.10475 -0.10936,-0.17695 0.02,-0.84466 0.28751,-1.48379 0.792,-1.89239 117.4388,-176.701852 118.27526,-177.249922 1.23447,-0.80885 2.70788,-1.08975 3.96421,-0.75576 2.36023,0.62745 2.17995,-9.64791 2.17995,124.251802 0,93.46905 0.0973,121.74025 0.42146,122.45169 0.53548,1.17525 1.95807,1.91123 4.20971,2.1779 2.21595,0.26245 2.9616,1.18671 2.67589,3.31688 -0.1057,0.78804 -0.24522,1.4853 -0.31004,1.54948 -0.0648,0.0642 -1.30848,-0.0256 -2.76369,-0.19948 -7.18442,-0.85849 -29.53986,-0.69126 -33.3872,0.24975 -0.4154,0.1016 -0.83755,0.0516 -0.93811,-0.11113 z m 7.16143,-175.69666 c 0,-20.438932 -0.071,-23.813492 -0.4918,-23.371512 -0.41352,0.43435 -30.64194,45.508932 -31.39805,46.818652 -0.20208,0.35005 3.05928,0.44097 15.81764,0.44097 h 16.07221 z"
         id="path62" />
    </g>
    <path
       id="path1"
       d="m -160.43292,328.76009 c 1.1298,0 2.63623,-0.20542 4.17687,-0.20542 1.30098,0 2.53352,0.0685 3.18402,0.0685 0.58201,0 0.99285,-0.10272 0.99285,-0.37659 0,-0.30813 -0.34237,-0.47931 -1.12979,-0.71897 -1.12983,-0.2739 -2.01997,-0.95864 -2.01997,-1.98573 0,-0.44508 1.09556,-4.10842 1.4037,-5.0328 0.17118,-0.47932 0.41084,-0.61626 0.61627,-0.61626 h 6.57344 c 0.6505,0 0.85592,0.0342 0.95863,0.3766 0.51353,1.74607 1.36946,4.65619 1.36946,5.64904 0,0.78746 -0.61627,1.33525 -2.12267,1.57491 -0.65051,0.10271 -1.16406,0.37661 -1.16406,0.68474 0,0.27387 0.41084,0.41082 0.99287,0.41082 0.85593,0 2.3281,-0.0342 3.69758,-0.0342 1.54064,0 3.86874,0.20542 4.82738,0.20542 0.61624,0 1.02708,-0.0685 1.02708,-0.34237 0,-0.3081 -0.34237,-0.65047 -1.16403,-0.82166 -1.40372,-0.23966 -2.53352,-0.68474 -3.52639,-3.49216 -1.1298,-3.2867 -3.97145,-11.53776 -6.19684,-18.62476 -0.10271,-0.27389 -0.13694,-0.58203 -0.23966,-0.78745 -0.0342,-0.0685 -0.17118,-0.0685 -0.20542,-0.0342 -0.13695,0.20542 -0.23966,0.9244 -0.6505,1.1983 -0.41085,0.27387 -0.82169,0.37658 -1.26675,0.51353 -0.0685,0.75322 -0.23966,1.36948 -0.47932,2.01999 -2.36233,6.47073 -3.903,10.44218 -6.53923,16.43361 -0.75319,1.74607 -1.81454,2.3281 -2.97857,2.67047 -0.78745,0.2739 -1.16406,0.51355 -1.16406,0.82166 0,0.2739 0.41084,0.44508 1.02711,0.44508 z m 8.14832,-10.03136 c -0.44505,0 -0.71895,0 -0.71895,-0.23965 0,-0.0684 0.0342,-0.17116 0.0685,-0.27388 l 3.184,-8.55919 c 0.13695,-0.3766 0.20542,-0.58203 0.2739,-0.58203 0.10271,0 0.17118,0.20543 0.30813,0.61627 l 2.73894,8.52495 c 0.0342,0.13695 0.0685,0.27388 0.0685,0.34235 0,0.17118 -0.13695,0.17118 -0.51355,0.17118 z m 22.18539,10.40797 c 4.58772,0 7.60056,-2.67046 7.60056,-6.84734 0,-3.49215 -2.602,-5.1355 -5.0328,-6.60767 -2.63623,-1.60915 -4.89585,-3.01284 -4.89585,-5.10128 0,-2.94436 1.91727,-4.00571 4.00571,-4.00571 1.98572,0 3.21823,1.36949 4.17687,3.83453 0.13692,0.2739 0.58203,0.47932 0.99288,0.47932 0.27389,0 0.51353,-0.10271 0.51353,-0.37661 0,-1.12982 -0.41082,-2.49928 -0.68472,-3.45792 -0.10274,-0.37661 -0.37661,-0.75321 -0.75322,-0.89016 -0.75321,-0.30811 -1.98572,-0.75319 -3.66334,-0.75319 -4.89585,0 -7.29242,2.80741 -7.29242,6.33378 0,3.38944 3.04708,4.96432 5.78602,6.67615 2.46504,1.54067 3.93721,2.46504 3.93721,5.3067 0,2.60199 -1.7803,4.2796 -4.21111,4.2796 -1.98572,0 -4.03992,-1.40372 -4.93009,-4.99856 -0.10271,-0.27389 -0.34237,-0.3766 -0.58203,-0.3766 -0.37658,0 -0.68471,0.17118 -0.68471,0.47931 0.0685,0.95862 0.10271,2.70468 0.34237,3.66332 0.0684,0.2739 0.27387,0.51356 0.44506,0.68474 1.301,1.09556 2.9786,1.67759 4.93008,1.67759 z m 16.23677,0 c 4.58771,0 7.60055,-2.67046 7.60055,-6.84734 0,-3.49215 -2.60199,-5.1355 -5.0328,-6.60767 -2.63623,-1.60915 -4.89585,-3.01284 -4.89585,-5.10128 0,-2.94436 1.91725,-4.00571 4.00571,-4.00571 1.98573,0 3.21824,1.36949 4.17688,3.83453 0.13692,0.2739 0.58203,0.47932 0.99287,0.47932 0.27387,0 0.51353,-0.10271 0.51353,-0.37661 0,-1.12982 -0.41084,-2.49928 -0.68471,-3.45792 -0.10274,-0.37661 -0.37661,-0.75321 -0.75322,-0.89016 -0.75322,-0.30811 -1.98572,-0.75319 -3.66334,-0.75319 -4.89585,0 -7.29242,2.80741 -7.29242,6.33378 0,3.38944 3.04707,4.96432 5.78601,6.67615 2.46505,1.54067 3.93721,2.46504 3.93721,5.3067 0,2.60199 -1.7803,4.2796 -4.2111,4.2796 -1.98573,0 -4.03993,-1.40372 -4.93009,-4.99856 -0.10271,-0.27389 -0.34237,-0.3766 -0.58203,-0.3766 -0.37661,0 -0.68472,0.17118 -0.68472,0.47931 0.0685,0.95862 0.10271,2.70468 0.34235,3.66332 0.0685,0.2739 0.27389,0.51356 0.44508,0.68474 1.30101,1.09556 2.9786,1.67759 4.93009,1.67759 z m 22.305218,-0.0685 c 7.737502,0 11.880136,-5.8887 11.880136,-12.18827 0,-6.88158 -5.443617,-11.46929 -11.572002,-11.46929 -7.771738,0 -11.914372,5.8887 -11.914372,12.18827 0,6.88157 5.443643,11.46929 11.606238,11.46929 z m 0.513557,-1.4037 c -5.820251,0 -8.764588,-5.34093 -8.764588,-11.81166 0,-5.44364 2.704677,-8.97003 7.977135,-8.97003 5.854488,0 8.798851,5.27245 8.798851,11.70895 0,5.47788 -2.670466,9.07274 -8.011398,9.07274 z m 27.158288,1.43793 c 2.259621,0 4.89585,-0.30813 6.607678,-0.99284 0.718978,-0.23966 0.753215,-0.2739 1.129797,-0.95864 0.410845,-0.99288 0.924401,-2.80742 0.924401,-3.38945 0,-0.71895 -0.855927,-0.68471 -1.198271,-0.10271 -1.506432,2.77318 -3.594868,4.38232 -6.950075,4.38232 -5.785988,0 -9.586278,-5.88872 -9.586278,-11.57203 0,-5.13551 3.903001,-9.96288 9.346618,-9.96288 1.917277,0 3.629104,0.44508 4.793139,1.1983 1.232535,0.85592 1.711854,2.08843 2.156936,3.86873 0.205396,0.82169 1.232509,0.51356 1.198271,-0.0342 -0.06847,-1.81454 -0.205396,-2.91013 -0.308133,-4.00569 -0.06847,-0.61627 -0.308134,-1.02711 -1.027086,-1.1983 -2.362333,-0.582 -3.526393,-0.89013 -6.196859,-0.89013 -7.155471,0 -13.489252,5.10127 -13.489252,11.88013 0,7.12123 6.059884,11.77742 12.599114,11.77742 z m 12.273862,-0.34237 c 1.883013,0 2.738914,-0.17118 4.485005,-0.17118 1.574879,0 2.191147,0.17118 4.07416,0.17118 0.58203,0 0.992875,-0.10271 0.992875,-0.3766 0,-0.30811 -0.342371,-0.4793 -1.129824,-0.61624 -1.746064,-0.34238 -2.773177,-0.95864 -2.773177,-2.602 v -15.78313 c 0,-1.64336 0.753216,-2.19115 2.499281,-2.49928 0.787453,-0.17119 1.129823,-0.41085 1.129823,-0.71898 0,-0.27387 -0.410845,-0.37658 -0.992875,-0.37658 -1.883013,0 -2.328095,0.10271 -3.800263,0.10271 -1.609143,0 -2.225384,-0.10271 -4.108424,-0.10271 -0.582004,0 -0.992849,0.10271 -0.992849,0.37658 0,0.30813 0.342371,0.54779 1.129798,0.71898 1.746091,0.30813 2.362332,0.85592 2.362332,2.49928 v 15.78313 c 0,1.64336 -0.992849,2.25962 -2.738914,2.602 -0.787453,0.13694 -1.164061,0.30813 -1.164061,0.61624 0,0.27389 0.445082,0.3766 1.027113,0.3766 z m 11.152611,0 c 1.129797,0 2.636202,-0.20542 4.176871,-0.20542 1.300982,0 2.533517,0.0685 3.184022,0.0685 0.582004,0 0.992849,-0.10272 0.992849,-0.37659 0,-0.30813 -0.342371,-0.47931 -1.129797,-0.71897 -1.129824,-0.2739 -2.019988,-0.95864 -2.019988,-1.98573 0,-0.44508 1.095586,-4.10842 1.40372,-5.0328 0.171159,-0.47932 0.410845,-0.61626 0.616268,-0.61626 h 6.57344 c 0.650505,0 0.855927,0.0342 0.958638,0.3766 0.51353,1.74607 1.369457,4.65619 1.369457,5.64904 0,0.78746 -0.616267,1.33525 -2.122672,1.57491 -0.650505,0.10271 -1.164061,0.37661 -1.164061,0.68474 0,0.27387 0.410845,0.41082 0.992875,0.41082 0.855927,0 2.328095,-0.0342 3.697552,-0.0342 1.540669,0 3.868764,0.20542 4.827376,0.20542 0.616268,0 1.027113,-0.0685 1.027113,-0.34237 0,-0.3081 -0.342371,-0.65047 -1.164061,-0.82166 -1.403694,-0.23966 -2.533491,-0.68474 -3.526367,-3.49216 -1.129824,-3.2867 -3.971449,-11.53776 -6.196859,-18.62476 -0.102711,-0.27389 -0.136922,-0.58203 -0.239633,-0.78745 -0.03424,-0.0685 -0.171186,-0.0685 -0.205423,-0.0342 -0.136921,0.20542 -0.239659,0.9244 -0.650504,1.1983 -0.410845,0.27387 -0.821664,0.37658 -1.266746,0.51353 -0.06847,0.75322 -0.239659,1.36948 -0.479319,2.01999 -2.362332,6.47073 -3.902974,10.44218 -6.539203,16.43361 -0.753216,1.74607 -1.814566,2.3281 -2.9786,2.67047 -0.787453,0.2739 -1.164061,0.51355 -1.164061,0.82166 0,0.2739 0.410845,0.44508 1.027113,0.44508 z m 8.148319,-10.03136 c -0.445082,0 -0.718978,0 -0.718978,-0.23965 0,-0.0684 0.03426,-0.17116 0.0685,-0.27388 l 3.183996,-8.55919 c 0.136948,-0.3766 0.205423,-0.58203 0.273897,-0.58203 0.102737,0 0.171185,0.20543 0.308133,0.61627 l 2.738941,8.52495 c 0.03424,0.13695 0.06847,0.27388 0.06847,0.34235 0,0.17118 -0.136922,0.17118 -0.51353,0.17118 z m 33.688946,10.03136 c 0.3423444,0 0.4792927,-0.30813 0.6162411,-0.582 0.3766079,-0.85593 1.3010091,-4.72469 1.3010091,-5.10127 0,-0.30814 -0.1027377,-0.44508 -0.3081337,-0.44508 -0.3766079,0 -0.6847417,0.44508 -0.7874529,0.71895 -0.8901377,2.39659 -2.25962105,3.6291 -4.3138196,3.80029 -1.6433535,0.10271 -3.3552076,0.17118 -4.930087,0.17118 -1.5406423,0 -2.9443627,-0.0685 -3.937212,-0.17118 -0.273896,-0.0342 -0.410845,-0.30814 -0.410845,-0.58203 0,-0.13695 0.03424,-0.30814 0.102712,-0.41085 4.3480563,-6.71039 6.9842852,-10.27099 11.81166096,-16.77598 l 2.12267264,-2.84165 c 0.1369484,-0.17119 -0.1711589,-0.61625 -0.3765814,-0.61625 -2.56775477,0.0684 -5.1697466,0.10269 -8.0456351,0.10269 h -4.4165311 c -1.198298,0 -2.533517,-0.34235 -3.012837,-0.54777 -0.376607,-0.17118 -0.890164,-0.51355 -1.061349,-0.51355 -0.171159,0 -0.513556,0.10271 -0.547793,0.61626 -0.102712,1.47217 -0.684716,3.38942 -0.924375,4.1084 -0.102738,0.2739 -0.23966,0.68474 -0.23966,0.95864 0,0.2054 0.102711,0.37658 0.308134,0.37658 0.513556,0 0.787453,-0.68471 0.958638,-1.1298 0.650478,-1.71182 2.328095,-2.46504 3.423656,-2.56775 0.890164,-0.0685 2.2253836,-0.0685 3.5606298,-0.0685 1.8830131,0 3.8687375,0.0342 5.1012724,0.0685 0.5477669,0.0342 0.6847152,0.13695 0.6847152,0.2739 0,0.10271 -0.068474,0.17118 -0.1369218,0.27389 -4.485005,6.71039 -7.4293676,10.57913 -12.1540326,17.08412 -0.82169,1.09556 -2.019961,2.91013 -2.019961,3.25247 0,0 0.03424,0.47932 0.239633,0.47932 h 2.670466 c 1.335246,0 2.773177,-0.0342 4.1768978,-0.0342 3.081311,0 6.5392034,0.10271 10.5448892,0.10271 z m 4.1083971,0 c 1.8830131,0 2.7389401,-0.17118 4.4850049,-0.17118 1.574879,0 2.191147,0.17118 4.07416,0.17118 0.58203,0 0.992875,-0.10271 0.992875,-0.3766 0,-0.30811 -0.34237,-0.4793 -1.129797,-0.61624 -1.746091,-0.34238 -2.773177,-0.95864 -2.773177,-2.602 v -15.78313 c 0,-1.64336 0.753189,-2.19115 2.49928,-2.49928 0.787427,-0.17119 1.129798,-0.41085 1.129798,-0.71898 0,-0.27387 -0.410845,-0.37658 -0.992849,-0.37658 -1.88304,0 -2.328095,0.10271 -3.80029,0.10271 -1.6091164,0 -2.2253839,-0.10271 -4.108397,-0.10271 -0.5820304,0 -0.9928754,0.10271 -0.9928754,0.37658 0,0.30813 0.3423708,0.54779 1.1298237,0.71898 1.7460648,0.30813 2.3623323,0.85592 2.3623323,2.49928 v 15.78313 c 0,1.64336 -0.9928754,2.25962 -2.7389402,2.602 -0.7874529,0.13694 -1.1640608,0.30813 -1.1640608,0.61624 0,0.27389 0.4450821,0.3766 1.0271125,0.3766 z m 23.3836629,0.30814 c 7.737501,0 11.880162,-5.8887 11.880162,-12.18827 0,-6.88158 -5.443643,-11.46929 -11.572028,-11.46929 -7.771739,0 -11.914373,5.8887 -11.914373,12.18827 0,6.88157 5.443644,11.46929 11.606239,11.46929 z m 0.513556,-1.4037 c -5.820224,0 -8.764587,-5.34093 -8.764587,-11.81166 0,-5.44364 2.704703,-8.97003 7.977161,-8.97003 5.854462,0 8.798824,5.27245 8.798824,11.70895 0,5.47788 -2.670466,9.07274 -8.011398,9.07274 z m 36.265247,1.50641 c 0.376608,0 0.753216,-0.13695 0.753216,-0.85593 0,-0.44505 -0.171186,-1.71183 -0.171186,-3.38942 0,-5.51211 0.03424,-15.54347 0.06847,-16.15974 0.0685,-1.16403 0.445082,-1.57488 2.191174,-1.88301 0.787426,-0.17119 1.164034,-0.41085 1.164034,-0.71898 0,-0.27387 -0.445082,-0.37658 -1.027086,-0.37658 -2.122699,0 -2.328122,0.10271 -4.005712,0.10271 h -1.985725 c -0.616267,0 -1.437931,0.10268 -1.437931,0.37658 0,0.30813 0.75319,0.58203 1.57488,0.71898 0.753216,0.13695 1.985724,0.99287 2.019961,1.91725 0,6.36804 -0.03424,12.87301 -0.06847,14.20825 -0.03424,0.51353 -0.171185,0.71896 -0.342371,0.71896 -0.308134,0 -0.718979,-0.47932 -0.890164,-0.68472 -0.684715,-0.85593 -13.04417,-15.81737 -13.728911,-16.77601 -0.23966,-0.30813 -0.410845,-0.582 -0.82169,-0.582 -2.533518,0 -2.670466,-0.10272 -5.37517,-0.17119 -0.239633,0 -0.821663,0.0685 -0.821663,0.47929 0,0.41085 0.890138,0.78746 1.09556,0.85593 2.054225,0.65051 3.457919,1.43793 3.457919,3.93721 0,5.75178 -0.342371,11.33237 -0.650505,13.9686 -0.136921,1.43793 -0.684741,2.49928 -2.019961,2.84165 -0.787453,0.23966 -1.129824,0.37661 -1.129824,0.68472 0,0.27389 0.410845,0.3766 0.992876,0.3766 1.883013,0 1.91725,-0.17118 3.184022,-0.17118 1.300983,0 1.403694,0.17118 3.286707,0.17118 0.58203,0 1.027112,-0.10271 1.027112,-0.3766 0,-0.30811 -0.376607,-0.4793 -1.164034,-0.61624 -1.746091,-0.34238 -2.22541,-1.54067 -2.22541,-2.80742 0,-4.31382 0.102737,-9.65475 0.171185,-13.11267 0,-0.2739 0.06847,-0.71898 0.308134,-0.71898 0.171159,0 0.376608,0.13695 0.718952,0.5478 0.82169,0.99287 12.222533,14.44789 12.873011,15.30381 1.095587,1.54064 2.567755,2.19115 2.9786,2.19115 z m 6.641914,-0.41085 c 1.88304,0 2.465044,-0.20542 4.03995,-0.20542 3.492129,0 6.436492,0.20542 10.921497,0.20542 0.273897,0 0.342371,-0.27389 0.479319,-0.582 0.410845,-0.95864 1.095587,-3.42368 1.095587,-4.07419 0,-0.27389 -0.136949,-0.44508 -0.376608,-0.47932 -0.273897,-0.0342 -0.445082,0.17119 -0.582031,0.44509 -0.718978,1.40372 -1.232508,2.22538 -1.985724,2.7047 -0.718979,0.44508 -1.677591,0.58203 -3.184022,0.58203 h -2.567755 c -1.574879,0 -2.328095,-0.54779 -2.328095,-2.32809 v -6.71039 c 0,-0.78746 0.410845,-0.89017 1.198298,-0.89017 h 3.25247 c 0.924401,0 1.335246,0.47932 1.609143,1.54064 0.171159,0.75322 0.445055,1.12983 0.787426,1.12983 0.308134,0 0.342371,-0.2739 0.342371,-0.58203 0,-0.2739 -0.06847,-1.98573 -0.06847,-2.70471 0,-0.54779 0.102711,-2.12267 0.102711,-2.4308 0,-0.34237 -0.308134,-0.5478 -0.479293,-0.5478 -0.273896,0 -0.479319,0.23966 -0.616267,0.75322 -0.342371,1.30101 -0.650505,1.71183 -2.019962,1.71183 H 78.45376 c -0.34237,0 -0.650504,-0.34237 -0.650504,-0.75319 v -7.42937 c 0,-0.6505 0.890164,-1.09559 1.266772,-1.09559 h 4.587716 c 0.855927,0 1.677591,0.20543 2.328095,0.92441 0.308134,0.34237 0.513557,1.16403 0.787453,1.91725 0.06847,0.23966 0.136922,0.34237 0.376582,0.34237 0.205422,0 0.479319,-0.10271 0.479319,-0.51356 0,-0.9244 -0.273897,-2.25962 -0.513556,-3.59487 -0.03424,-0.23963 -0.376582,-0.3081 -0.650478,-0.3081 -0.171186,0 -1.369484,0.0342 -2.944363,0.0685 -1.472168,0 -3.252497,0.0342 -4.793139,0.0342 -2.430806,0 -3.56063,-0.10271 -6.196859,-0.10271 -0.582004,0 -0.992849,0.10271 -0.992849,0.37658 0,0.30813 0.342371,0.54779 1.164034,0.71898 1.746092,0.30813 2.328096,0.85592 2.328096,2.53351 v 15.71467 c 0,1.67759 -0.855901,2.29385 -2.601992,2.63623 -0.787427,0.13694 -1.129797,0.30813 -1.129797,0.61624 0,0.27389 0.410845,0.3766 0.992848,0.3766 z m 26.071275,0 c 1.883017,0 2.738937,-0.17118 4.485007,-0.17118 1.57488,0 2.19114,0.17118 4.07416,0.17118 0.58203,0 0.99287,-0.10271 0.99287,-0.3766 0,-0.30811 -0.34237,-0.4793 -1.12982,-0.61624 -1.74607,-0.34238 -2.77315,-0.95864 -2.77315,-2.602 v -15.78313 c 0,-1.64336 0.75319,-2.19115 2.49928,-2.49928 0.78743,-0.17119 1.1298,-0.41085 1.1298,-0.71898 0,-0.27387 -0.41085,-0.37658 -0.99288,-0.37658 -1.88301,0 -2.32809,0.10271 -3.80026,0.10271 -1.60912,0 -2.22539,-0.10271 -4.1084,-0.10271 -0.58203,0 -0.992875,0.10271 -0.992875,0.37658 0,0.30813 0.342371,0.54779 1.129824,0.71898 1.746061,0.30813 2.362331,0.85592 2.362331,2.49928 v 15.78313 c 0,1.64336 -0.99287,2.25962 -2.738939,2.602 -0.787453,0.13694 -1.164061,0.30813 -1.164061,0.61624 0,0.27389 0.445082,0.3766 1.027113,0.3766 z m 33.517757,0.41085 c 0.37658,0 0.75319,-0.13695 0.75319,-0.85593 0,-0.44505 -0.17121,-1.71183 -0.17121,-3.38942 0,-5.51211 0.0342,-15.54347 0.0684,-16.15974 0.0684,-1.16403 0.44511,-1.57488 2.19115,-1.88301 0.78747,-0.17119 1.16406,-0.41085 1.16406,-0.71898 0,-0.27387 -0.44506,-0.37658 -1.02709,-0.37658 -2.12267,0 -2.32812,0.10271 -4.00569,0.10271 h -1.98575 c -0.61626,0 -1.43793,0.10268 -1.43793,0.37658 0,0.30813 0.75319,0.58203 1.57488,0.71898 0.75322,0.13695 1.98573,0.99287 2.01996,1.91725 0,6.36804 -0.0342,12.87301 -0.0684,14.20825 -0.0342,0.51353 -0.17119,0.71896 -0.34235,0.71896 -0.30813,0 -0.71898,-0.47932 -0.89016,-0.68472 -0.68475,-0.85593 -13.0442,-15.81737 -13.72891,-16.77601 -0.23966,-0.30813 -0.41085,-0.582 -0.82169,-0.582 -2.53352,0 -2.67047,-0.10272 -5.37517,-0.17119 -0.23966,0 -0.82167,0.0685 -0.82167,0.47929 0,0.41085 0.89014,0.78746 1.09556,0.85593 2.0542,0.65051 3.45792,1.43793 3.45792,3.93721 0,5.75178 -0.34237,11.33237 -0.6505,13.9686 -0.13692,1.43793 -0.68474,2.49928 -2.01996,2.84165 -0.78746,0.23966 -1.12983,0.37661 -1.12983,0.68472 0,0.27389 0.41085,0.3766 0.99288,0.3766 1.88301,0 1.91725,-0.17118 3.18402,-0.17118 1.30098,0 1.40369,0.17118 3.28671,0.17118 0.58203,0 1.02711,-0.10271 1.02711,-0.3766 0,-0.30811 -0.37661,-0.4793 -1.16406,-0.61624 -1.74607,-0.34238 -2.22539,-1.54067 -2.22539,-2.80742 0,-4.31382 0.10274,-9.65475 0.17119,-13.11267 0,-0.2739 0.0685,-0.71898 0.30813,-0.71898 0.17116,0 0.37658,0.13695 0.71896,0.5478 0.82169,0.99287 12.2225,14.44789 12.87301,15.30381 1.09558,1.54064 2.56775,2.19115 2.97862,2.19115 z m 11.80309,-0.41085 c 1.88301,0 2.73894,-0.17118 4.48501,-0.17118 1.60911,0 2.19114,0.17118 4.07416,0.17118 0.61627,0 1.02712,-0.10271 1.02712,-0.3766 0,-0.30811 -0.34237,-0.4793 -1.16405,-0.61624 -1.74609,-0.34238 -2.73894,-1.06135 -2.73894,-2.73894 v -13.72894 c 0,-3.8345 0.17119,-4.00569 1.74607,-4.00569 h 3.52639 c 2.22539,0 3.01283,0.61627 3.184,1.60912 0.1712,0.89016 0.34238,1.43796 0.68475,1.43796 0.34235,0 0.54779,-0.71898 0.54779,-1.12983 v -0.41084 c 0,-0.92438 0.13702,-0.78743 0.34235,-2.08844 0.0342,-0.20542 0.13702,-0.71895 0.13702,-0.95861 0,-0.34237 -0.10284,-0.82169 -0.23957,-0.82169 -0.54779,0 -0.78744,0.44508 -1.36947,0.71898 -0.75323,0.34237 -1.71184,0.51353 -3.28672,0.51353 H 142.3482 c -0.9929,0 -2.19117,-0.2054 -2.46504,-0.68472 -0.2054,-0.37661 -0.68477,-1.12982 -0.85593,-1.12982 -0.17121,0 -0.51356,0.0342 -0.61627,0.82169 -0.20539,1.43793 -0.41087,2.32809 -1.06135,3.66331 -0.10284,0.20543 -0.17118,0.47932 -0.17118,0.68475 0,0.23965 0.0683,0.44508 0.23955,0.44508 0.51356,0 1.19827,-0.9244 1.43793,-1.30101 0.47932,-0.92438 1.74607,-1.36946 2.84165,-1.36946 h 1.64336 c 1.1983,0 1.81454,0 2.49928,0.13695 0.54779,0.10271 0.71898,0.85593 0.71898,4.03992 v 13.55776 c 0,1.67759 -0.99285,2.39656 -2.73894,2.73894 -0.78746,0.13694 -1.12983,0.30813 -1.12983,0.61624 0,0.27389 0.41087,0.3766 0.99288,0.3766 z m 18.12833,0 c 1.88304,0 2.46504,-0.20542 4.03995,-0.20542 3.49214,0 6.43649,0.20542 10.92151,0.20542 0.27375,0 0.34238,-0.27389 0.47931,-0.582 0.41085,-0.95864 1.09557,-3.42368 1.09557,-4.07419 0,-0.27389 -0.13702,-0.44508 -0.37661,-0.47932 -0.27375,-0.0342 -0.44507,0.17119 -0.582,0.44509 -0.71899,1.40372 -1.23254,2.22538 -1.98574,2.7047 -0.71899,0.44508 -1.6776,0.58203 -3.18403,0.58203 h -2.56774 c -1.57488,0 -2.32811,-0.54779 -2.32811,-2.32809 v -6.71039 c 0,-0.78746 0.41086,-0.89017 1.1983,-0.89017 h 3.25248 c 0.92441,0 1.33523,0.47932 1.60913,1.54064 0.1712,0.75322 0.44509,1.12983 0.78744,1.12983 0.30813,0 0.34237,-0.2739 0.34237,-0.58203 0,-0.2739 -0.0684,-1.98573 -0.0684,-2.70471 0,-0.54779 0.10283,-2.12267 0.10283,-2.4308 0,-0.34237 -0.30813,-0.5478 -0.4793,-0.5478 -0.27375,0 -0.47934,0.23966 -0.61627,0.75322 -0.34238,1.30101 -0.65051,1.71183 -2.01998,1.71183 h -3.45789 c -0.34238,0 -0.65051,-0.34237 -0.65051,-0.75319 v -7.42937 c 0,-0.6505 0.89016,-1.09559 1.26677,-1.09559 h 4.58772 c 0.85592,0 1.6776,0.20543 2.32808,0.92441 0.30813,0.34237 0.51357,1.16403 0.78747,1.91725 0.0684,0.23966 0.13702,0.34237 0.37658,0.34237 0.20539,0 0.47931,-0.10271 0.47931,-0.51356 0,-0.9244 -0.27375,-2.25962 -0.51355,-3.59487 -0.0342,-0.23963 -0.37658,-0.3081 -0.65048,-0.3081 -0.1712,0 -1.36946,0.0342 -2.94438,0.0685 -1.47216,0 -3.25248,0.0342 -4.79312,0.0342 -2.4308,0 -3.56062,-0.10271 -6.19684,-0.10271 -0.58202,0 -0.99288,0.10271 -0.99288,0.37658 0,0.30813 0.34237,0.54779 1.16406,0.71898 1.74608,0.30813 2.32808,0.85592 2.32808,2.53351 v 15.71467 c 0,1.67759 -0.85589,2.29385 -2.60198,2.63623 -0.78744,0.13694 -1.12981,0.30813 -1.12981,0.61624 0,0.27389 0.41085,0.3766 0.99285,0.3766 z m 39.66326,0.5478 c 0.85592,0 2.80739,-0.20543 2.80739,-1.19827 0,-0.2739 -0.17121,-0.41085 -0.51355,-0.41085 -1.64336,0 -2.80739,-0.0685 -4.00569,-1.12982 -3.28672,-2.9786 -4.93008,-5.58059 -7.08699,-8.8673 -0.13702,-0.20542 -0.17121,-0.37661 0,-0.47932 1.91725,-0.95864 4.1084,-2.7047 4.1084,-5.85449 0,-3.80026 -2.77317,-5.71751 -7.84022,-5.71751 -2.05419,0 -2.7047,0.17118 -4.03993,0.17118 -1.43795,0 -1.54064,-0.0342 -3.42366,-0.0342 -0.58202,0 -0.99288,0.10271 -0.99288,0.37658 0,0.30813 0.34238,0.6505 1.12982,0.71898 2.01997,0.20542 2.15691,0.68474 2.15691,3.32097 v 14.89297 c 0,1.71183 -0.82169,2.32809 -2.56774,2.67047 -0.78744,0.13694 -1.16406,0.30813 -1.16406,0.61624 0,0.27389 0.44507,0.3766 1.0271,0.3766 1.88301,0 2.77318,-0.23966 4.5535,-0.23966 1.30099,0 1.54064,0.23966 3.42366,0.23966 0.58202,0 0.99285,-0.10271 0.99285,-0.3766 0,-0.30811 -0.34234,-0.4793 -1.12979,-0.61624 -1.74608,-0.34238 -2.36235,-1.50644 -2.36235,-3.01284 v -6.16262 c 0,-0.41082 0.13702,-0.71896 0.54779,-0.68472 0.61627,0.0685 1.74608,0.23966 2.73894,0.71895 0.68475,0.34237 1.12982,0.75322 1.50643,1.36949 2.39656,3.90297 3.59486,5.34093 5.30667,7.42936 1.23254,1.50641 2.84166,1.88302 4.8274,1.88302 z M 188.3964,317.08538 c -1.12979,0 -1.84878,-0.0685 -1.84878,-1.19827 0,-2.80741 0.0342,-4.75893 0.0684,-5.9572 0.10283,-2.39657 0.37661,-3.2525 1.88301,-3.2525 4.41654,0 5.1355,2.43081 5.1355,5.23822 0,2.70471 -2.01994,5.16975 -5.23822,5.16975 z m 39.03843,12.08556 c 0.37661,0 0.7532,-0.13695 0.7532,-0.85593 0,-0.44505 -0.1712,-1.71183 -0.1712,-3.38942 0,-5.51211 0.0342,-15.54347 0.0684,-16.15974 0.0684,-1.16403 0.44507,-1.57488 2.19115,-1.88301 0.78744,-0.17119 1.16403,-0.41085 1.16403,-0.71898 0,-0.27387 -0.44507,-0.37658 -1.0271,-0.37658 -2.12267,0 -2.32808,0.10271 -4.00568,0.10271 h -1.98574 c -0.61627,0 -1.43795,0.10268 -1.43795,0.37658 0,0.30813 0.7532,0.58203 1.57489,0.71898 0.75323,0.13695 1.98573,0.99287 2.01997,1.91725 0,6.36804 -0.0342,12.87301 -0.0684,14.20825 -0.0342,0.51353 -0.1712,0.71896 -0.34235,0.71896 -0.30813,0 -0.71899,-0.47932 -0.89016,-0.68472 -0.68475,-0.85593 -13.0442,-15.81737 -13.72893,-16.77601 -0.23956,-0.30813 -0.41085,-0.582 -0.82168,-0.582 -2.53352,0 -2.67045,-0.10272 -5.37515,-0.17119 -0.23956,0 -0.82168,0.0685 -0.82168,0.47929 0,0.41085 0.89013,0.78746 1.09557,0.85593 2.05419,0.65051 3.4579,1.43793 3.4579,3.93721 0,5.75178 -0.34237,11.33237 -0.65051,13.9686 -0.13702,1.43793 -0.68472,2.49928 -2.01995,2.84165 -0.78744,0.23966 -1.12981,0.37661 -1.12981,0.68472 0,0.27389 0.41082,0.3766 0.99285,0.3766 1.88302,0 1.91726,-0.17118 3.18404,-0.17118 1.30098,0 1.40368,0.17118 3.28672,0.17118 0.582,0 1.02709,-0.10271 1.02709,-0.3766 0,-0.30811 -0.37661,-0.4793 -1.16405,-0.61624 -1.74608,-0.34238 -2.22539,-1.54067 -2.22539,-2.80742 0,-4.31382 0.10284,-9.65475 0.1712,-13.11267 0,-0.2739 0.0684,-0.71898 0.30811,-0.71898 0.1712,0 0.37661,0.13695 0.71898,0.5478 0.82169,0.99287 12.2225,14.44789 12.87301,15.30381 1.09558,1.54064 2.56774,2.19115 2.97859,2.19115 z m 5.3067,-0.41085 c 1.12979,0 2.63622,-0.20542 4.17686,-0.20542 1.30102,0 2.53353,0.0685 3.18403,0.0685 0.58203,0 0.99286,-0.10272 0.99286,-0.37659 0,-0.30813 -0.34238,-0.47931 -1.12982,-0.71897 -1.12982,-0.2739 -2.01995,-0.95864 -2.01995,-1.98573 0,-0.44508 1.09558,-4.10842 1.40368,-5.0328 0.1712,-0.47932 0.41086,-0.61626 0.61627,-0.61626 h 6.57345 c 0.65051,0 0.85592,0.0342 0.95864,0.3766 0.51355,1.74607 1.36947,4.65619 1.36947,5.64904 0,0.78746 -0.61627,1.33525 -2.1227,1.57491 -0.65048,0.10271 -1.16402,0.37661 -1.16402,0.68474 0,0.27387 0.41082,0.41082 0.99285,0.41082 0.85592,0 2.32811,-0.0342 3.69758,-0.0342 1.54064,0 3.86872,0.20542 4.82737,0.20542 0.61627,0 1.02709,-0.0685 1.02709,-0.34237 0,-0.3081 -0.34237,-0.65047 -1.16405,-0.82166 -1.40368,-0.23966 -2.5335,-0.68474 -3.52638,-3.49216 -1.12982,-3.2867 -3.97145,-11.53776 -6.19684,-18.62476 -0.10283,-0.27389 -0.13702,-0.58203 -0.23956,-0.78745 -0.0342,-0.0685 -0.1712,-0.0685 -0.20539,-0.0342 -0.13702,0.20542 -0.23956,0.9244 -0.65051,1.1983 -0.41085,0.27387 -0.82168,0.37658 -1.26674,0.51353 -0.0684,0.75322 -0.23957,1.36948 -0.47934,2.01999 -2.36232,6.47073 -3.90296,10.44218 -6.53921,16.43361 -0.7532,1.74607 -1.81453,2.3281 -2.97859,2.67047 -0.78744,0.2739 -1.16406,0.51355 -1.16406,0.82166 0,0.2739 0.41086,0.44508 1.02713,0.44508 z m 8.14833,-10.03136 c -0.44509,0 -0.71898,0 -0.71898,-0.23965 0,-0.0684 0.0342,-0.17116 0.0684,-0.27388 l 3.18403,-8.55919 c 0.13702,-0.3766 0.20538,-0.58203 0.27375,-0.58203 0.10254,0 0.1712,0.20543 0.3081,0.61627 l 2.73894,8.52495 c 0.0342,0.13695 0.0684,0.27388 0.0684,0.34235 0,0.17118 -0.13701,0.17118 -0.51354,0.17118 z m 33.68893,10.03136 c 0.34238,0 0.47931,-0.30813 0.61627,-0.582 0.37659,-0.85593 1.30099,-4.72469 1.30099,-5.10127 0,-0.30814 -0.10284,-0.44508 -0.30814,-0.44508 -0.37661,0 -0.68475,0.44508 -0.78744,0.71895 -0.89016,2.39659 -2.25963,3.6291 -4.31382,3.80029 -1.64336,0.10271 -3.3552,0.17118 -4.93008,0.17118 -1.54067,0 -2.94438,-0.0685 -3.93724,-0.17118 -0.27374,-0.0342 -0.41085,-0.30814 -0.41085,-0.58203 0,-0.13695 0.0342,-0.30814 0.10284,-0.41085 4.34806,-6.71039 6.9843,-10.27099 11.81167,-16.77598 l 2.12267,-2.84165 c 0.13702,-0.17119 -0.1712,-0.61625 -0.37659,-0.61625 -2.56776,0.0684 -5.16977,0.10269 -8.04564,0.10269 h -4.41654 c -1.19829,0 -2.53352,-0.34235 -3.01283,-0.54777 -0.37661,-0.17118 -0.89016,-0.51355 -1.06133,-0.51355 -0.17121,0 -0.51355,0.10271 -0.54779,0.61626 -0.10284,1.47217 -0.68475,3.38942 -0.9244,4.1084 -0.10255,0.2739 -0.23957,0.68474 -0.23957,0.95864 0,0.2054 0.10284,0.37658 0.30814,0.37658 0.51354,0 0.78744,-0.68471 0.95864,-1.1298 0.65048,-1.71182 2.32808,-2.46504 3.42365,-2.56775 0.89017,-0.0685 2.22539,-0.0685 3.56062,-0.0685 1.88302,0 3.86875,0.0342 5.10126,0.0685 0.54779,0.0342 0.68475,0.13695 0.68475,0.2739 0,0.10271 -0.0684,0.17118 -0.13702,0.27389 -4.48499,6.71039 -7.42934,10.57913 -12.15402,17.08412 -0.82168,1.09556 -2.01997,2.91013 -2.01997,3.25247 0,0 0.0342,0.47932 0.23956,0.47932 h 2.67049 c 1.33523,0 2.77315,-0.0342 4.17686,-0.0342 3.08131,0 6.53921,0.10271 10.54492,0.10271 z m 4.11697,0 c 1.88301,0 2.73894,-0.17118 4.48499,-0.17118 1.57491,0 2.19115,0.17118 4.07417,0.17118 0.58202,0 0.99288,-0.10271 0.99288,-0.3766 0,-0.30811 -0.34238,-0.4793 -1.12982,-0.61624 -1.74608,-0.34238 -2.77317,-0.95864 -2.77317,-2.602 v -15.78313 c 0,-1.64336 0.7532,-2.19115 2.49928,-2.49928 0.78744,-0.17119 1.12981,-0.41085 1.12981,-0.71898 0,-0.27387 -0.41085,-0.37658 -0.99288,-0.37658 -1.88301,0 -2.32808,0.10271 -3.80027,0.10271 -1.60912,0 -2.22539,-0.10271 -4.10841,-0.10271 -0.58203,0 -0.99285,0.10271 -0.99285,0.37658 0,0.30813 0.34237,0.54779 1.12981,0.71898 1.74606,0.30813 2.36233,0.85592 2.36233,2.49928 v 15.78313 c 0,1.64336 -0.99286,2.25962 -2.73894,2.602 -0.78744,0.13694 -1.16405,0.30813 -1.16405,0.61624 0,0.27389 0.44509,0.3766 1.02712,0.3766 z m 23.3751,0.30814 c 7.7375,0 11.88015,-5.8887 11.88015,-12.18827 0,-6.88158 -5.44364,-11.46929 -11.57202,-11.46929 -7.77172,0 -11.91436,5.8887 -11.91436,12.18827 0,6.88157 5.44363,11.46929 11.60623,11.46929 z m 0.51357,-1.4037 c -5.82025,0 -8.7646,-5.34093 -8.7646,-11.81166 0,-5.44364 2.7047,-8.97003 7.97713,-8.97003 5.85449,0 8.79884,5.27245 8.79884,11.70895 0,5.47788 -2.67045,9.07274 -8.01137,9.07274 z m 36.27379,1.50641 c 0.37661,0 0.7532,-0.13695 0.7532,-0.85593 0,-0.44505 -0.1712,-1.71183 -0.1712,-3.38942 0,-5.51211 0.0342,-15.54347 0.0684,-16.15974 0.0684,-1.16403 0.44507,-1.57488 2.19115,-1.88301 0.78744,-0.17119 1.16403,-0.41085 1.16403,-0.71898 0,-0.27387 -0.44507,-0.37658 -1.0271,-0.37658 -2.12267,0 -2.32808,0.10271 -4.00568,0.10271 h -1.98574 c -0.61627,0 -1.43795,0.10268 -1.43795,0.37658 0,0.30813 0.75323,0.58203 1.57491,0.71898 0.7532,0.13695 1.98571,0.99287 2.01995,1.91725 0,6.36804 -0.0342,12.87301 -0.0684,14.20825 -0.0342,0.51353 -0.17121,0.71896 -0.34235,0.71896 -0.30813,0 -0.71899,-0.47932 -0.89016,-0.68472 -0.68475,-0.85593 -13.04418,-15.81737 -13.72893,-16.77601 -0.23956,-0.30813 -0.41082,-0.582 -0.82168,-0.582 -2.53352,0 -2.67046,-0.10272 -5.37515,-0.17119 -0.23957,0 -0.82168,0.0685 -0.82168,0.47929 0,0.41085 0.89013,0.78746 1.09557,0.85593 2.05419,0.65051 3.4579,1.43793 3.4579,3.93721 0,5.75178 -0.34238,11.33237 -0.65051,13.9686 -0.13702,1.43793 -0.68472,2.49928 -2.01995,2.84165 -0.78744,0.23966 -1.12981,0.37661 -1.12981,0.68472 0,0.27389 0.41082,0.3766 0.99285,0.3766 1.88302,0 1.91726,-0.17118 3.18403,-0.17118 1.30099,0 1.40371,0.17118 3.28673,0.17118 0.58203,0 1.02709,-0.10271 1.02709,-0.3766 0,-0.30811 -0.37661,-0.4793 -1.16405,-0.61624 -1.74606,-0.34238 -2.2254,-1.54067 -2.2254,-2.80742 0,-4.31382 0.10284,-9.65475 0.17121,-13.11267 0,-0.2739 0.0684,-0.71898 0.30813,-0.71898 0.1712,0 0.37659,0.13695 0.71896,0.5478 0.82168,0.99287 12.2225,14.44789 12.87301,15.30381 1.09557,1.54064 2.56776,2.19115 2.97859,2.19115 z m 5.3067,-0.41085 c 1.12982,0 2.63621,-0.20542 4.17686,-0.20542 1.30101,0 2.53352,0.0685 3.18403,0.0685 0.58203,0 0.99285,-0.10272 0.99285,-0.37659 0,-0.30813 -0.34237,-0.47931 -1.12981,-0.71897 -1.12982,-0.2739 -2.01995,-0.95864 -2.01995,-1.98573 0,-0.44508 1.09557,-4.10842 1.40371,-5.0328 0.1712,-0.47932 0.41082,-0.61626 0.61624,-0.61626 h 6.57345 c 0.65051,0 0.85592,0.0342 0.95864,0.3766 0.51355,1.74607 1.36947,4.65619 1.36947,5.64904 0,0.78746 -0.61627,1.33525 -2.12267,1.57491 -0.65051,0.10271 -1.16406,0.37661 -1.16406,0.68474 0,0.27387 0.41083,0.41082 0.99286,0.41082 0.85592,0 2.32811,-0.0342 3.69758,-0.0342 1.54064,0 3.86875,0.20542 4.82736,0.20542 0.61627,0 1.0271,-0.0685 1.0271,-0.34237 0,-0.3081 -0.34235,-0.65047 -1.16403,-0.82166 -1.40371,-0.23966 -2.53352,-0.68474 -3.52641,-3.49216 -1.12978,-3.2867 -3.97144,-11.53776 -6.19683,-18.62476 -0.10284,-0.27389 -0.13702,-0.58203 -0.23957,-0.78745 -0.0342,-0.0685 -0.1712,-0.0685 -0.20538,-0.0342 -0.13702,0.20542 -0.23957,0.9244 -0.65051,1.1983 -0.41082,0.27387 -0.82168,0.37658 -1.26675,0.51353 -0.0684,0.75322 -0.23956,1.36948 -0.47933,2.01999 -2.36233,6.47073 -3.90297,10.44218 -6.53921,16.43361 -0.7532,1.74607 -1.81454,2.3281 -2.97859,2.67047 -0.78744,0.2739 -1.16406,0.51355 -1.16406,0.82166 0,0.2739 0.41086,0.44508 1.02713,0.44508 z m 8.14833,-10.03136 c -0.44507,0 -0.71896,0 -0.71896,-0.23965 0,-0.0684 0.0342,-0.17116 0.0684,-0.27388 l 3.18404,-8.55919 c 0.13702,-0.3766 0.20538,-0.58203 0.27374,-0.58203 0.10284,0 0.17121,0.20543 0.30814,0.61627 l 2.73894,8.52495 c 0.0342,0.13695 0.0684,0.27388 0.0684,0.34235 0,0.17118 -0.13702,0.17118 -0.51355,0.17118 z m 16.97285,10.03136 c 0,0 2.97859,-0.17118 4.72468,-0.17118 3.49213,0 7.2924,0.17118 11.98284,0.17118 0.34237,0 0.44506,-0.27389 0.47931,-0.582 0.13702,-1.47219 0.44509,-2.63623 0.9244,-4.45079 0,-0.0342 0.0684,-0.10272 0.0684,-0.17119 0,-0.2739 -0.1712,-0.61624 -0.44509,-0.61624 -0.30814,0 -0.65048,0.75319 -0.7532,1.02709 -0.61627,1.26677 -0.92441,1.67761 -1.81454,2.49928 -0.4451,0.41084 -1.47219,0.89016 -2.73894,0.89016 h -4.31384 c -2.32809,0 -2.7047,-0.68474 -2.7047,-2.12267 v -16.43364 c 0,-1.36946 1.36947,-1.60912 3.11555,-1.91725 0.78744,-0.17119 1.16406,-0.41085 1.16406,-0.71898 0,-0.27387 -0.4451,-0.37658 -1.02713,-0.37658 -1.88301,0 -2.67045,0.10271 -4.3823,0.10271 -1.54064,0 -2.05419,-0.10271 -3.9372,-0.10271 -0.58203,0 -0.99289,0.10271 -0.99289,0.37658 0,0.30813 0.34238,0.54779 1.12982,0.71898 1.74608,0.30813 2.15691,0.47932 2.15691,2.15691 v 16.19398 c 0,1.54064 -1.02709,2.15691 -2.84163,2.53352 -0.13702,0.0342 -0.75323,0.17118 -0.75323,0.582 0,0.23966 0.34238,0.41084 0.95864,0.41084 z m 20.78168,0 c 1.88302,0 2.46505,-0.20542 4.03993,-0.20542 3.49216,0 6.43652,0.20542 10.92151,0.20542 0.27374,0 0.34237,-0.27389 0.47933,-0.582 0.41083,-0.95864 1.09558,-3.42368 1.09558,-4.07419 0,-0.27389 -0.13702,-0.44508 -0.37662,-0.47932 -0.27374,-0.0342 -0.44506,0.17119 -0.58202,0.44509 -0.71896,1.40372 -1.23251,2.22538 -1.98574,2.7047 -0.71896,0.44508 -1.67757,0.58203 -3.18401,0.58203 h -2.56776 c -1.57488,0 -2.32808,-0.54779 -2.32808,-2.32809 v -6.71039 c 0,-0.78746 0.41082,-0.89017 1.1983,-0.89017 h 3.25248 c 0.92437,0 1.33523,0.47932 1.60912,1.54064 0.1712,0.75322 0.44507,1.12983 0.78744,1.12983 0.30814,0 0.34238,-0.2739 0.34238,-0.58203 0,-0.2739 -0.0684,-1.98573 -0.0684,-2.70471 0,-0.54779 0.10284,-2.12267 0.10284,-2.4308 0,-0.34237 -0.30813,-0.5478 -0.47934,-0.5478 -0.27374,0 -0.4793,0.23966 -0.61623,0.75322 -0.34238,1.30101 -0.65051,1.71183 -2.01998,1.71183 h -3.4579 c -0.34237,0 -0.65051,-0.34237 -0.65051,-0.75319 v -7.42937 c 0,-0.6505 0.89016,-1.09559 1.26675,-1.09559 h 4.58774 c 0.85589,0 1.67758,0.20543 2.32808,0.92441 0.30814,0.34237 0.51355,1.16403 0.78745,1.91725 0.0684,0.23966 0.13702,0.34237 0.37661,0.34237 0.20538,0 0.47931,-0.10271 0.47931,-0.51356 0,-0.9244 -0.27375,-2.25962 -0.51355,-3.59487 -0.0342,-0.23963 -0.37662,-0.3081 -0.65051,-0.3081 -0.1712,0 -1.36947,0.0342 -2.94435,0.0685 -1.47219,0 -3.25248,0.0342 -4.79313,0.0342 -2.43083,0 -3.56061,-0.10271 -6.19686,-0.10271 -0.58203,0 -0.99285,0.10271 -0.99285,0.37658 0,0.30813 0.34237,0.54779 1.16405,0.71898 1.74606,0.30813 2.32809,0.85592 2.32809,2.53351 v 15.71467 c 0,1.67759 -0.85593,2.29385 -2.60198,2.63623 -0.78747,0.13694 -1.12982,0.30813 -1.12982,0.61624 0,0.27389 0.41083,0.3766 0.99286,0.3766 z m 0,0"
       style="fill:#ffffff;fill-opacity:1;fill-rule:nonzero;stroke:none;stroke-width:2.92153"
       aria-label="ASSOCIAZIONEINTERNAZIONALE" />
    <path
       id="path2"
       d="m -132.8467,373.49868 c 4.58772,0 7.60053,-2.67047 7.60053,-6.84734 0,-3.49216 -2.60197,-5.13551 -5.03277,-6.6077 -2.63623,-1.60912 -4.89585,-3.01281 -4.89585,-5.10125 0,-2.94436 1.91725,-4.00571 4.00568,-4.00571 1.98573,0 3.21826,1.36948 4.17687,3.83452 0.13695,0.2739 0.58203,0.4793 0.99288,0.4793 0.2739,0 0.51356,-0.10269 0.51356,-0.37658 0,-1.12983 -0.41085,-2.49928 -0.68475,-3.45792 -0.10271,-0.37661 -0.3766,-0.75322 -0.75321,-0.89017 -0.75322,-0.30813 -1.98573,-0.75319 -3.66332,-0.75319 -4.89585,0 -7.29242,2.80742 -7.29242,6.33378 0,3.38945 3.04705,4.96433 5.78599,6.67616 2.46505,1.54067 3.93724,2.46504 3.93724,5.30669 0,2.60199 -1.78033,4.27961 -4.21113,4.27961 -1.98573,0 -4.03993,-1.40372 -4.93009,-4.99856 -0.10271,-0.2739 -0.34235,-0.37661 -0.58201,-0.37661 -0.3766,0 -0.68474,0.17119 -0.68474,0.47929 0.0685,0.95864 0.10271,2.70471 0.34237,3.66335 0.0685,0.27389 0.2739,0.51355 0.44509,0.68474 1.30098,1.09556 2.97857,1.67759 4.93008,1.67759 z m 16.58768,-0.37661 c 1.88302,0 2.73894,-0.17119 4.48501,-0.17119 1.60912,0 2.19115,0.17119 4.07416,0.17119 0.61627,0 1.02711,-0.10271 1.02711,-0.37661 0,-0.30813 -0.34237,-0.47929 -1.16406,-0.61624 -1.74606,-0.34237 -2.73891,-1.06135 -2.73891,-2.73894 v -13.72894 c 0,-3.8345 0.17116,-4.00568 1.74606,-4.00568 h 3.52637 c 2.22541,0 3.01283,0.61626 3.18402,1.60911 0.17119,0.89017 0.34237,1.43796 0.68474,1.43796 0.34237,0 0.5478,-0.71898 0.5478,-1.12982 v -0.41085 c 0,-0.92437 0.13692,-0.78742 0.34234,-2.08843 0.0343,-0.20543 0.13695,-0.71898 0.13695,-0.95862 0,-0.34237 -0.10274,-0.82169 -0.23966,-0.82169 -0.54779,0 -0.78745,0.44509 -1.36946,0.71898 -0.75321,0.34235 -1.71185,0.51353 -3.28673,0.51353 h -12.29098 c -0.99285,0 -2.19115,-0.20542 -2.46505,-0.68471 -0.20539,-0.37661 -0.68471,-1.12983 -0.8559,-1.12983 -0.17118,0 -0.51355,0.0342 -0.61626,0.82169 -0.20543,1.43794 -0.41085,2.3281 -1.06135,3.66332 -0.10271,0.20542 -0.17119,0.47932 -0.17119,0.68474 0,0.23966 0.0685,0.44508 0.23966,0.44508 0.51356,0 1.1983,-0.9244 1.43796,-1.30101 0.47932,-0.92437 1.74606,-1.36945 2.84165,-1.36945 h 1.64335 c 1.19827,0 1.81454,0 2.49928,0.13695 0.5478,0.10271 0.71898,0.8559 0.71898,4.03992 v 13.55775 c 0,1.67759 -0.99287,2.39657 -2.73894,2.73894 -0.78745,0.13695 -1.12982,0.30811 -1.12982,0.61624 0,0.2739 0.41084,0.37661 0.99287,0.37661 z m 28.801646,0.30813 c 5.135509,0 9.038484,-3.80026 9.209669,-9.20967 0.102711,-3.21826 0.102711,-6.36804 0.342371,-10.37373 0.06847,-1.40369 0.513556,-2.36233 1.746065,-2.60199 0.787452,-0.20542 1.16406,-0.41084 1.16406,-0.71898 0,-0.27389 -0.445082,-0.37658 -1.027112,-0.37658 -0.787453,0 -1.711828,0.10269 -2.841652,0.10269 -0.992848,0 -1.574879,-0.0342 -2.601991,-0.0342 -0.582031,0 -1.027086,0.10271 -1.027086,0.37661 0,0.30813 0.684715,0.58203 1.164034,0.71898 0.992875,0.27389 1.40372,2.01996 1.437957,3.80026 0.06847,2.67047 0.136922,5.9572 0.136922,7.49784 0,5.44364 -2.156909,9.07275 -6.950048,9.07275 -4.279583,0 -7.326656,-2.49928 -7.326656,-8.07987 v -9.82594 c 0,-1.40369 0.890137,-2.3281 1.472168,-2.49928 0.753215,-0.2739 1.129823,-0.41085 1.129823,-0.71898 0,-0.2739 -0.410845,-0.37661 -0.992875,-0.37661 -0.753216,0 -1.711828,0.0685 -2.807414,0.0685 -1.300983,0 -2.293858,-0.10271 -3.355182,-0.10271 -0.58203,0 -1.027112,0.10271 -1.027112,0.3766 0,0.30814 0.376608,0.5478 1.164061,0.78746 0.787426,0.20542 1.609116,0.85592 1.609116,2.53351 v 10.7161 c 0,5.34091 3.149785,8.8673 9.380855,8.8673 z m 25.745995,-0.23966 c 6.676178,0 12.154032,-5.47788 12.154032,-12.18827 0,-6.09412 -3.766026,-11.05844 -13.215355,-11.05844 -0.958639,0 -4.485032,0.27387 -5.991437,0.27387 -1.67759,0 -2.088435,-0.0684 -3.868737,-0.0684 -0.582031,0 -0.992876,0.13695 -0.992876,0.44506 0,0.37661 0.342371,0.47932 1.129824,0.6505 1.746065,0.30814 2.362332,0.85593 2.362332,2.53352 v 15.71466 c 0,1.67759 -0.616267,2.29386 -2.362332,2.63623 -0.787453,0.13695 -1.129824,0.17119 -1.129824,0.54777 0,0.34237 0.410845,0.44508 0.992876,0.44508 1.848776,0 2.259621,-0.17119 3.663315,-0.17119 2.773177,0 6.573467,0.23966 7.258182,0.23966 z m -0.410845,-1.2325 c -2.601966,0 -5.238194,-0.41085 -5.238194,-3.21826 v -15.57772 c 0,-2.12267 1.711827,-2.15691 4.758901,-2.15691 4.793139,0 9.723226,3.903 9.723226,10.57916 0,6.09412 -3.80029,10.37373 -9.243933,10.37373 z m 15.483575,1.16403 c 1.883013,0 2.73894,-0.17119 4.485005,-0.17119 1.574879,0 2.191147,0.17119 4.07416,0.17119 0.58203,0 0.992875,-0.10271 0.992875,-0.37661 0,-0.30813 -0.34237,-0.47929 -1.129823,-0.61624 -1.746065,-0.34237 -2.773178,-0.95864 -2.773178,-2.60199 v -15.78314 c 0,-1.64335 0.753216,-2.19114 2.499281,-2.49928 0.787453,-0.17118 1.129824,-0.41084 1.129824,-0.71898 0,-0.27389 -0.410845,-0.37658 -0.992876,-0.37658 -1.883013,0 -2.328095,0.10269 -3.800263,0.10269 -1.609143,0 -2.225384,-0.10269 -4.108397,-0.10269 -0.58203,0 -0.992875,0.10269 -0.992875,0.37658 0,0.30814 0.34237,0.5478 1.129797,0.71898 1.746091,0.30814 2.362332,0.85593 2.362332,2.49928 v 15.78314 c 0,1.64335 -0.992849,2.25962 -2.738914,2.60199 -0.787453,0.13695 -1.16406,0.30811 -1.16406,0.61624 0,0.2739 0.445082,0.37661 1.027112,0.37661 z m 30.119743,0.0685 c 6.6761518,0 12.1540321,-5.47788 12.1540321,-12.18827 0,-6.09412 -3.7660262,-11.05844 -13.2153821,-11.05844 -0.958611,0 -4.485005,0.27387 -5.99141,0.27387 -1.677617,0 -2.088435,-0.0684 -3.868764,-0.0684 -0.582004,0 -0.992849,0.13695 -0.992849,0.44506 0,0.37661 0.342371,0.47932 1.129798,0.6505 1.746091,0.30814 2.362332,0.85593 2.362332,2.53352 v 15.71466 c 0,1.67759 -0.616241,2.29386 -2.362332,2.63623 -0.787427,0.13695 -1.129798,0.17119 -1.129798,0.54777 0,0.34237 0.410845,0.44508 0.992849,0.44508 1.848803,0 2.259621,-0.17119 3.663342,-0.17119 2.773177,0 6.57344,0.23966 7.258182,0.23966 z m -0.410845,-1.2325 c -2.601992,0 -5.238221,-0.41085 -5.238221,-3.21826 v -15.57772 c 0,-2.12267 1.711854,-2.15691 4.758902,-2.15691 4.793139,0 9.7232256,3.903 9.7232256,10.57916 0,6.09412 -3.8002636,10.37373 -9.2439066,10.37373 z m 15.4835488,1.16403 c 1.88303953,0 2.7389401,-0.17119 4.4850314,-0.17119 1.5748793,0 2.1911468,0.17119 4.0741599,0.17119 0.5820304,0 0.9928754,-0.10271 0.9928754,-0.37661 0,-0.30813 -0.3423708,-0.47929 -1.1298237,-0.61624 -1.7460648,-0.34237 -2.7731773,-0.95864 -2.7731773,-2.60199 v -15.78314 c 0,-1.64335 0.7532159,-2.19114 2.4992806,-2.49928 0.7874529,-0.17118 1.1298238,-0.41084 1.1298238,-0.71898 0,-0.27389 -0.410845,-0.37658 -0.9928754,-0.37658 -1.8830131,0 -2.3280952,0.10269 -3.8002633,0.10269 -1.6091429,0 -2.22541041,-0.10269 -4.1084235,-0.10269 -0.5820304,0 -0.992849,0.10269 -0.992849,0.37658 0,0.30814 0.3423444,0.5478 1.12979732,0.71898 1.74606477,0.30814 2.36233228,0.85593 2.36233228,2.49928 v 15.78314 c 0,1.64335 -0.99284897,2.25962 -2.7389402,2.60199 -0.7874264,0.13695 -1.1640344,0.30811 -1.1640344,0.61624 0,0.2739 0.4450821,0.37661 1.0270861,0.37661 z m 31.3950872,0.34237 c 2.259621,0 4.89585,-0.30813 6.607678,-0.99287 0.718979,-0.23964 0.753216,-0.27388 1.129824,-0.95862 0.410818,-0.99287 0.924374,-2.80741 0.924374,-3.38944 0,-0.71895 -0.855927,-0.68472 -1.198271,-0.10271 -1.506432,2.77317 -3.594867,4.38232 -6.950075,4.38232 -5.785988,0 -9.586277,-5.88873 -9.586277,-11.57203 0,-5.13551 3.903001,-9.96289 9.346644,-9.96289 1.91725,0 3.629078,0.44509 4.793139,1.1983 1.232508,0.8559 1.711827,2.08844 2.156909,3.86874 0.205396,0.82169 1.232509,0.51356 1.198272,-0.0342 -0.06847,-1.81454 -0.205396,-2.91012 -0.308134,-4.00568 -0.06847,-0.61627 -0.308134,-1.02712 -1.027086,-1.1983 -2.362332,-0.58201 -3.526393,-0.89014 -6.196859,-0.89014 -7.155471,0 -13.489252,5.10127 -13.489252,11.88014 0,7.12123 6.059884,11.77742 12.599114,11.77742 z m 11.546337,-0.34237 c 1.129798,0 2.636203,-0.20542 4.176872,-0.20542 1.300982,0 2.533517,0.0685 3.184022,0.0685 0.582004,0 0.992849,-0.10271 0.992849,-0.37661 0,-0.3081 -0.342371,-0.47929 -1.129797,-0.71895 -1.129824,-0.2739 -2.019988,-0.95864 -2.019988,-1.98572 0,-0.44509 1.095586,-4.10843 1.40372,-5.0328 0.171159,-0.47932 0.410845,-0.61627 0.616268,-0.61627 h 6.57344 c 0.650505,0 0.855927,0.0342 0.958638,0.37661 0.51353,1.74606 1.369457,4.65619 1.369457,5.64904 0,0.78745 -0.616267,1.33524 -2.122672,1.5749 -0.650505,0.10272 -1.164061,0.37661 -1.164061,0.68472 0,0.2739 0.410845,0.41084 0.992875,0.41084 0.855901,0 2.328095,-0.0342 3.697552,-0.0342 1.540669,0 3.868764,0.20542 4.827376,0.20542 0.616267,0 1.027112,-0.0685 1.027112,-0.34237 0,-0.30813 -0.34237,-0.65048 -1.16406,-0.82166 -1.403694,-0.23966 -2.533492,-0.68475 -3.526367,-3.49216 -1.129824,-3.28673 -3.971475,-11.53777 -6.196859,-18.62476 -0.102711,-0.2739 -0.136922,-0.58203 -0.239633,-0.78746 -0.03426,-0.0685 -0.171186,-0.0685 -0.205423,-0.0342 -0.136922,0.20542 -0.239659,0.9244 -0.650504,1.19827 -0.410845,0.2739 -0.82169,0.37661 -1.266746,0.51356 -0.0685,0.75321 -0.239659,1.36948 -0.479319,2.01996 -2.362332,6.47075 -3.902975,10.4422 -6.539203,16.43364 -0.753216,1.74606 -1.814566,2.32809 -2.9786,2.67046 -0.787453,0.2739 -1.164061,0.51353 -1.164061,0.82167 0,0.27389 0.410845,0.44508 1.027112,0.44508 z m 8.14832,-10.03136 c -0.445082,0 -0.718978,0 -0.718978,-0.23966 0,-0.0685 0.03426,-0.17118 0.0685,-0.27387 l 3.183996,-8.55919 c 0.136948,-0.37661 0.205423,-0.58203 0.273897,-0.58203 0.102737,0 0.171185,0.20542 0.308133,0.61627 l 2.738941,8.52495 c 0.03424,0.13692 0.06847,0.27387 0.06847,0.34234 0,0.17119 -0.136922,0.17119 -0.513556,0.17119 z m 38.379373,10.4422 c 0.376582,0 0.75319,-0.13694 0.75319,-0.85592 0,-0.44506 -0.171159,-1.71183 -0.171159,-3.38942 0,-5.51212 0.03424,-15.54348 0.06847,-16.15975 0.06847,-1.16403 0.445082,-1.57487 2.191147,-1.88301 0.787453,-0.17118 1.164061,-0.41084 1.164061,-0.71898 0,-0.27389 -0.445082,-0.37658 -1.027113,-0.37658 -2.122673,0 -2.328095,0.10269 -4.005686,0.10269 h -1.985724 c -0.616267,0 -1.437957,0.10271 -1.437957,0.3766 0,0.30814 0.753215,0.58203 1.574879,0.71898 0.753216,0.13695 1.985751,0.99288 2.019988,1.91725 0,6.36805 -0.03426,12.87301 -0.0685,14.20823 -0.03424,0.51356 -0.171159,0.71898 -0.342371,0.71898 -0.308107,0 -0.718952,-0.47932 -0.890137,-0.68474 -0.684742,-0.8559 -13.044197,-15.81735 -13.728938,-16.77598 -0.239633,-0.30814 -0.410819,-0.58203 -0.821664,-0.58203 -2.533518,0 -2.670466,-0.10269 -5.375169,-0.17116 -0.23966,0 -0.82169,0.0684 -0.82169,0.47929 0,0.41084 0.890164,0.78745 1.095587,0.85593 2.054198,0.6505 3.457892,1.43793 3.457892,3.93721 0,5.75177 -0.342371,11.33237 -0.650478,13.9686 -0.136948,1.43793 -0.684742,2.49928 -2.019988,2.84165 -0.787426,0.23963 -1.129797,0.37658 -1.129797,0.68471 0,0.2739 0.410845,0.37661 0.992849,0.37661 1.883039,0 1.917276,-0.17119 3.184022,-0.17119 1.301009,0 1.40372,0.17119 3.286734,0.17119 0.58203,0 1.027112,-0.10271 1.027112,-0.37661 0,-0.30813 -0.376608,-0.47929 -1.164061,-0.61624 -1.746065,-0.34237 -2.225384,-1.54067 -2.225384,-2.80741 0,-4.31385 0.102712,-9.65476 0.171159,-13.11267 0,-0.2739 0.0685,-0.71898 0.308134,-0.71898 0.171185,0 0.376608,0.13695 0.718979,0.54779 0.82169,0.99288 12.222506,14.44789 12.873011,15.30382 1.09556,1.54064 2.567754,2.19114 2.978599,2.19114 z m 11.811662,-0.41084 c 1.883013,0 2.738943,-0.17119 4.485003,-0.17119 1.60912,0 2.19115,0.17119 4.07416,0.17119 0.61627,0 1.02711,-0.10271 1.02711,-0.37661 0,-0.30813 -0.34237,-0.47929 -1.16406,-0.61624 -1.74606,-0.34237 -2.73891,-1.06135 -2.73891,-2.73894 v -13.72894 c 0,-3.8345 0.17116,-4.00568 1.74606,-4.00568 h 3.52637 c 2.22538,0 3.01284,0.61626 3.18402,1.60911 0.17119,0.89017 0.34237,1.43796 0.68474,1.43796 0.34238,0 0.5478,-0.71898 0.5478,-1.12982 v -0.41085 c 0,-0.92437 0.13692,-0.78742 0.34234,-2.08843 0.0343,-0.20543 0.13695,-0.71898 0.13695,-0.95862 0,-0.34237 -0.10271,-0.82169 -0.23966,-0.82169 -0.54779,0 -0.78745,0.44509 -1.36946,0.71898 -0.75321,0.34235 -1.71185,0.51353 -3.28673,0.51353 H 98.49933 c -0.992875,0 -2.191146,-0.20542 -2.465043,-0.68471 -0.205423,-0.37661 -0.684742,-1.12983 -0.855927,-1.12983 -0.171159,0 -0.513556,0.0342 -0.616241,0.82169 -0.205423,1.43794 -0.410845,2.3281 -1.06135,3.66332 -0.102711,0.20542 -0.171185,0.47932 -0.171185,0.68474 0,0.23966 0.0685,0.44508 0.239659,0.44508 0.513557,0 1.198298,-0.9244 1.437958,-1.30101 0.479293,-0.92437 1.746065,-1.36945 2.841651,-1.36945 h 1.643354 c 1.198274,0 1.814534,0 2.499284,0.13695 0.54779,0.10271 0.71898,0.8559 0.71898,4.03992 v 13.55775 c 0,1.67759 -0.99288,2.39657 -2.738945,2.73894 -0.787453,0.13695 -1.129824,0.30811 -1.129824,0.61624 0,0.2739 0.410845,0.37661 0.992876,0.37661 z m 28.313753,0.30813 c 7.7375,0 11.88016,-5.88872 11.88016,-12.18827 0,-6.88157 -5.44364,-11.46929 -11.57203,-11.46929 -7.77174,0 -11.91437,5.8887 -11.91437,12.18827 0,6.88158 5.44364,11.46929 11.60624,11.46929 z m 0.51355,-1.40369 c -5.82022,0 -8.76458,-5.34093 -8.76458,-11.81169 0,-5.44362 2.7047,-8.97001 7.97713,-8.97001 5.85449,0 8.79885,5.27246 8.79885,11.70895 0,5.47788 -2.67046,9.07275 -8.0114,9.07275 z m 33.63759,1.40369 c 4.41654,0 7.60054,-2.22538 8.3195,-2.32809 0.47934,-0.0685 0.47934,-0.47932 0.47934,-0.65051 0,-0.20542 -0.30814,-0.3766 -0.4451,-0.61624 -0.10284,-0.20542 -0.20538,-0.30813 -0.20538,-0.54779 v -0.95864 c 0,-0.85593 0.0342,-1.60912 0.1712,-2.60199 0.13702,-0.95861 0.4451,-1.43793 1.43795,-1.71183 0.20538,-0.0342 0.7532,-0.30813 0.7532,-0.61627 0,-0.47932 -0.54778,-0.58203 -0.7532,-0.58203 -1.23251,0 -1.88301,0.13695 -3.08131,0.13695 -1.91726,0 -2.7047,-0.13695 -4.41654,-0.13695 -0.1712,0 -0.68472,0.23966 -0.68472,0.61627 0,0.34237 0.51355,0.58203 0.68472,0.58203 0.71899,0 2.84166,0.30814 3.42369,1.06132 0.13702,0.20543 0.1712,0.58203 0.1712,1.06135 0,0.61627 -0.0684,1.43794 -0.0684,2.01997 0,1.23253 -0.51357,2.15691 -1.02712,2.7047 -0.44507,0.41084 -1.57488,1.30101 -4.27958,1.30101 -4.65619,0 -9.14121,-3.903 -9.14121,-10.51068 0,-5.54636 3.66334,-10.54492 9.07273,-10.54492 3.32097,0 5.10129,1.30101 5.54636,1.88302 0.58202,0.6505 0.82168,1.09558 1.09557,1.8488 0.13702,0.41082 0.30814,0.92437 0.78744,0.92437 0.30814,0 0.54779,-0.34237 0.54779,-0.68471 0,-0.9244 -0.1712,-2.36236 -0.37662,-3.69758 -0.0342,-0.2739 -0.10254,-0.34237 -0.3081,-0.44508 -0.9244,-0.44508 -5.37518,-1.1298 -6.9843,-1.1298 -6.95007,0 -12.83877,5.37514 -12.83877,12.29098 0,6.43649 5.64905,11.33234 12.1198,11.33234 z m 34.02271,0.23966 c 0.85592,0 2.80742,-0.20542 2.80742,-1.19829 0,-0.27388 -0.1712,-0.41082 -0.51355,-0.41082 -1.64336,0 -2.80741,-0.0685 -4.00568,-1.12983 -3.28672,-2.9786 -4.93009,-5.58059 -7.087,-8.8673 -0.13702,-0.20542 -0.1712,-0.3766 0,-0.47931 1.91726,-0.95864 4.10841,-2.70471 4.10841,-5.85449 0,-3.80027 -2.77318,-5.71752 -7.84023,-5.71752 -2.05418,0 -2.70469,0.17119 -4.03992,0.17119 -1.43795,0 -1.54064,-0.0342 -3.42369,-0.0342 -0.582,0 -0.99285,0.10269 -0.99285,0.37658 0,0.30814 0.34237,0.65051 1.12981,0.71898 2.01998,0.20542 2.15691,0.68474 2.15691,3.32097 v 14.89297 c 0,1.71183 -0.82168,2.3281 -2.56776,2.67047 -0.78744,0.13695 -1.16403,0.30811 -1.16403,0.61624 0,0.2739 0.44507,0.37661 1.02709,0.37661 1.88302,0 2.77318,-0.23966 4.55348,-0.23966 1.30101,0 1.54067,0.23966 3.42368,0.23966 0.58203,0 0.99286,-0.10271 0.99286,-0.37661 0,-0.30813 -0.34238,-0.47929 -1.12982,-0.61624 -1.74605,-0.34237 -2.36232,-1.50643 -2.36232,-3.01284 v -6.16262 c 0,-0.41082 0.13702,-0.71895 0.54779,-0.68471 0.61626,0.0685 1.74608,0.23963 2.73893,0.71895 0.68473,0.34237 1.12982,0.75321 1.5064,1.36948 2.3966,3.90298 3.59486,5.34093 5.30671,7.42937 1.23253,1.50641 2.84166,1.88301 4.82736,1.88301 z m -13.07841,-12.2225 c -1.12982,0 -1.84878,-0.0685 -1.84878,-1.1983 0,-2.80739 0.0342,-4.7589 0.0684,-5.95717 0.10284,-2.39657 0.37659,-3.2525 1.88302,-3.2525 4.41654,0 5.1355,2.43081 5.1355,5.23822 0,2.7047 -2.01998,5.16975 -5.23822,5.16975 z m 18.01706,11.67471 c 1.88305,0 2.46504,-0.20542 4.03996,-0.20542 3.49213,0 6.43648,0.20542 10.9215,0.20542 0.27375,0 0.34238,-0.2739 0.47931,-0.58203 0.41086,-0.95861 1.09558,-3.42366 1.09558,-4.07416 0,-0.2739 -0.13702,-0.44508 -0.37662,-0.47932 -0.27375,-0.0342 -0.44507,0.17119 -0.582,0.44508 -0.71899,1.40372 -1.23253,2.22539 -1.98574,2.70471 -0.71899,0.44508 -1.6776,0.58203 -3.18403,0.58203 h -2.56773 c -1.57488,0 -2.32811,-0.5478 -2.32811,-2.3281 v -6.71041 c 0,-0.78743 0.41085,-0.89014 1.19829,-0.89014 h 3.25248 c 0.92441,0 1.33524,0.47932 1.60913,1.54064 0.1712,0.75322 0.44509,1.12982 0.78744,1.12982 0.30813,0 0.34237,-0.27389 0.34237,-0.58203 0,-0.27389 -0.0684,-1.98572 -0.0684,-2.7047 0,-0.54779 0.10284,-2.12267 0.10284,-2.43081 0,-0.34237 -0.30814,-0.54779 -0.47931,-0.54779 -0.27375,0 -0.47934,0.23966 -0.61627,0.75322 -0.34237,1.30098 -0.65051,1.71182 -2.01998,1.71182 h -3.45789 c -0.34238,0 -0.65051,-0.34237 -0.65051,-0.75319 v -7.42936 c 0,-0.65051 0.89016,-1.09559 1.26678,-1.09559 h 4.58771 c 0.85592,0 1.6776,0.20542 2.32808,0.9244 0.30814,0.34237 0.51358,1.16404 0.78747,1.91725 0.0684,0.23966 0.13702,0.34237 0.37659,0.34237 0.20538,0 0.4793,-0.10271 0.4793,-0.51355 0,-0.92441 -0.27375,-2.25962 -0.51354,-3.59487 -0.0342,-0.23963 -0.37659,-0.30811 -0.65048,-0.30811 -0.1712,0 -1.36947,0.0342 -2.94438,0.0684 -1.47216,0 -3.25249,0.0342 -4.79313,0.0342 -2.4308,0 -3.56062,-0.10269 -6.19683,-0.10269 -0.58203,0 -0.99289,0.10269 -0.99289,0.37658 0,0.30814 0.34238,0.5478 1.16406,0.71898 1.74608,0.30814 2.32808,0.85593 2.32808,2.53352 v 15.71466 c 0,1.67759 -0.85589,2.29386 -2.60197,2.63623 -0.78745,0.13695 -1.12982,0.30811 -1.12982,0.61624 0,0.2739 0.41086,0.37661 0.99285,0.37661 z m 31.10407,0.30813 c 4.41654,0 7.60055,-2.22538 8.31951,-2.32809 0.47933,-0.0685 0.47933,-0.47932 0.47933,-0.65051 0,-0.20542 -0.30813,-0.3766 -0.44509,-0.61624 -0.10255,-0.20542 -0.20539,-0.30813 -0.20539,-0.54779 v -0.95864 c 0,-0.8559 0.0342,-1.60912 0.1712,-2.60199 0.13702,-0.95861 0.4451,-1.43793 1.43795,-1.71183 0.20539,-0.0342 0.7532,-0.30813 0.7532,-0.61627 0,-0.47932 -0.54778,-0.58203 -0.7532,-0.58203 -1.2325,0 -1.88301,0.13695 -3.08131,0.13695 -1.91725,0 -2.70469,-0.13695 -4.41651,-0.13695 -0.1712,0 -0.68475,0.23966 -0.68475,0.61627 0,0.34237 0.51355,0.58203 0.68475,0.58203 0.71896,0 2.84163,0.30814 3.42366,1.06132 0.13702,0.20543 0.1712,0.58203 0.1712,1.06135 0,0.61627 -0.0684,1.43794 -0.0684,2.01997 0,1.23253 -0.51355,2.15691 -1.02713,2.7047 -0.44506,0.41084 -1.57488,1.30101 -4.27958,1.30101 -4.65619,0 -9.14118,-3.903 -9.14118,-10.51068 0,-5.54636 3.66331,-10.54492 9.0727,-10.54492 3.32097,0 5.10129,1.30101 5.54636,1.88302 0.58203,0.6505 0.82168,1.09558 1.09558,1.8488 0.13702,0.41082 0.30813,0.92437 0.78744,0.92437 0.30813,0 0.54778,-0.34237 0.54778,-0.68471 0,-0.9244 -0.1712,-2.36236 -0.37658,-3.69758 -0.0342,-0.2739 -0.10284,-0.34237 -0.30814,-0.44508 -0.9244,-0.44508 -5.37518,-1.1298 -6.9843,-1.1298 -6.95004,0 -12.83877,5.37514 -12.83877,12.29098 0,6.43649 5.64908,11.33234 12.11981,11.33234 z m 24.95001,0 c 7.73751,0 11.88013,-5.88872 11.88013,-12.18827 0,-6.88157 -5.44364,-11.46929 -11.57199,-11.46929 -7.77175,0 -11.91439,5.8887 -11.91439,12.18827 0,6.88158 5.44363,11.46929 11.60625,11.46929 z m 0.51355,-1.40369 c -5.82025,0 -8.7646,-5.34093 -8.7646,-11.81169 0,-5.44362 2.7047,-8.97001 7.97716,-8.97001 5.85446,0 8.79884,5.27246 8.79884,11.70895 0,5.47788 -2.67049,9.07275 -8.0114,9.07275 z m 35.20389,1.64335 c 0.85592,0 2.80742,-0.20542 2.80742,-1.19829 0,-0.27388 -0.1712,-0.41082 -0.51355,-0.41082 -1.64336,0 -2.80742,-0.0685 -4.00568,-1.12983 -3.28673,-2.9786 -4.93009,-5.58059 -7.08703,-8.8673 -0.13702,-0.20542 -0.1712,-0.3766 0,-0.47931 1.91726,-0.95864 4.10841,-2.70471 4.10841,-5.85449 0,-3.80027 -2.77315,-5.71752 -7.8402,-5.71752 -2.05419,0 -2.7047,0.17119 -4.03993,0.17119 -1.43795,0 -1.54067,-0.0342 -3.42368,-0.0342 -0.58203,0 -0.99286,0.10269 -0.99286,0.37658 0,0.30814 0.34238,0.65051 1.12982,0.71898 2.01995,0.20542 2.15691,0.68474 2.15691,3.32097 v 14.89297 c 0,1.71183 -0.82168,2.3281 -2.56777,2.67047 -0.78744,0.13695 -1.16402,0.30811 -1.16402,0.61624 0,0.2739 0.44506,0.37661 1.02709,0.37661 1.88302,0 2.77318,-0.23966 4.55347,-0.23966 1.30099,0 1.54067,0.23966 3.42369,0.23966 0.58203,0 0.99285,-0.10271 0.99285,-0.37661 0,-0.30813 -0.34237,-0.47929 -1.12981,-0.61624 -1.74606,-0.34237 -2.36232,-1.50643 -2.36232,-3.01284 v -6.16262 c 0,-0.41082 0.13702,-0.71895 0.54778,-0.68471 0.61627,0.0685 1.74606,0.23963 2.73894,0.71895 0.68472,0.34237 1.12982,0.75321 1.5064,1.36948 2.39659,3.90298 3.59486,5.34093 5.3067,7.42937 1.23251,1.50641 2.84166,1.88301 4.82737,1.88301 z m -13.07842,-12.2225 c -1.12981,0 -1.84877,-0.0685 -1.84877,-1.1983 0,-2.80739 0.0342,-4.7589 0.0684,-5.95717 0.10254,-2.39657 0.37658,-3.2525 1.88302,-3.2525 4.41653,0 5.13549,2.43081 5.13549,5.23822 0,2.7047 -2.01997,5.16975 -5.23822,5.16975 z m 17.40939,11.67471 c 1.88301,0 2.73894,-0.17119 4.48499,-0.17119 1.57488,0 2.19115,0.17119 4.07416,0.17119 0.58203,0 0.99289,-0.10271 0.99289,-0.37661 0,-0.30813 -0.34238,-0.47929 -1.12982,-0.61624 -1.74608,-0.34237 -2.77317,-0.95864 -2.77317,-2.60199 v -15.78314 c 0,-1.64335 0.75319,-2.19114 2.49928,-2.49928 0.78744,-0.17118 1.12981,-0.41084 1.12981,-0.71898 0,-0.27389 -0.41085,-0.37658 -0.99288,-0.37658 -1.88302,0 -2.32808,0.10269 -3.80027,0.10269 -1.60912,0 -2.22539,-0.10269 -4.10841,-0.10269 -0.58202,0 -0.99285,0.10269 -0.99285,0.37658 0,0.30814 0.34237,0.5478 1.12982,0.71898 1.74605,0.30814 2.36232,0.85593 2.36232,2.49928 v 15.78314 c 0,1.64335 -0.99286,2.25962 -2.73894,2.60199 -0.78744,0.13695 -1.16406,0.30811 -1.16406,0.61624 0,0.2739 0.4451,0.37661 1.02713,0.37661 z m 11.1526,0 c 1.12982,0 2.63622,-0.20542 4.17689,-0.20542 1.30099,0 2.53349,0.0685 3.184,0.0685 0.58203,0 0.99285,-0.10271 0.99285,-0.37661 0,-0.3081 -0.34234,-0.47929 -1.12981,-0.71895 -1.12979,-0.2739 -2.01995,-0.95864 -2.01995,-1.98572 0,-0.44509 1.09557,-4.10843 1.40371,-5.0328 0.1712,-0.47932 0.41083,-0.61627 0.61624,-0.61627 h 6.57345 c 0.65051,0 0.85592,0.0342 0.95864,0.37661 0.51355,1.74606 1.36947,4.65619 1.36947,5.64904 0,0.78745 -0.61627,1.33524 -2.12267,1.5749 -0.65051,0.10272 -1.16406,0.37661 -1.16406,0.68472 0,0.2739 0.41083,0.41084 0.99286,0.41084 0.85592,0 2.32811,-0.0342 3.69758,-0.0342 1.54064,0 3.86875,0.20542 4.82736,0.20542 0.61627,0 1.0271,-0.0685 1.0271,-0.34237 0,-0.30813 -0.34235,-0.65048 -1.16403,-0.82166 -1.40371,-0.23966 -2.53352,-0.68475 -3.52638,-3.49216 -1.12981,-3.28673 -3.97147,-11.53777 -6.19686,-18.62476 -0.10284,-0.2739 -0.13702,-0.58203 -0.23957,-0.78746 -0.0342,-0.0685 -0.1712,-0.0685 -0.20538,-0.0342 -0.13702,0.20542 -0.23956,0.9244 -0.65051,1.19827 -0.41082,0.2739 -0.82168,0.37661 -1.26674,0.51356 -0.0684,0.75321 -0.23957,1.36948 -0.47931,2.01996 -2.36235,6.47075 -3.90299,10.4422 -6.53924,16.43364 -0.7532,1.74606 -1.81454,2.32809 -2.97859,2.67046 -0.78744,0.2739 -1.16403,0.51353 -1.16403,0.82167 0,0.27389 0.41083,0.44508 1.0271,0.44508 z m 8.14833,-10.03136 c -0.44507,0 -0.71896,0 -0.71896,-0.23966 0,-0.0685 0.0342,-0.17118 0.0684,-0.27387 l 3.18404,-8.55919 c 0.13702,-0.37661 0.20538,-0.58203 0.27375,-0.58203 0.10254,0 0.1712,0.20542 0.30813,0.61627 l 2.73894,8.52495 c 0.0342,0.13692 0.0684,0.27387 0.0684,0.34234 0,0.17119 -0.13702,0.17119 -0.51355,0.17119 z m 38.37936,10.4422 c 0.37662,0 0.7532,-0.13694 0.7532,-0.85592 0,-0.44506 -0.1712,-1.71183 -0.1712,-3.38942 0,-5.51212 0.0342,-15.54348 0.0684,-16.15975 0.0684,-1.16403 0.44506,-1.57487 2.19114,-1.88301 0.78745,-0.17118 1.16403,-0.41084 1.16403,-0.71898 0,-0.27389 -0.44507,-0.37658 -1.02709,-0.37658 -2.12267,0 -2.32808,0.10269 -4.00569,0.10269 h -1.98573 c -0.61627,0 -1.43795,0.10271 -1.43795,0.3766 0,0.30814 0.7532,0.58203 1.57488,0.71898 0.75323,0.13695 1.98574,0.99288 2.01998,1.91725 0,6.36805 -0.0342,12.87301 -0.0684,14.20823 -0.0342,0.51356 -0.1712,0.71898 -0.34234,0.71898 -0.30814,0 -0.71899,-0.47932 -0.89017,-0.68474 -0.68474,-0.8559 -13.0442,-15.81735 -13.72892,-16.77598 -0.23957,-0.30814 -0.41086,-0.58201 -0.82168,-0.58201 -2.53353,0 -2.67046,-0.10271 -5.37516,-0.17118 -0.23956,0 -0.82168,0.0684 -0.82168,0.47929 0,0.41084 0.89013,0.78745 1.09558,0.85593 2.05419,0.6505 3.45789,1.43793 3.45789,3.93721 0,5.75177 -0.34237,11.33237 -0.6505,13.9686 -0.13702,1.43793 -0.68472,2.49928 -2.01995,2.84165 -0.78744,0.23966 -1.12982,0.37658 -1.12982,0.68471 0,0.2739 0.41083,0.37661 0.99286,0.37661 1.88301,0 1.91725,-0.17119 3.18403,-0.17119 1.30099,0 1.40368,0.17119 3.28672,0.17119 0.582,0 1.0271,-0.10271 1.0271,-0.37661 0,-0.30813 -0.37662,-0.47929 -1.16406,-0.61624 -1.74608,-0.34237 -2.22539,-1.54067 -2.22539,-2.80741 0,-4.31385 0.10284,-9.65476 0.1712,-13.11267 0,-0.2739 0.0684,-0.71898 0.30811,-0.71898 0.1712,0 0.37661,0.13695 0.71899,0.54779 0.82168,0.99288 12.2225,14.44789 12.873,15.30382 1.09558,1.54064 2.56774,2.19114 2.97859,2.19114 z m 17.5292,-0.10271 c 7.73751,0 11.88015,-5.88872 11.88015,-12.18827 0,-6.88157 -5.44366,-11.46929 -11.57201,-11.46929 -7.77175,0 -11.9144,5.8887 -11.9144,12.18827 0,6.88158 5.44364,11.46929 11.60626,11.46929 z m 0.51355,-1.40369 c -5.82025,0 -8.7646,-5.34093 -8.7646,-11.81169 0,-5.44362 2.7047,-8.97001 7.97716,-8.97001 5.85449,0 8.79884,5.27246 8.79884,11.70895 0,5.47788 -2.67046,9.07275 -8.0114,9.07275 z m 0,0"
       style="fill:#ffffff;fill-opacity:1;fill-rule:nonzero;stroke:none;stroke-width:2.92153"
       aria-label="STUDIDICANTOGREGORIANO" />
    <g
       id="g1"
       style="fill:#ffffff;fill-opacity:1;stroke:none;stroke-opacity:1">
      <path
         id="path3"
         d="m -29.35768,428.50854 c 4.587716,0 7.600553,-2.67046 7.600553,-6.84734 0,-3.49215 -2.601992,-5.13551 -5.032798,-6.60767 -2.636229,-1.60915 -4.89585,-3.01284 -4.89585,-5.10128 0,-2.94436 1.91725,-4.00571 4.005686,-4.00571 1.985751,0 3.218259,1.36949 4.176897,3.83453 0.136949,0.2739 0.582031,0.47932 0.992849,0.47932 0.273897,0 0.513557,-0.10271 0.513557,-0.37661 0,-1.12982 -0.410845,-2.49928 -0.684742,-3.45792 -0.102685,-0.37661 -0.376581,-0.75319 -0.753189,-0.89014 -0.753216,-0.30813 -1.985725,-0.75321 -3.663342,-0.75321 -4.89585,0 -7.292419,2.80741 -7.292419,6.33378 0,3.38944 3.047074,4.96432 5.786014,6.67618 2.465044,1.54064 3.937212,2.46504 3.937212,5.30667 0,2.60199 -1.780302,4.2796 -4.211109,4.2796 -1.985724,0 -4.039922,-1.40372 -4.930087,-4.99856 -0.102711,-0.27389 -0.34237,-0.3766 -0.58203,-0.3766 -0.376608,0 -0.684742,0.17118 -0.684742,0.47931 0.06847,0.95862 0.102712,2.70471 0.342371,3.66332 0.06847,0.2739 0.273897,0.51356 0.445082,0.68474 1.301009,1.09559 2.9786,1.67759 4.930087,1.67759 z m 11.417962,-0.37661 c 1.883013,0 2.465043,-0.20539 4.039922,-0.20539 3.492156,0 6.4364926,0.20539 10.9214975,0.20539 0.2738967,0 0.3423709,-0.27387 0.4793192,-0.582 0.410845,-0.95864 1.0955867,-3.42368 1.0955867,-4.07419 0,-0.27389 -0.1369484,-0.44508 -0.376608,-0.47929 -0.2738966,-0.0343 -0.445082,0.17116 -0.5820304,0.44506 -0.7189522,1.40372 -1.2325085,2.22538 -1.9857243,2.7047 -0.7189788,0.44508 -1.6775906,0.58203 -3.1840223,0.58203 h -2.5677544 c -1.57488,0 -2.328096,-0.54779 -2.328096,-2.3281 v -6.71038 c 0,-0.78746 0.410845,-0.89017 1.198298,-0.89017 h 3.2524968 c 0.9243748,0 1.3352198,0.47932 1.6091165,1.54064 0.1711589,0.75322 0.445082,1.12983 0.7874529,1.12983 0.3081072,0 0.3423443,-0.2739 0.3423443,-0.58203 0,-0.2739 -0.068474,-1.98573 -0.068474,-2.70471 0,-0.54779 0.1027377,-2.12267 0.1027377,-2.4308 0,-0.34237 -0.3081338,-0.5478 -0.4793192,-0.5478 -0.2738967,0 -0.4793192,0.23966 -0.6162675,0.75322 -0.3423708,1.30101 -0.6505046,1.71183 -2.0199614,1.71183 h -3.4579191 c -0.342371,0 -0.650505,-0.34235 -0.650505,-0.75319 v -7.42937 c 0,-0.6505 0.890165,-1.09559 1.266773,-1.09559 h 4.5877159 c 0.855927,0 1.6775906,0.20543 2.3280951,0.92441 0.3081338,0.34237 0.5135563,1.16403 0.7874529,1.91725 0.068474,0.23966 0.1369219,0.34237 0.376608,0.34237 0.205396,0 0.4792927,-0.10271 0.4792927,-0.51356 0,-0.92437 -0.2738967,-2.25962 -0.5135298,-3.59484 -0.034264,-0.23966 -0.3766079,-0.30813 -0.6505046,-0.30813 -0.1711854,0 -1.3694833,0.0342 -2.9443627,0.0685 -1.4721681,0 -3.2524964,0.0342 -4.7931385,0.0342 -2.430807,0 -3.56063,-0.10271 -6.196859,-0.10271 -0.582004,0 -0.992849,0.10271 -0.992849,0.3766 0,0.30811 0.342371,0.54777 1.164034,0.71896 1.746091,0.30813 2.328095,0.85592 2.328095,2.53351 v 15.71467 c 0,1.67759 -0.8559,2.29385 -2.601965,2.63622 -0.787453,0.13695 -1.129824,0.30814 -1.129824,0.61627 0,0.27387 0.410845,0.37658 0.992876,0.37658 z m 29.109749,9.44936 c 1.574905,0 4.485004,-1.67762 4.485004,-4.07419 0,-1.64335 -1.300982,-2.7047 -2.293858,-3.11552 -0.34237,-0.13695 -0.445055,-0.41084 -0.205396,-0.75321 l 0.753216,-1.16407 c 2.225384,-0.0342 4.724665,-0.34237 6.368018,-0.99284 0.718979,-0.23966 0.753216,-0.2739 1.129797,-0.95864 0.410845,-0.99288 0.924402,-2.80742 0.924402,-3.38945 0,-0.71895 -0.855927,-0.68471 -1.198272,-0.10268 -1.506431,2.77315 -3.594867,4.38229 -6.950075,4.38229 -5.7859873,0 -9.586277,-5.88872 -9.586277,-11.57203 0,-5.13548 3.903001,-9.96288 9.346618,-9.96288 1.917276,0 3.629104,0.44508 4.793138,1.1983 1.232535,0.85592 1.711855,2.08843 2.156937,3.86873 0.205396,0.82169 1.232508,0.51356 1.198271,-0.0342 -0.06847,-1.81454 -0.205396,-2.9101 -0.308134,-4.00569 -0.06847,-0.61627 -0.308133,-1.02711 -1.027086,-1.19827 -2.362332,-0.58203 -3.526393,-0.89017 -6.196859,-0.89017 -7.1554707,0 -13.4892516,5.10128 -13.4892516,11.88014 0,6.77886 5.546328,11.36658 11.7431876,11.74319 l -2.259648,3.01283 c -0.102711,0.13695 -0.205396,0.2739 -0.205396,0.51356 0,0.20542 0.308134,0.61627 0.924375,0.61627 0.308134,0 0.479319,-0.10271 0.890164,-0.10271 0.958638,0 1.643353,0.54776 1.643353,1.88301 0,0.75322 -0.445055,1.33522 -1.472168,1.33522 -1.711827,0 -1.91725,-0.44506 -2.191146,-0.44506 -0.2738972,0 -0.5477938,0.37659 -0.5477938,1.19828 0,0.68474 0.5477938,1.12982 1.5749058,1.12982 z M 33.03017,403.78963 c 0.102738,0 0.342371,-0.44508 0.753216,-0.78742 0.308133,-0.23966 0.82169,-0.44509 1.16406,-0.44509 1.095561,0 4.005686,0.30814 4.587717,0.30814 0.136922,0 0.718978,-0.13695 0.992849,-0.51356 0.479319,-0.54779 1.095586,-1.36948 1.64338,-1.95149 0.239633,-0.23966 0.513529,-0.47932 0.513529,-0.61626 0,-0.34237 -0.342344,-0.58203 -0.684715,-0.58203 -0.136948,0 -0.376608,0.3766 -0.684741,0.68474 -0.342371,0.34237 -0.855928,0.6505 -1.369457,0.6505 -0.616268,0 -1.472195,-0.0685 -2.225411,-0.13695 -0.684715,-0.0685 -1.609116,-0.10271 -2.396543,-0.10271 -0.855927,0 -2.841651,2.60199 -2.841651,2.94437 0,0.23963 0.308107,0.54776 0.547767,0.54776 z m -7.805949,24.3423 c 1.129797,0 2.636202,-0.20539 4.176871,-0.20539 1.300983,0 2.533518,0.0684 3.184022,0.0684 0.582004,0 0.992849,-0.10269 0.992849,-0.37659 0,-0.30813 -0.342371,-0.47932 -1.129797,-0.71897 -1.129824,-0.2739 -2.019962,-0.95864 -2.019962,-1.98573 0,-0.44508 1.095561,-4.10842 1.403694,-5.0328 0.171159,-0.47932 0.410845,-0.61626 0.616268,-0.61626 h 6.57344 c 0.650505,0 0.855928,0.0342 0.958639,0.3766 0.51353,1.74607 1.369457,4.65619 1.369457,5.64907 0,0.78743 -0.616268,1.33522 -2.122673,1.57488 -0.650505,0.10271 -1.164061,0.37661 -1.164061,0.68474 0,0.2739 0.410845,0.41082 0.992876,0.41082 0.855927,0 2.328095,-0.0342 3.697578,-0.0342 1.540642,0 3.868737,0.20539 4.827349,0.20539 0.616268,0 1.027113,-0.0685 1.027113,-0.34234 0,-0.30813 -0.342371,-0.65051 -1.164035,-0.82169 -1.40372,-0.23966 -2.533517,-0.68474 -3.526393,-3.49216 -1.129823,-3.2867 -3.971448,-11.53776 -6.196859,-18.62476 -0.102711,-0.27389 -0.136922,-0.58203 -0.239633,-0.78745 -0.03424,-0.0685 -0.171185,-0.0685 -0.205422,-0.0342 -0.136922,0.20542 -0.23966,0.9244 -0.650505,1.1983 -0.410845,0.2739 -0.821663,0.37661 -1.266746,0.51353 -0.06847,0.75322 -0.239659,1.36948 -0.479319,2.01999 -2.362332,6.47073 -3.902974,10.44218 -6.539203,16.43361 -0.753216,1.74607 -1.814566,2.3281 -2.9786,2.67047 -0.787453,0.27389 -1.164061,0.51355 -1.164061,0.82169 0,0.27387 0.410845,0.44505 1.027113,0.44505 z m 8.14832,-10.03136 c -0.445082,0 -0.718953,0 -0.718953,-0.23963 0,-0.0685 0.03424,-0.17118 0.06847,-0.2739 l 3.184022,-8.55919 c 0.136922,-0.3766 0.205396,-0.58203 0.27387,-0.58203 0.102738,0 0.171185,0.20543 0.308134,0.61627 l 2.73894,8.52495 c 0.03424,0.13695 0.06847,0.2739 0.06847,0.34238 0,0.17118 -0.136922,0.17118 -0.51353,0.17118 z m 27.192525,10.3395 c 7.737501,0 11.880135,-5.8887 11.880135,-12.18827 0,-6.88158 -5.443643,-11.46929 -11.572001,-11.46929 -7.771739,0 -11.914399,5.8887 -11.914399,12.18827 0,6.88157 5.443643,11.46929 11.606265,11.46929 z m 0.51353,-1.4037 c -5.820225,0 -8.764588,-5.34093 -8.764588,-11.81166 0,-5.44364 2.704703,-8.97003 7.977161,-8.97003 5.854462,0 8.798825,5.27245 8.798825,11.70897 0,5.47786 -2.670466,9.07272 -8.011398,9.07272 z m 21.620506,1.09556 c 2.019961,0 2.73894,-0.17118 4.553479,-0.17118 1.369457,0 2.670466,0.13695 3.286734,0.13695 2.670439,0 4.485004,-0.44506 5.957173,-1.19827 1.437957,-0.71898 3.629102,-1.88302 3.629102,-5.71754 0,-4.03993 -2.875887,-5.06704 -4.964322,-5.75176 -0.205423,-0.0685 -0.171186,-0.27389 0,-0.34237 1.164034,-0.47932 1.609116,-0.78745 2.328095,-1.50643 0.547793,-0.54776 1.198271,-1.7803 1.198271,-3.35518 0,-3.80029 -2.636228,-5.20398 -8.114082,-5.20398 -2.019988,0 -2.533518,0.17118 -3.868764,0.17118 -1.437931,0 -1.746065,-0.0342 -3.629078,-0.0342 -0.582031,0 -0.992876,0.10271 -0.992876,0.3766 0,0.30811 0.342371,0.65048 1.129824,0.71896 1.711828,0.13694 2.362332,0.85592 2.362332,2.53351 v 15.71467 c 0,1.67759 -0.992875,2.29385 -2.73894,2.63622 -0.787453,0.13695 -1.164061,0.30814 -1.164061,0.61627 0,0.27387 0.445083,0.37658 1.027113,0.37658 z m 7.189708,-13.11264 c -0.547793,0 -1.609143,-0.0685 -1.609143,-1.30101 v -6.09412 c 0,-1.02711 0.376608,-1.57491 2.293885,-1.57491 4.313819,0 5.101246,2.63623 5.101246,4.62196 0,2.01998 -1.061324,3.04707 -1.540643,3.32097 -1.437931,0.78745 -2.978599,1.02711 -4.245345,1.02711 z m 1.164034,11.64048 c -1.780302,0 -2.773177,-0.51356 -2.773177,-2.46505 v -6.95005 c 0,-0.44508 0.479319,-1.26677 1.985751,-1.26677 2.122673,0 3.355181,0.51356 4.005686,0.89017 0.924401,0.51355 2.567754,1.81453 2.567754,4.485 0,3.01284 -2.704703,5.3067 -5.786014,5.3067 z m 32.721766,2.01996 c 0.8559,0 2.80741,-0.20543 2.80741,-1.19827 0,-0.2739 -0.17119,-0.41085 -0.51356,-0.41085 -1.64338,0 -2.80741,-0.0685 -4.00571,-1.12982 -3.28671,-2.97858 -4.93009,-5.58057 -7.087,-8.8673 -0.13692,-0.20542 -0.17115,-0.37661 0,-0.47932 1.91725,-0.95864 4.10843,-2.7047 4.10843,-5.85449 0,-3.80026 -2.77318,-5.71751 -7.84021,-5.71751 -2.0542,0 -2.70471,0.17118 -4.03995,0.17118 -1.43793,0 -1.54065,-0.0342 -3.42366,-0.0342 -0.58203,0 -0.99287,0.10271 -0.99287,0.3766 0,0.30811 0.34237,0.65048 1.12982,0.71896 2.01996,0.20542 2.15691,0.68474 2.15691,3.32097 v 14.89297 c 0,1.71183 -0.82169,2.32809 -2.56776,2.67046 -0.78745,0.13695 -1.16406,0.30814 -1.16406,0.61627 0,0.27387 0.44509,0.37658 1.02712,0.37658 1.88301,0 2.77317,-0.23963 4.55347,-0.23963 1.30101,0 1.54065,0.23963 3.42369,0.23963 0.582,0 0.99285,-0.10271 0.99285,-0.37658 0,-0.30813 -0.34238,-0.47932 -1.1298,-0.61627 -1.74609,-0.34237 -2.36233,-1.50643 -2.36233,-3.01283 v -6.1626 c 0,-0.41084 0.13692,-0.71898 0.54776,-0.68474 0.61627,0.0685 1.74609,0.23966 2.73894,0.71898 0.68474,0.34234 1.12983,0.75319 1.50643,1.36946 2.39657,3.90297 3.59485,5.34093 5.3067,7.42936 1.23251,1.50641 2.84162,1.88302 4.82738,1.88302 z m -13.07844,-12.22251 c -1.12982,0 -1.84877,-0.0685 -1.84877,-1.19827 0,-2.80741 0.0342,-4.7589 0.0685,-5.9572 0.10271,-2.39657 0.37661,-3.2525 1.88301,-3.2525 4.41653,0 5.13551,2.43081 5.13551,5.23822 0,2.70471 -2.01996,5.16975 -5.23822,5.16975 z m 18.08554,11.67471 c 1.12983,0 2.63623,-0.20539 4.17687,-0.20539 1.30101,0 2.53352,0.0684 3.18403,0.0684 0.58203,0 0.99287,-0.10269 0.99287,-0.37659 0,-0.30813 -0.34237,-0.47932 -1.12982,-0.71897 -1.1298,-0.2739 -2.01996,-0.95864 -2.01996,-1.98573 0,-0.44508 1.09558,-4.10842 1.40369,-5.0328 0.17119,-0.47932 0.41085,-0.61626 0.61627,-0.61626 h 6.57346 c 0.65048,0 0.85591,0.0342 0.95862,0.3766 0.51355,1.74607 1.36948,4.65619 1.36948,5.64907 0,0.78743 -0.61627,1.33522 -2.1227,1.57488 -0.65048,0.10271 -1.16403,0.37661 -1.16403,0.68474 0,0.2739 0.41084,0.41082 0.99287,0.41082 0.8559,0 2.3281,-0.0342 3.69755,-0.0342 1.54065,0 3.86874,0.20539 4.82738,0.20539 0.61627,0 1.02711,-0.0685 1.02711,-0.34234 0,-0.30813 -0.34237,-0.65051 -1.16406,-0.82169 -1.40369,-0.23966 -2.53352,-0.68474 -3.52637,-3.49216 -1.12982,-3.2867 -3.97147,-11.53776 -6.19685,-18.62476 -0.10272,-0.27389 -0.13693,-0.58203 -0.23966,-0.78745 -0.0342,-0.0685 -0.17116,-0.0685 -0.2054,-0.0342 -0.13695,0.20542 -0.23966,0.9244 -0.6505,1.1983 -0.41085,0.2739 -0.82169,0.37661 -1.26678,0.51353 -0.0685,0.75322 -0.23963,1.36948 -0.47929,2.01999 -2.36236,6.47073 -3.903,10.44218 -6.53923,16.43361 -0.75321,1.74607 -1.81454,2.3281 -2.9786,2.67047 -0.78743,0.27389 -1.16403,0.51355 -1.16403,0.82169 0,0.27387 0.41084,0.44505 1.02711,0.44505 z m 8.14835,-10.03136 c -0.44508,0 -0.71898,0 -0.71898,-0.23963 0,-0.0685 0.0342,-0.17118 0.0685,-0.2739 l 3.18403,-8.55919 c 0.13692,-0.3766 0.20542,-0.58203 0.27389,-0.58203 0.10271,0 0.17116,0.20543 0.30814,0.61627 l 2.73894,8.52495 c 0.0342,0.13695 0.0685,0.2739 0.0685,0.34238 0,0.17118 -0.13695,0.17118 -0.51355,0.17118 z m 22.18539,10.40797 c 4.58772,0 7.60055,-2.67046 7.60055,-6.84734 0,-3.49215 -2.60199,-5.13551 -5.0328,-6.60767 -2.63623,-1.60915 -4.89585,-3.01284 -4.89585,-5.10128 0,-2.94436 1.91726,-4.00571 4.0057,-4.00571 1.98572,0 3.21825,1.36949 4.17687,3.83453 0.13694,0.2739 0.58203,0.47932 0.99287,0.47932 0.27389,0 0.51355,-0.10271 0.51355,-0.37661 0,-1.12982 -0.41084,-2.49928 -0.68473,-3.45792 -0.10273,-0.37661 -0.37661,-0.75319 -0.75321,-0.89014 -0.75321,-0.30813 -1.98573,-0.75321 -3.66333,-0.75321 -4.89585,0 -7.29242,2.80741 -7.29242,6.33378 0,3.38944 3.04707,4.96432 5.78601,6.67618 2.46504,1.54064 3.93722,2.46504 3.93722,5.30667 0,2.60199 -1.78031,4.2796 -4.21112,4.2796 -1.98573,0 -4.03993,-1.40372 -4.93009,-4.99856 -0.10272,-0.27389 -0.34236,-0.3766 -0.58202,-0.3766 -0.3766,0 -0.68473,0.17118 -0.68473,0.47931 0.0685,0.95862 0.10272,2.70471 0.34236,3.66332 0.0685,0.2739 0.2739,0.51356 0.44508,0.68474 1.301,1.09559 2.97859,1.67759 4.93009,1.67759 z m 10.79312,-0.37661 c 1.88302,0 2.73894,-0.17118 4.48501,-0.17118 1.57489,0 2.19115,0.17118 4.07417,0.17118 0.58202,0 0.99287,-0.10271 0.99287,-0.37658 0,-0.30813 -0.34237,-0.47932 -1.12982,-0.61627 -1.74607,-0.34237 -2.77317,-0.95863 -2.77317,-2.60199 v -15.78313 c 0,-1.64336 0.75321,-2.19115 2.49928,-2.49928 0.78745,-0.17119 1.12981,-0.41085 1.12981,-0.71896 0,-0.27389 -0.41084,-0.3766 -0.99286,-0.3766 -1.88302,0 -2.3281,0.10271 -3.80028,0.10271 -1.60912,0 -2.22538,-0.10271 -4.10841,-0.10271 -0.58202,0 -0.99286,0.10271 -0.99286,0.3766 0,0.30811 0.34237,0.54777 1.12981,0.71896 1.74608,0.30813 2.36234,0.85592 2.36234,2.49928 v 15.78313 c 0,1.64336 -0.99287,2.25962 -2.73894,2.60199 -0.78744,0.13695 -1.16405,0.30814 -1.16405,0.61627 0,0.27387 0.44508,0.37658 1.0271,0.37658 z m 12.1198,0 c 0,0 2.97859,-0.17118 4.72466,-0.17118 3.49215,0 7.29243,0.17118 11.98286,0.17118 0.34236,0 0.44507,-0.27387 0.47931,-0.582 0.13693,-1.47219 0.44508,-2.63623 0.92439,-4.45079 0,-0.0342 0.0685,-0.10269 0.0685,-0.17119 0,-0.27387 -0.17117,-0.61624 -0.44508,-0.61624 -0.30813,0 -0.65049,0.75319 -0.7532,1.02709 -0.61627,1.26677 -0.9244,1.67761 -1.81455,2.49928 -0.44508,0.41084 -1.47218,0.89016 -2.73894,0.89016 h -4.31383 c -2.3281,0 -2.7047,-0.68474 -2.7047,-2.12267 v -16.43364 c 0,-1.36946 1.36947,-1.60912 3.11554,-1.91725 0.78745,-0.17119 1.16405,-0.41085 1.16405,-0.71896 0,-0.27389 -0.44508,-0.3766 -1.0271,-0.3766 -1.88302,0 -2.67046,0.10271 -4.3823,0.10271 -1.54065,0 -2.05421,-0.10271 -3.93722,-0.10271 -0.58203,0 -0.99287,0.10271 -0.99287,0.3766 0,0.30811 0.34237,0.54777 1.12981,0.71896 1.74607,0.30813 2.15692,0.47932 2.15692,2.15691 v 16.19398 c 0,1.54064 -1.02711,2.15691 -2.84165,2.53351 -0.13694,0.0342 -0.75321,0.17119 -0.75321,0.58204 0,0.23963 0.34237,0.41081 0.95863,0.41081 z m 20.77312,0 c 1.88302,0 2.46505,-0.20539 4.03994,-0.20539 3.49214,0 6.4365,0.20539 10.92151,0.20539 0.2739,0 0.34237,-0.27387 0.47932,-0.582 0.41083,-0.95864 1.09557,-3.42368 1.09557,-4.07419 0,-0.27389 -0.13693,-0.44508 -0.3766,-0.47929 -0.2739,-0.0343 -0.44508,0.17116 -0.58203,0.44506 -0.71897,1.40372 -1.23252,2.22538 -1.98573,2.7047 -0.71897,0.44508 -1.6776,0.58203 -3.18401,0.58203 h -2.56776 c -1.57489,0 -2.32809,-0.54779 -2.32809,-2.3281 v -6.71038 c 0,-0.78746 0.41084,-0.89017 1.19828,-0.89017 h 3.25249 c 0.92439,0 1.33523,0.47932 1.60913,1.54064 0.17117,0.75322 0.44507,1.12983 0.78744,1.12983 0.30813,0 0.34237,-0.2739 0.34237,-0.58203 0,-0.2739 -0.0685,-1.98573 -0.0685,-2.70471 0,-0.54779 0.10272,-2.12267 0.10272,-2.4308 0,-0.34237 -0.30813,-0.5478 -0.47932,-0.5478 -0.27389,0 -0.47931,0.23966 -0.61626,0.75322 -0.34236,1.30101 -0.6505,1.71183 -2.01996,1.71183 h -3.45791 c -0.34237,0 -0.6505,-0.34235 -0.6505,-0.75319 v -7.42937 c 0,-0.6505 0.89015,-1.09559 1.26676,-1.09559 h 4.58772 c 0.85592,0 1.6776,0.20543 2.3281,0.92441 0.30813,0.34237 0.51355,1.16403 0.78744,1.91725 0.0685,0.23966 0.13693,0.34237 0.37661,0.34237 0.20541,0 0.47931,-0.10271 0.47931,-0.51356 0,-0.92437 -0.2739,-2.25962 -0.51355,-3.59484 -0.0342,-0.23966 -0.37661,-0.30813 -0.6505,-0.30813 -0.17117,0 -1.36947,0.0342 -2.94436,0.0685 -1.47218,0 -3.25249,0.0342 -4.79314,0.0342 -2.43081,0 -3.56062,-0.10271 -6.19685,-0.10271 -0.58202,0 -0.99286,0.10271 -0.99286,0.3766 0,0.30811 0.34237,0.54777 1.16405,0.71896 1.74607,0.30813 2.3281,0.85592 2.3281,2.53351 v 15.71467 c 0,1.67759 -0.85592,2.29385 -2.60199,2.63622 -0.78745,0.13695 -1.12982,0.30814 -1.12982,0.61627 0,0.27387 0.41085,0.37658 0.99287,0.37658 z m 19.07842,0 c 1.88302,0 2.73894,-0.17118 4.48501,-0.17118 1.57488,0 2.19115,0.17118 4.07416,0.17118 0.58203,0 0.99287,-0.10271 0.99287,-0.37658 0,-0.30813 -0.34237,-0.47932 -1.12981,-0.61627 -1.74607,-0.34237 -2.77318,-0.95863 -2.77318,-2.60199 v -15.78313 c 0,-1.64336 0.75321,-2.19115 2.49928,-2.49928 0.78745,-0.17119 1.12982,-0.41085 1.12982,-0.71896 0,-0.27389 -0.41085,-0.3766 -0.99287,-0.3766 -1.88302,0 -2.3281,0.10271 -3.80027,0.10271 -1.60913,0 -2.22539,-0.10271 -4.10841,-0.10271 -0.58202,0 -0.99286,0.10271 -0.99286,0.3766 0,0.30811 0.34236,0.54777 1.12981,0.71896 1.74607,0.30813 2.36233,0.85592 2.36233,2.49928 v 15.78313 c 0,1.64336 -0.99286,2.25962 -2.73894,2.60199 -0.78744,0.13695 -1.16405,0.30814 -1.16405,0.61627 0,0.27387 0.44508,0.37658 1.02711,0.37658 z m 32.4564,0.5478 c 0.85592,0 2.8074,-0.20543 2.8074,-1.19827 0,-0.2739 -0.1712,-0.41085 -0.51355,-0.41085 -1.64335,0 -2.8074,-0.0685 -4.00568,-1.12982 -3.28673,-2.97858 -4.93009,-5.58057 -7.087,-8.8673 -0.13693,-0.20542 -0.17118,-0.37661 0,-0.47932 1.91725,-0.95864 4.1084,-2.7047 4.1084,-5.85449 0,-3.80026 -2.77317,-5.71751 -7.84021,-5.71751 -2.0542,0 -2.70469,0.17118 -4.03993,0.17118 -1.43794,0 -1.54065,-0.0342 -3.42367,-0.0342 -0.58202,0 -0.99286,0.10271 -0.99286,0.3766 0,0.30811 0.34236,0.65048 1.12981,0.71896 2.01996,0.20542 2.15691,0.68474 2.15691,3.32097 v 14.89297 c 0,1.71183 -0.82168,2.32809 -2.56775,2.67046 -0.78745,0.13695 -1.16405,0.30814 -1.16405,0.61627 0,0.27387 0.44508,0.37658 1.0271,0.37658 1.88302,0 2.77317,-0.23963 4.55348,-0.23963 1.301,0 1.54066,0.23963 3.42367,0.23963 0.58203,0 0.99287,-0.10271 0.99287,-0.37658 0,-0.30813 -0.34237,-0.47932 -1.12981,-0.61627 -1.74607,-0.34237 -2.36233,-1.50643 -2.36233,-3.01283 v -6.1626 c 0,-0.41084 0.13693,-0.71898 0.54778,-0.68474 0.61626,0.0685 1.74607,0.23966 2.73894,0.71898 0.68474,0.34234 1.12981,0.75319 1.50642,1.36946 2.39656,3.90297 3.59485,5.34093 5.30669,7.42936 1.23252,1.50641 2.84164,1.88302 4.82737,1.88302 z m -13.07842,-12.22251 c -1.12981,0 -1.84878,-0.0685 -1.84878,-1.19827 0,-2.80741 0.0342,-4.7589 0.0685,-5.9572 0.10272,-2.39657 0.3766,-3.2525 1.88301,-3.2525 4.41654,0 5.13551,2.43081 5.13551,5.23822 0,2.70471 -2.01996,5.16975 -5.23821,5.16975 z m 18.07697,11.67471 c 1.12982,0 2.63625,-0.20539 4.17689,-0.20539 1.30099,0 2.53352,0.0684 3.18403,0.0684 0.582,0 0.99286,-0.10269 0.99286,-0.37659 0,-0.30813 -0.34238,-0.47932 -1.12982,-0.71897 -1.12982,-0.2739 -2.01998,-0.95864 -2.01998,-1.98573 0,-0.44508 1.09558,-4.10842 1.40371,-5.0328 0.1712,-0.47932 0.41086,-0.61626 0.61627,-0.61626 h 6.57345 c 0.65051,0 0.85592,0.0342 0.95864,0.3766 0.51355,1.74607 1.36947,4.65619 1.36947,5.64907 0,0.78743 -0.61627,1.33522 -2.1227,1.57488 -0.65048,0.10271 -1.16402,0.37661 -1.16402,0.68474 0,0.2739 0.41082,0.41082 0.99285,0.41082 0.85592,0 2.32808,-0.0342 3.69755,-0.0342 1.54067,0 3.86875,0.20539 4.82739,0.20539 0.61627,0 1.0271,-0.0685 1.0271,-0.34234 0,-0.30813 -0.34238,-0.65051 -1.16406,-0.82169 -1.4037,-0.23966 -2.53349,-0.68474 -3.52637,-3.49216 -1.12982,-3.2867 -3.97145,-11.53776 -6.19684,-18.62476 -0.10284,-0.27389 -0.13702,-0.58203 -0.23956,-0.78745 -0.0342,-0.0685 -0.17121,-0.0685 -0.20539,-0.0342 -0.13702,0.20542 -0.23956,0.9244 -0.65048,1.1983 -0.41085,0.2739 -0.82168,0.37661 -1.26677,0.51353 -0.0684,0.75322 -0.23957,1.36948 -0.47931,2.01999 -2.36232,6.47073 -3.90299,10.44218 -6.53921,16.43361 -0.7532,1.74607 -1.81454,2.3281 -2.97859,2.67047 -0.78744,0.27389 -1.16406,0.51355 -1.16406,0.82169 0,0.27387 0.41086,0.44505 1.0271,0.44505 z m 8.14836,-10.03136 c -0.44509,0 -0.71899,0 -0.71899,-0.23963 0,-0.0685 0.0342,-0.17118 0.0684,-0.2739 l 3.184,-8.55919 c 0.13702,-0.3766 0.20538,-0.58203 0.27375,-0.58203 0.10284,0 0.1712,0.20543 0.30813,0.61627 l 2.73894,8.52495 c 0.0342,0.13695 0.0684,0.2739 0.0684,0.34238 0,0.17118 -0.13702,0.17118 -0.51354,0.17118 z m 0,0"
         style="fill:#ffffff;fill-opacity:1;fill-rule:nonzero;stroke:none;stroke-width:2.92153;stroke-opacity:1"
         aria-label="SEÇÃOBRASILEIRA" />
    </g>
    <path
       id="path4"
       d="M -178.85832,392.01395 H 424.932"
       style="fill:none;stroke:#ffffff;stroke-width:1.16277;stroke-linecap:butt;stroke-linejoin:miter;stroke-miterlimit:10;stroke-dasharray:none;stroke-opacity:1;fill-opacity:1" />
  </g>
</svg>
