<?xml version="1.0" encoding="UTF-8" standalone="no"?>
<!-- Created with Inkscape (http://www.inkscape.org/) -->

<svg
   width="534.02539mm"
   height="561.78082mm"
   viewBox="0 0 543.84558 572.1114"
   version="1.1"
   id="svg1"
   inkscape:version="1.4.2 (f4327f4, 2025-05-13)"
   sodipodi:docname="logo-aiscgre-brasil-compacto-negativo.svg"
   xmlns:inkscape="http://www.inkscape.org/namespaces/inkscape"
   xmlns:sodipodi="http://sodipodi.sourceforge.net/DTD/sodipodi-0.dtd"
   xmlns="http://www.w3.org/2000/svg"
   xmlns:svg="http://www.w3.org/2000/svg">
  <sodipodi:namedview
     id="namedview1"
     pagecolor="#231c27"
     bordercolor="#000000"
     borderopacity="0.25"
     inkscape:showpageshadow="false"
     inkscape:pageopacity="0.0"
     inkscape:pagecheckerboard="0"
     inkscape:deskcolor="#d1d1d1"
     inkscape:document-units="mm"
     inkscape:zoom="0.25417602"
     inkscape:cx="767.18488"
     inkscape:cy="1056.3546"
     inkscape:window-width="1920"
     inkscape:window-height="1009"
     inkscape:window-x="-8"
     inkscape:window-y="-8"
     inkscape:window-maximized="1"
     inkscape:current-layer="layer1"
     showborder="false"
     borderlayer="false" />
  <defs
     id="defs1" />
  <g
     inkscape:label="Camada 1"
     inkscape:groupmode="layer"
     id="layer1"
     transform="translate(148.46202,216.69377)">
    <path
       style="fill:#e6505f;fill-opacity:1"
       d="m 129.71081,-117.80034 c -0.62306,-1.50421 -0.50703,-6.00948 0.24141,-9.3736 0.79011,-3.55136 0.51263,-8.00215 -0.7635,-12.24667 -1.61859,-5.38358 -1.68001,-5.6619 -1.44503,-6.5477 0.39171,-1.47665 0.733,-1.7297 3.78814,-2.80873 8.39851,-2.9662 14.79083,-10.9013 14.79083,-18.36055 0,-7.21776 -7.05433,-12.99517 -15.90102,-13.02273 -8.09995,-0.0252 -21.63278,5.03586 -32.00619,11.96987 -4.47487,2.99119 -6.06778,4.5127 -6.06778,5.7958 0,1.1348 -0.66293,1.63099 -2.17909,1.63099 -2.04604,0 -2.22557,-0.56771 -2.90062,-9.17223 -0.76173,-9.70933 -1.77212,-17.71397 -2.93893,-23.28333 -1.21312,-5.79038 -1.35735,-7.75488 -0.66731,-9.08928 1.10767,-2.14199 13.55857,-8.79466 21.20956,-11.33253 14.26056,-4.7303 25.29237,-3.95802 32.56927,2.28001 5.00029,4.28643 9.28584,13.09705 11.48402,23.60986 4.17203,19.95276 3.67491,38.92377 -1.30145,49.66528 -2.71121,5.85218 -8.25131,13.92051 -12.70917,18.50903 -3.27499,3.37097 -4.38562,3.75018 -5.20314,1.77651 z"
       id="path65" />
    <g
       id="g65"
       style="fill:#dcdcdc;fill-opacity:1"
       transform="translate(671.96008,-33.602151)">
      <path
         style="fill:#dcdcdc;fill-opacity:1"
         d="m -416.98187,108.61517 c -1.02883,-0.41449 -1.85237,-1.37827 -2.82839,-3.31006 -1.40612,-2.78306 -4.73448,-7.140246 -7.7829,-10.188656 -6.19871,-6.19872 -13.61566,-10.433366 -20.44201,-11.671226 -2.62711,-0.47638 -3.9648,-1.09588 -4.73223,-2.19154 -0.87546,-1.2499 -0.68131,-2.02156 0.6484,-2.57715 1.00587,-0.42028 2.32694,-0.44021 8.20209,-0.12375 4.48159,0.24139 10.62316,0.27321 17.05726,0.0884 14.50388,-0.4167 13.32238,-0.47731 14.36684,0.73695 l 0.89421,1.03958 -0.1592,13.348036 c -0.154,12.911286 -0.18306,13.371896 -0.88823,14.077066 -0.73935,0.73935 -3.29001,1.19373 -4.33584,0.77239 z"
         id="path64" />
      <path
         style="fill:#dcdcdc;fill-opacity:1"
         d="m -548.39158,280.28897 c -15.93748,-1.42227 -31.31433,-6.72985 -44.44999,-15.34268 l -2.82223,-1.85048 -7.9375,-0.19129 c -10.63565,-0.25632 -17.1168,-1.32236 -26.62586,-4.37951 -10.76992,-3.46251 -20.23098,-8.4333 -29.64219,-15.57383 -4.16759,-3.16206 -13.29137,-12.16934 -16.13157,-15.92559 l -2.00195,-2.64764 -0.36852,-87.48709 c -0.20269,-48.117896 -0.46792,-101.345152 -0.58941,-118.282782 l -0.22089,-30.795711 -0.9835,-0.9835 c -0.55938,-0.55938 -1.94808,-1.28638 -3.22022,-1.68581 -2.09488,-0.65778 -2.25782,-0.78614 -2.56965,-2.0244 -0.42877,-1.70262 0.0786,-2.05628 2.4496,-1.7076 0.97014,0.14266 7.75671,0.25938 15.08127,0.25938 h 13.31738 l 0.002,117.298617 0.002,117.298626 2.95018,3.52778 c 8.55819,10.23373 18.81266,18.78187 28.61915,23.85696 3.7,1.91484 9.83152,4.32188 10.46843,4.10958 0.16482,-0.0549 -0.36184,-0.89301 -1.17035,-1.86238 -10.10816,-12.11918 -17.07188,-26.17048 -20.77725,-41.92404 -2.21327,-9.4098 -3.01644,-22.71069 -1.96315,-32.51068 1.3799,-12.83885 4.59853,-23.84216 10.33776,-35.34092 l 2.32056,-4.64925 -2.10607,-2.40631 c -11.24564,-12.8488 -16.8212,-28.10934 -16.2171,-44.386862 0.50106,-13.50109 4.94852,-23.69921 14.47514,-33.19179 11.22168,-11.18158 25.65812,-16.59745 42.37929,-15.89868 15.1486,0.63305 28.91572,5.19461 40.5375,13.43159 l 2.94651,2.08835 -0.6134,2.14499 c -1.09444,3.82716 -2.13646,9.10308 -2.75842,13.96629 l -0.60866,4.75925 -1.83314,-0.0143 c -1.00823,-0.008 -1.92996,-0.11106 -2.04829,-0.22939 -0.11834,-0.11834 -0.43502,-1.26601 -0.70375,-2.55038 -1.78083,-8.51146 -11.18313,-16.45133 -22.79927,-19.25307 -4.63446,-1.1178 -11.02004,-1.57705 -15.24612,-1.0965 -15.349,1.74536 -27.96226,14.04253 -30.75139,29.98077 -1.37252,7.84313 -0.0958,16.580346 3.41443,23.366982 1.37309,2.65471 5.55729,8.20285 6.72398,8.91583 0.4964,0.30336 1.0826,-0.0979 3.35139,-2.2938 12.21149,-11.819486 29.44419,-20.800542 46.59952,-24.285992 4.02822,-0.81841 11.52405,-1.78048 13.87241,-1.78048 h 1.65159 l 0.19857,-2.02847 c 0.10922,-1.11566 0.29349,-3.45722 0.40949,-5.20347 1.02478,-15.42633 6.01839,-32.79978 13.05585,-45.42308 13.59093,-24.3784304 35.68142,-39.8650607 63.84008,-44.755371 5.35824,-0.93056 19.02769,-1.31188 24.55663,-0.68503 10.18081,1.15428 19.56831,3.96978 29.41836,8.8231503 11.04428,5.4418103 19.39953,11.5052103 29.06955,21.0957807 l 6.139,6.08855 -0.22526,3.68161 c -0.12389,2.02489 -0.32835,6.66811 -0.45434,10.31828 -0.126,3.65016 -0.38568,6.8351 -0.57707,7.07763 -0.48022,0.60853 -1.63023,0.5281 -3.01639,-0.21097 -0.92465,-0.493 -1.44361,-1.24157 -2.49656,-3.60119 -9.86805,-22.11371 -39.20178,-39.3795704 -65.12105,-38.33030038 -15.44911,0.62541 -29.42821,6.90309998 -41.69924,18.72615038 -7.14859,6.88761 -12.63192,14.30454 -17.15339,23.20222 -6.31845,12.43391 -10.12218,27.48857 -10.12218,40.06223 v 3.60453 l 1.4993,0.39081 c 12.43074,3.240196 23.7258,8.704106 34.10637,16.498722 2.245,1.68574 6.44407,5.3679 9.33125,8.18257 l 5.24943,5.11759 -0.20089,3.52778 c -0.61163,10.74051 -1.06268,14.75361 -1.73366,15.42459 -1.30414,1.30413 -2.60359,0.29591 -6.50046,-5.04361 -6.722,-9.21056 -16.79076,-17.78396 -26.84837,-22.86103 -4.65444,-2.34955 -13.21327,-5.37864 -13.73198,-4.85993 -0.3105,0.3105 0.43709,5.48281 1.67318,11.57607 3.4058,16.78881 9.79173,31.02048 18.74379,41.77236 8.81016,10.58145 21.14989,17.63692 35.20925,20.13154 5.69435,1.01037 17.87385,0.92013 22.93056,-0.1699 7.54462,-1.62632 15.11275,-4.62768 21.51556,-8.53261 3.78577,-2.30886 8.17723,-5.4738 10.52923,-7.58845 l 1.82187,-1.63802 V 118.57702 80.042048 l 0.86798,-0.81543 c 1.31606,-1.23637 5.23563,-1.57978 14.38966,-1.26076 l 7.67292,0.26741 v 7.89845 c 0,4.344146 0.086,7.898446 0.19104,7.898446 0.10507,0 1.73226,-0.53472 3.61597,-1.18827 14.4078,-4.998726 27.33832,-4.02812 37.71193,2.83079 2.68426,1.7748 7.17336,6.063296 9.35513,8.937096 3.56582,4.69683 6.66844,12.44107 6.13135,15.30403 -0.29487,1.57178 -0.99791,2.10913 -3.73598,2.85547 -1.26118,0.34377 -3.64881,1.20894 -5.30584,1.92259 -11.49805,4.95203 -20.23693,13.25228 -23.40606,22.23123 -0.94438,2.67567 -1.06532,3.46747 -1.05436,6.90291 0.0103,3.23513 0.16825,4.34995 0.94957,6.70278 0.51546,1.55222 1.30139,3.41871 1.7465,4.14777 l 0.80929,1.32554 3.19806,-2.78763 c 6.73526,-5.8709 11.6185,-13.41429 12.64245,-19.52943 0.1217,-0.72684 0.59786,-1.75872 1.05812,-2.29306 l 0.83684,-0.97153 h 5.52799 5.528 l 0.85138,0.98981 c 2.30945,2.68493 -0.30637,9.72608 -6.96496,18.74805 -2.911,3.9442 -8.94743,10.2253 -12.05794,12.54667 l -2.05901,1.53664 1.52984,0.80639 c 0.84142,0.44352 2.79985,1.23064 4.35207,1.74918 3.81142,1.27323 10.14707,1.36575 14.47251,0.21134 9.52322,-2.54164 19.10337,-9.25749 24.87799,-17.43991 3.51972,-4.98732 4.90185,-8.55477 5.07037,-13.08735 0.18766,-5.04696 1.74826,-7.26296 4.7758,-6.78143 0.6878,0.10939 3.82175,0.35668 6.96434,0.54951 6.55317,0.40212 7.51538,0.64705 7.51538,1.91302 0,1.55097 -1.37335,4.61268 -3.62565,8.08296 -1.20735,1.86026 -3.20018,5.11391 -4.42851,7.23033 -5.06228,8.72237 -13.02971,17.65082 -19.6651,22.03708 -8.96913,5.92896 -18.36491,8.82118 -28.72518,8.8422 -7.30927,0.0148 -12.68672,-1.17733 -18.52084,-4.106 -7.35209,-3.69069 -14.2578,-11.05561 -18.14311,-19.34961 -2.40905,-5.14261 -3.02717,-8.11455 -3.00009,-14.42471 0.0211,-4.91812 0.12077,-5.78624 0.99089,-8.63178 1.21498,-3.97332 3.28821,-8.24079 5.61425,-11.55622 2.3204,-3.30737 7.68898,-8.8373 11.30902,-11.64888 4.4041,-3.42054 4.57305,-3.64464 4.35556,-5.77715 -0.43924,-4.30673 -3.30709,-7.26694 -8.83942,-9.12408 -9.42821,-3.16494 -21.08978,0.58025 -22.95649,7.37262 -0.37271,1.35618 -0.54653,5.80249 -0.71142,18.19882 -0.12001,9.02229 -0.3749,23.89179 -0.5664,33.04333 -0.24116,11.52424 -0.23465,17.14586 0.0212,18.28746 0.49944,2.22862 1.59688,3.74012 4.38579,6.04054 2.73366,2.25485 3.70499,3.88901 3.10036,5.21603 -0.23895,0.52443 -0.85947,0.9978 -1.56241,1.19189 -0.64419,0.17787 -6.60642,0.2623 -13.32227,0.18865 -10.03892,-0.11009 -12.29663,-0.22531 -12.96236,-0.66151 l -0.80614,-0.52821 v -9.51686 c 0,-5.23428 -0.0847,-9.51687 -0.18822,-9.51687 -0.10353,0 -1.73072,0.93149 -3.61598,2.06999 -6.96237,4.20453 -15.59885,8.06695 -22.47774,10.05252 -9.46154,2.73105 -17.49642,3.49814 -28.06351,2.67923 -23.85055,-1.84835 -43.4935,-10.63443 -58.28454,-26.07008 -6.6132,-6.90141 -11.20173,-13.58575 -15.63393,-22.77472 -5.27996,-10.94654 -8.37196,-21.66294 -9.95427,-34.49992 l -0.59986,-4.866566 -1.41111,0.21189 c -3.18534,0.478296 -10.42055,2.443776 -13.79741,3.748116 -6.96329,2.68963 -13.9432,6.76042 -20.10285,11.7243 -2.68928,2.16721 -11.43168,10.94019 -11.43168,11.47166 0,0.13478 2.57969,2.3224 5.73264,4.86138 9.19461,7.40414 13.41131,11.1323 20.66898,18.2743 7.66802,7.54581 11.33212,11.78281 15.29856,17.69053 5.04981,7.52133 8.95067,16.99267 10.51713,25.5357 1.06131,5.78816 1.30872,14.21868 0.56498,19.252 -2.63896,17.85934 -14.34168,33.74198 -31.69305,43.01302 l -2.74558,1.46699 3.83437,2.19471 c 14.34698,8.21191 31.45072,10.86363 47.97377,7.43774 17.84296,-3.69956 35.26531,-15.79773 45.70338,-31.73668 2.35894,-3.60209 2.84199,-4.6074 5.3396,-11.1125 0.89396,-2.32833 1.94843,-4.51114 2.34326,-4.85069 0.63861,-0.54919 1.61217,-0.61736 8.81589,-0.61736 4.84337,0 8.36891,0.14498 8.77207,0.36075 0.6611,0.35381 0.66013,0.39622 -0.0505,2.20486 -2.51165,6.39275 -9.34509,16.0376 -19.07679,26.92533 -16.05075,17.95742 -36.52224,28.92384 -59.90987,32.09323 -4.70561,0.63768 -15.69128,0.90676 -20.28472,0.49684 z m -32.35416,-34.34394 c 2.73665,-0.99731 7.26068,-3.52883 10.02106,-5.6075 7.78098,-5.85938 12.47365,-14.82876 13.18851,-25.20798 0.67479,-9.79753 -2.41617,-19.57228 -8.95496,-28.31882 -3.20977,-4.2935 -10.09066,-12.12003 -15.92874,-18.1178 -6.08425,-6.25066 -20.70886,-18.84479 -21.23359,-18.28552 -0.39806,0.42425 -2.78004,8.16034 -3.65107,11.85779 -1.7633,7.48506 -2.1176,11.03113 -2.1176,21.19414 0,9.94139 0.23158,12.51494 1.77771,19.75556 3.30818,15.49238 10.19997,29.09879 20.63225,40.73407 3.11271,3.47166 2.63494,3.31948 6.26643,1.99606 z"
         id="path63" />
      <path
         style="fill:#dcdcdc;fill-opacity:1"
         d="m -725.76827,281.11683 c -0.48187,-0.77967 -0.57551,-2.83374 -0.16515,-3.62235 0.36936,-0.7098 0.87201,-0.93168 2.84042,-1.25381 1.81042,-0.29628 2.62471,-0.62446 3.3507,-1.35044 l 0.95907,-0.95906 v -64.28575 -64.28575 l -21.1847,-0.0909 -21.1847,-0.0909 -7.735,11.73259 c -27.64279,41.92905 -28.34956,43.0667 -27.89089,44.89417 0.11989,0.4777 0.70051,1.4181 1.29027,2.0898 1.21845,1.38774 1.49655,2.91617 0.63277,3.47777 -0.41214,0.26796 -1.90045,0.24082 -5.19069,-0.0947 -3.20526,-0.3268 -6.98163,-0.40411 -12.37554,-0.25335 -4.55394,0.12729 -7.84486,0.084 -7.96151,-0.10475 -0.10936,-0.17695 0.02,-0.84466 0.28751,-1.48379 0.792,-1.89239 117.4388,-176.701852 118.27526,-177.249922 1.23447,-0.80885 2.70788,-1.08975 3.96421,-0.75576 2.36023,0.62745 2.17995,-9.64791 2.17995,124.251802 0,93.46905 0.0973,121.74025 0.42146,122.45169 0.53548,1.17525 1.95807,1.91123 4.20971,2.1779 2.21595,0.26245 2.9616,1.18671 2.67589,3.31688 -0.1057,0.78804 -0.24522,1.4853 -0.31004,1.54948 -0.0648,0.0642 -1.30848,-0.0256 -2.76369,-0.19948 -7.18442,-0.85849 -29.53986,-0.69126 -33.3872,0.24975 -0.4154,0.1016 -0.83755,0.0516 -0.93811,-0.11113 z m 7.16143,-175.69666 c 0,-20.438932 -0.071,-23.813492 -0.4918,-23.371512 -0.41352,0.43435 -30.64194,45.508932 -31.39805,46.818652 -0.20208,0.35005 3.05928,0.44097 15.81764,0.44097 h 16.07221 z"
         id="path62" />
    </g>
    <g
       id="g40"
       transform="matrix(3.1175873,0,0,3.1175873,-315.93211,-671.18537)"
       style="fill:#e6505f;fill-opacity:1">
      <path
         style="fill:#e6505f;fill-opacity:1;fill-rule:nonzero;stroke:none;stroke-width:2.92153"
         d="m 182.02837,328.74625 c 0,0 2.97859,-0.17118 4.72466,-0.17118 3.49215,0 7.29243,0.17118 11.98286,0.17118 0.34236,0 0.44507,-0.27387 0.47931,-0.582 0.13693,-1.47219 0.44508,-2.63623 0.92439,-4.45079 0,-0.0342 0.0685,-0.10269 0.0685,-0.17119 0,-0.27387 -0.17117,-0.61624 -0.44508,-0.61624 -0.30813,0 -0.65049,0.75319 -0.7532,1.02709 -0.61627,1.26677 -0.9244,1.67761 -1.81455,2.49928 -0.44508,0.41084 -1.47218,0.89016 -2.73894,0.89016 h -4.31383 c -2.3281,0 -2.7047,-0.68474 -2.7047,-2.12267 v -16.43364 c 0,-1.36946 1.36947,-1.60912 3.11554,-1.91725 0.78745,-0.17119 1.16405,-0.41085 1.16405,-0.71896 0,-0.27389 -0.44508,-0.3766 -1.0271,-0.3766 -1.88302,0 -2.67046,0.10271 -4.3823,0.10271 -1.54065,0 -2.05421,-0.10271 -3.93722,-0.10271 -0.58203,0 -0.99287,0.10271 -0.99287,0.3766 0,0.30811 0.34237,0.54777 1.12981,0.71896 1.74607,0.30813 2.15692,0.47932 2.15692,2.15691 v 16.19398 c 0,1.54064 -1.02711,2.15691 -2.84165,2.53351 -0.13694,0.0342 -0.75321,0.17119 -0.75321,0.58204 0,0.23963 0.34237,0.41081 0.95863,0.41081 z"
         id="path35" />
      <path
         style="fill:#e6505f;fill-opacity:1;fill-rule:nonzero;stroke:none;stroke-width:2.92153"
         d="m 169.90857,328.74625 c 1.88302,0 2.73894,-0.17118 4.48501,-0.17118 1.57489,0 2.19115,0.17118 4.07417,0.17118 0.58202,0 0.99287,-0.10271 0.99287,-0.37658 0,-0.30813 -0.34237,-0.47932 -1.12982,-0.61627 -1.74607,-0.34237 -2.77317,-0.95863 -2.77317,-2.60199 v -15.78313 c 0,-1.64336 0.75321,-2.19115 2.49928,-2.49928 0.78745,-0.17119 1.12981,-0.41085 1.12981,-0.71896 0,-0.27389 -0.41084,-0.3766 -0.99286,-0.3766 -1.88302,0 -2.3281,0.10271 -3.80028,0.10271 -1.60912,0 -2.22538,-0.10271 -4.10841,-0.10271 -0.58202,0 -0.99286,0.10271 -0.99286,0.3766 0,0.30811 0.34237,0.54777 1.12981,0.71896 1.74608,0.30813 2.36234,0.85592 2.36234,2.49928 v 15.78313 c 0,1.64336 -0.99287,2.25962 -2.73894,2.60199 -0.78744,0.13695 -1.16405,0.30814 -1.16405,0.61627 0,0.27387 0.44508,0.37658 1.0271,0.37658 z"
         id="path34" />
      <path
         style="fill:#e6505f;fill-opacity:1;fill-rule:nonzero;stroke:none;stroke-width:2.92153"
         d="m 159.11545,329.12286 c 4.58772,0 7.60055,-2.67046 7.60055,-6.84734 0,-3.49215 -2.60199,-5.13551 -5.0328,-6.60767 -2.63623,-1.60915 -4.89585,-3.01284 -4.89585,-5.10128 0,-2.94436 1.91726,-4.00571 4.0057,-4.00571 1.98572,0 3.21825,1.36949 4.17687,3.83453 0.13694,0.2739 0.58203,0.47932 0.99287,0.47932 0.27389,0 0.51355,-0.10271 0.51355,-0.37661 0,-1.12982 -0.41084,-2.49928 -0.68473,-3.45792 -0.10273,-0.37661 -0.37661,-0.75319 -0.75321,-0.89014 -0.75321,-0.30813 -1.98573,-0.75321 -3.66333,-0.75321 -4.89585,0 -7.29242,2.80741 -7.29242,6.33378 0,3.38944 3.04707,4.96432 5.78601,6.67618 2.46504,1.54064 3.93722,2.46504 3.93722,5.30667 0,2.60199 -1.78031,4.2796 -4.21112,4.2796 -1.98573,0 -4.03993,-1.40372 -4.93009,-4.99856 -0.10272,-0.27389 -0.34236,-0.3766 -0.58202,-0.3766 -0.3766,0 -0.68473,0.17118 -0.68473,0.47931 0.0685,0.95862 0.10272,2.70471 0.34236,3.66332 0.0685,0.2739 0.2739,0.51356 0.44508,0.68474 1.301,1.09559 2.97859,1.67759 4.93009,1.67759 z"
         id="path33" />
      <path
         style="fill:#e6505f;fill-opacity:1;fill-rule:nonzero;stroke:none;stroke-width:2.92153"
         d="m 128.78171,328.74625 c 1.12983,0 2.63623,-0.20539 4.17687,-0.20539 1.30101,0 2.53352,0.0684 3.18403,0.0684 0.58203,0 0.99287,-0.10269 0.99287,-0.37659 0,-0.30813 -0.34237,-0.47932 -1.12982,-0.71897 -1.1298,-0.2739 -2.01996,-0.95864 -2.01996,-1.98573 0,-0.44508 1.09558,-4.10842 1.40369,-5.0328 0.17119,-0.47932 0.41085,-0.61626 0.61627,-0.61626 h 6.57346 c 0.65048,0 0.85591,0.0342 0.95862,0.3766 0.51355,1.74607 1.36948,4.65619 1.36948,5.64907 0,0.78743 -0.61627,1.33522 -2.1227,1.57488 -0.65048,0.10271 -1.16403,0.37661 -1.16403,0.68474 0,0.2739 0.41084,0.41082 0.99287,0.41082 0.8559,0 2.3281,-0.0342 3.69755,-0.0342 1.54065,0 3.86874,0.20539 4.82738,0.20539 0.61627,0 1.02711,-0.0685 1.02711,-0.34234 0,-0.30813 -0.34237,-0.65051 -1.16406,-0.82169 -1.40369,-0.23966 -2.53352,-0.68474 -3.52637,-3.49216 -1.12982,-3.2867 -3.97147,-11.53776 -6.19685,-18.62476 -0.10272,-0.27389 -0.13693,-0.58203 -0.23966,-0.78745 -0.0342,-0.0685 -0.17116,-0.0685 -0.2054,-0.0342 -0.13695,0.20542 -0.23966,0.9244 -0.6505,1.1983 -0.41085,0.2739 -0.82169,0.37661 -1.26678,0.51353 -0.0685,0.75322 -0.23963,1.36948 -0.47929,2.01999 -2.36236,6.47073 -3.903,10.44218 -6.53923,16.43361 -0.75321,1.74607 -1.81454,2.3281 -2.9786,2.67047 -0.78743,0.27389 -1.16403,0.51355 -1.16403,0.82169 0,0.27387 0.41084,0.44505 1.02711,0.44505 z m 8.14835,-10.03136 c -0.44508,0 -0.71898,0 -0.71898,-0.23963 0,-0.0685 0.0342,-0.17118 0.0685,-0.2739 l 3.18403,-8.55919 c 0.13692,-0.3766 0.20542,-0.58203 0.27389,-0.58203 0.10271,0 0.17116,0.20543 0.30814,0.61627 l 2.73894,8.52495 c 0.0342,0.13695 0.0685,0.2739 0.0685,0.34238 0,0.17118 -0.13695,0.17118 -0.51355,0.17118 z"
         id="path32" />
      <path
         style="fill:#e6505f;fill-opacity:1;fill-rule:nonzero;stroke:none;stroke-width:2.92153"
         d="m 123.77461,329.29405 c 0.8559,0 2.80741,-0.20543 2.80741,-1.19827 0,-0.2739 -0.17119,-0.41085 -0.51356,-0.41085 -1.64338,0 -2.80741,-0.0685 -4.00571,-1.12982 -3.28671,-2.97858 -4.93009,-5.58057 -7.087,-8.8673 -0.13692,-0.20542 -0.17115,-0.37661 0,-0.47932 1.91725,-0.95864 4.10843,-2.7047 4.10843,-5.85449 0,-3.80026 -2.77318,-5.71751 -7.84021,-5.71751 -2.0542,0 -2.70471,0.17118 -4.03995,0.17118 -1.43793,0 -1.54065,-0.0342 -3.42366,-0.0342 -0.58203,0 -0.99287,0.10271 -0.99287,0.3766 0,0.30811 0.34237,0.65048 1.12982,0.71896 2.01996,0.20542 2.15691,0.68474 2.15691,3.32097 v 14.89297 c 0,1.71183 -0.82169,2.32809 -2.56776,2.67046 -0.78745,0.13695 -1.16406,0.30814 -1.16406,0.61627 0,0.27387 0.44509,0.37658 1.02712,0.37658 1.88301,0 2.77317,-0.23963 4.55347,-0.23963 1.30101,0 1.54065,0.23963 3.42369,0.23963 0.582,0 0.99285,-0.10271 0.99285,-0.37658 0,-0.30813 -0.34238,-0.47932 -1.1298,-0.61627 -1.74609,-0.34237 -2.36233,-1.50643 -2.36233,-3.01283 v -6.1626 c 0,-0.41084 0.13692,-0.71898 0.54776,-0.68474 0.61627,0.0685 1.74609,0.23966 2.73894,0.71898 0.68474,0.34234 1.12983,0.75319 1.50643,1.36946 2.39657,3.90297 3.59485,5.34093 5.3067,7.42936 1.23251,1.50641 2.84162,1.88302 4.82738,1.88302 z m -13.07844,-12.22251 c -1.12982,0 -1.84877,-0.0685 -1.84877,-1.19827 0,-2.80741 0.0342,-4.7589 0.0685,-5.9572 0.10271,-2.39657 0.37661,-3.2525 1.88301,-3.2525 4.41653,0 5.13551,2.43081 5.13551,5.23822 0,2.70471 -2.01996,5.16975 -5.23822,5.16975 z"
         id="path31" />
      <path
         style="fill:#e6505f;fill-opacity:1;fill-rule:nonzero;stroke:none;stroke-width:2.92153"
         d="m 82.699102,328.74625 c 2.019961,0 2.73894,-0.17118 4.553479,-0.17118 1.369457,0 2.670466,0.13695 3.286734,0.13695 2.670439,0 4.485004,-0.44506 5.957173,-1.19827 1.437957,-0.71898 3.629102,-1.88302 3.629102,-5.71754 0,-4.03993 -2.875887,-5.06704 -4.964322,-5.75176 -0.205423,-0.0685 -0.171186,-0.27389 0,-0.34237 1.164034,-0.47932 1.609116,-0.78745 2.328095,-1.50643 0.547793,-0.54776 1.198271,-1.7803 1.198271,-3.35518 0,-3.80029 -2.636228,-5.20398 -8.114082,-5.20398 -2.019988,0 -2.533518,0.17118 -3.868764,0.17118 -1.437931,0 -1.746065,-0.0342 -3.629078,-0.0342 -0.582031,0 -0.992876,0.10271 -0.992876,0.3766 0,0.30811 0.342371,0.65048 1.129824,0.71896 1.711828,0.13694 2.362332,0.85592 2.362332,2.53351 v 15.71467 c 0,1.67759 -0.992875,2.29385 -2.73894,2.63622 -0.787453,0.13695 -1.164061,0.30814 -1.164061,0.61627 0,0.27387 0.445083,0.37658 1.027113,0.37658 z m 7.189708,-13.11264 c -0.547793,0 -1.609143,-0.0685 -1.609143,-1.30101 v -6.09412 c 0,-1.02711 0.376608,-1.57491 2.293885,-1.57491 4.313819,0 5.101246,2.63623 5.101246,4.62196 0,2.01998 -1.061324,3.04707 -1.540643,3.32097 -1.437931,0.78745 -2.978599,1.02711 -4.245345,1.02711 z m 1.164034,11.64048 c -1.780302,0 -2.773177,-0.51356 -2.773177,-2.46505 v -6.95005 c 0,-0.44508 0.479319,-1.26677 1.985751,-1.26677 2.122673,0 3.355181,0.51356 4.005686,0.89017 0.924401,0.51355 2.567754,1.81453 2.567754,4.485 0,3.01284 -2.704703,5.3067 -5.786014,5.3067 z"
         id="path30" />
    </g>
  </g>
</svg>
