<?xml version="1.0" encoding="UTF-8" standalone="no"?>
<!-- Created with Inkscape (http://www.inkscape.org/) -->

<svg
   width="603.79034mm"
   height="654.27502mm"
   viewBox="0 0 603.79034 654.27502"
   version="1.1"
   id="svg1"
   inkscape:version="1.4.2 (f4327f4, 2025-05-13)"
   sodipodi:docname="logo-aiscgre-brasil-mono-positivo.svg"
   xmlns:inkscape="http://www.inkscape.org/namespaces/inkscape"
   xmlns:sodipodi="http://sodipodi.sourceforge.net/DTD/sodipodi-0.dtd"
   xmlns="http://www.w3.org/2000/svg"
   xmlns:svg="http://www.w3.org/2000/svg">
  <sodipodi:namedview
     id="namedview1"
     pagecolor="#ffffff"
     bordercolor="#000000"
     borderopacity="0.25"
     inkscape:showpageshadow="2"
     inkscape:pageopacity="0.0"
     inkscape:pagecheckerboard="0"
     inkscape:deskcolor="#d1d1d1"
     inkscape:document-units="mm"
     inkscape:zoom="0.25417602"
     inkscape:cx="645.22216"
     inkscape:cy="1162.5802"
     inkscape:window-width="1920"
     inkscape:window-height="1009"
     inkscape:window-x="-8"
     inkscape:window-y="-8"
     inkscape:window-maximized="1"
     inkscape:current-layer="layer1" />
  <defs
     id="defs1" />
  <g
     inkscape:label="Camada 1"
     inkscape:groupmode="layer"
     id="layer1"
     transform="translate(178.85832,216.69376)">
    <g
       id="g72"
       transform="matrix(0.26458333,0,0,0.26458333,417.0204,-216.69376)"
       style="fill:#000000;fill-opacity:1">
      <path
         style="fill:#000000;fill-opacity:1"
         d="m -542.24927,-84.198186 c -0.62306,-1.50421 -0.50703,-6.00948 0.24141,-9.3736 0.79011,-3.55136 0.51263,-8.002154 -0.7635,-12.246674 -1.61859,-5.38358 -1.68001,-5.6619 -1.44503,-6.5477 0.39171,-1.47665 0.733,-1.7297 3.78814,-2.80873 8.39851,-2.9662 14.79083,-10.9013 14.79083,-18.36055 0,-7.21776 -7.05433,-12.99517 -15.90102,-13.02273 -8.09995,-0.0252 -21.63278,5.03586 -32.00619,11.96987 -4.47487,2.99119 -6.06778,4.5127 -6.06778,5.7958 0,1.1348 -0.66293,1.63099 -2.17909,1.63099 -2.04604,0 -2.22557,-0.56771 -2.90062,-9.17223 -0.76173,-9.70933 -1.77212,-17.71397 -2.93893,-23.28333 -1.21312,-5.79038 -1.35735,-7.75488 -0.66731,-9.08928 1.10767,-2.14199 13.55857,-8.79466 21.20956,-11.33253 14.26056,-4.7303 25.29237,-3.95802 32.56927,2.28001 5.00029,4.28643 9.28584,13.09705 11.48402,23.60986 4.17203,19.95276 3.67491,38.92377 -1.30145,49.66528 -2.71121,5.852184 -8.25131,13.920514 -12.70917,18.509034 -3.27499,3.37097 -4.38562,3.75018 -5.20314,1.77651 z"
         id="path65"
         transform="matrix(3.7795275,0,0,3.7795274,963.55156,691.99979)" />
      <g
         id="g65"
         style="fill:#000000;fill-opacity:1"
         transform="matrix(3.7795275,0,0,3.7795274,963.55156,691.99979)">
        <path
           style="fill:#000000;fill-opacity:1"
           d="m -416.98187,108.61517 c -1.02883,-0.41449 -1.85237,-1.37827 -2.82839,-3.31006 -1.40612,-2.78306 -4.73448,-7.140246 -7.7829,-10.188656 -6.19871,-6.19872 -13.61566,-10.433366 -20.44201,-11.671226 -2.62711,-0.47638 -3.9648,-1.09588 -4.73223,-2.19154 -0.87546,-1.2499 -0.68131,-2.02156 0.6484,-2.57715 1.00587,-0.42028 2.32694,-0.44021 8.20209,-0.12375 4.48159,0.24139 10.62316,0.27321 17.05726,0.0884 14.50388,-0.4167 13.32238,-0.47731 14.36684,0.73695 l 0.89421,1.03958 -0.1592,13.348036 c -0.154,12.911286 -0.18306,13.371896 -0.88823,14.077066 -0.73935,0.73935 -3.29001,1.19373 -4.33584,0.77239 z"
           id="path64" />
        <path
           style="fill:#000000;fill-opacity:1"
           d="m -548.39158,280.28897 c -15.93748,-1.42227 -31.31433,-6.72985 -44.44999,-15.34268 l -2.82223,-1.85048 -7.9375,-0.19129 c -10.63565,-0.25632 -17.1168,-1.32236 -26.62586,-4.37951 -10.76992,-3.46251 -20.23098,-8.4333 -29.64219,-15.57383 -4.16759,-3.16206 -13.29137,-12.16934 -16.13157,-15.92559 l -2.00195,-2.64764 -0.36852,-87.48709 c -0.20269,-48.117896 -0.46792,-101.345152 -0.58941,-118.282782 l -0.22089,-30.795711 -0.9835,-0.9835 c -0.55938,-0.55938 -1.94808,-1.28638 -3.22022,-1.68581 -2.09488,-0.65778 -2.25782,-0.78614 -2.56965,-2.0244 -0.42877,-1.70262 0.0786,-2.05628 2.4496,-1.7076 0.97014,0.14266 7.75671,0.25938 15.08127,0.25938 h 13.31738 l 0.002,117.298617 0.002,117.298626 2.95018,3.52778 c 8.55819,10.23373 18.81266,18.78187 28.61915,23.85696 3.7,1.91484 9.83152,4.32188 10.46843,4.10958 0.16482,-0.0549 -0.36184,-0.89301 -1.17035,-1.86238 -10.10816,-12.11918 -17.07188,-26.17048 -20.77725,-41.92404 -2.21327,-9.4098 -3.01644,-22.71069 -1.96315,-32.51068 1.3799,-12.83885 4.59853,-23.84216 10.33776,-35.34092 l 2.32056,-4.64925 -2.10607,-2.40631 c -11.24564,-12.8488 -16.8212,-28.10934 -16.2171,-44.386862 0.50106,-13.50109 4.94852,-23.69921 14.47514,-33.19179 11.22168,-11.18158 25.65812,-16.59745 42.37929,-15.89868 15.1486,0.63305 28.91572,5.19461 40.5375,13.43159 l 2.94651,2.08835 -0.6134,2.14499 c -1.09444,3.82716 -2.13646,9.10308 -2.75842,13.96629 l -0.60866,4.75925 -1.83314,-0.0143 c -1.00823,-0.008 -1.92996,-0.11106 -2.04829,-0.22939 -0.11834,-0.11834 -0.43502,-1.26601 -0.70375,-2.55038 -1.78083,-8.51146 -11.18313,-16.45133 -22.79927,-19.25307 -4.63446,-1.1178 -11.02004,-1.57705 -15.24612,-1.0965 -15.349,1.74536 -27.96226,14.04253 -30.75139,29.98077 -1.37252,7.84313 -0.0958,16.580346 3.41443,23.366982 1.37309,2.65471 5.55729,8.20285 6.72398,8.91583 0.4964,0.30336 1.0826,-0.0979 3.35139,-2.2938 12.21149,-11.819486 29.44419,-20.800542 46.59952,-24.285992 4.02822,-0.81841 11.52405,-1.78048 13.87241,-1.78048 h 1.65159 l 0.19857,-2.02847 c 0.10922,-1.11566 0.29349,-3.45722 0.40949,-5.20347 1.02478,-15.42633 6.01839,-32.79978 13.05585,-45.42308 13.59093,-24.3784304 35.68142,-39.8650607 63.84008,-44.755371 5.35824,-0.93056 19.02769,-1.31188 24.55663,-0.68503 10.18081,1.15428 19.56831,3.96978 29.41836,8.8231503 11.04428,5.4418103 19.39953,11.5052103 29.06955,21.0957807 l 6.139,6.08855 -0.22526,3.68161 c -0.12389,2.02489 -0.32835,6.66811 -0.45434,10.31828 -0.126,3.65016 -0.38568,6.8351 -0.57707,7.07763 -0.48022,0.60853 -1.63023,0.5281 -3.01639,-0.21097 -0.92465,-0.493 -1.44361,-1.24157 -2.49656,-3.60119 -9.86805,-22.11371 -39.20178,-39.3795704 -65.12105,-38.33030038 -15.44911,0.62541 -29.42821,6.90309998 -41.69924,18.72615038 -7.14859,6.88761 -12.63192,14.30454 -17.15339,23.20222 -6.31845,12.43391 -10.12218,27.48857 -10.12218,40.06223 v 3.60453 l 1.4993,0.39081 c 12.43074,3.240196 23.7258,8.704106 34.10637,16.498722 2.245,1.68574 6.44407,5.3679 9.33125,8.18257 l 5.24943,5.11759 -0.20089,3.52778 c -0.61163,10.74051 -1.06268,14.75361 -1.73366,15.42459 -1.30414,1.30413 -2.60359,0.29591 -6.50046,-5.04361 -6.722,-9.21056 -16.79076,-17.78396 -26.84837,-22.86103 -4.65444,-2.34955 -13.21327,-5.37864 -13.73198,-4.85993 -0.3105,0.3105 0.43709,5.48281 1.67318,11.57607 3.4058,16.78881 9.79173,31.02048 18.74379,41.77236 8.81016,10.58145 21.14989,17.63692 35.20925,20.13154 5.69435,1.01037 17.87385,0.92013 22.93056,-0.1699 7.54462,-1.62632 15.11275,-4.62768 21.51556,-8.53261 3.78577,-2.30886 8.17723,-5.4738 10.52923,-7.58845 l 1.82187,-1.63802 V 118.57702 80.042048 l 0.86798,-0.81543 c 1.31606,-1.23637 5.23563,-1.57978 14.38966,-1.26076 l 7.67292,0.26741 v 7.89845 c 0,4.344146 0.086,7.898446 0.19104,7.898446 0.10507,0 1.73226,-0.53472 3.61597,-1.18827 14.4078,-4.998726 27.33832,-4.02812 37.71193,2.83079 2.68426,1.7748 7.17336,6.063296 9.35513,8.937096 3.56582,4.69683 6.66844,12.44107 6.13135,15.30403 -0.29487,1.57178 -0.99791,2.10913 -3.73598,2.85547 -1.26118,0.34377 -3.64881,1.20894 -5.30584,1.92259 -11.49805,4.95203 -20.23693,13.25228 -23.40606,22.23123 -0.94438,2.67567 -1.06532,3.46747 -1.05436,6.90291 0.0103,3.23513 0.16825,4.34995 0.94957,6.70278 0.51546,1.55222 1.30139,3.41871 1.7465,4.14777 l 0.80929,1.32554 3.19806,-2.78763 c 6.73526,-5.8709 11.6185,-13.41429 12.64245,-19.52943 0.1217,-0.72684 0.59786,-1.75872 1.05812,-2.29306 l 0.83684,-0.97153 h 5.52799 5.528 l 0.85138,0.98981 c 2.30945,2.68493 -0.30637,9.72608 -6.96496,18.74805 -2.911,3.9442 -8.94743,10.2253 -12.05794,12.54667 l -2.05901,1.53664 1.52984,0.80639 c 0.84142,0.44352 2.79985,1.23064 4.35207,1.74918 3.81142,1.27323 10.14707,1.36575 14.47251,0.21134 9.52322,-2.54164 19.10337,-9.25749 24.87799,-17.43991 3.51972,-4.98732 4.90185,-8.55477 5.07037,-13.08735 0.18766,-5.04696 1.74826,-7.26296 4.7758,-6.78143 0.6878,0.10939 3.82175,0.35668 6.96434,0.54951 6.55317,0.40212 7.51538,0.64705 7.51538,1.91302 0,1.55097 -1.37335,4.61268 -3.62565,8.08296 -1.20735,1.86026 -3.20018,5.11391 -4.42851,7.23033 -5.06228,8.72237 -13.02971,17.65082 -19.6651,22.03708 -8.96913,5.92896 -18.36491,8.82118 -28.72518,8.8422 -7.30927,0.0148 -12.68672,-1.17733 -18.52084,-4.106 -7.35209,-3.69069 -14.2578,-11.05561 -18.14311,-19.34961 -2.40905,-5.14261 -3.02717,-8.11455 -3.00009,-14.42471 0.0211,-4.91812 0.12077,-5.78624 0.99089,-8.63178 1.21498,-3.97332 3.28821,-8.24079 5.61425,-11.55622 2.3204,-3.30737 7.68898,-8.8373 11.30902,-11.64888 4.4041,-3.42054 4.57305,-3.64464 4.35556,-5.77715 -0.43924,-4.30673 -3.30709,-7.26694 -8.83942,-9.12408 -9.42821,-3.16494 -21.08978,0.58025 -22.95649,7.37262 -0.37271,1.35618 -0.54653,5.80249 -0.71142,18.19882 -0.12001,9.02229 -0.3749,23.89179 -0.5664,33.04333 -0.24116,11.52424 -0.23465,17.14586 0.0212,18.28746 0.49944,2.22862 1.59688,3.74012 4.38579,6.04054 2.73366,2.25485 3.70499,3.88901 3.10036,5.21603 -0.23895,0.52443 -0.85947,0.9978 -1.56241,1.19189 -0.64419,0.17787 -6.60642,0.2623 -13.32227,0.18865 -10.03892,-0.11009 -12.29663,-0.22531 -12.96236,-0.66151 l -0.80614,-0.52821 v -9.51686 c 0,-5.23428 -0.0847,-9.51687 -0.18822,-9.51687 -0.10353,0 -1.73072,0.93149 -3.61598,2.06999 -6.96237,4.20453 -15.59885,8.06695 -22.47774,10.05252 -9.46154,2.73105 -17.49642,3.49814 -28.06351,2.67923 -23.85055,-1.84835 -43.4935,-10.63443 -58.28454,-26.07008 -6.6132,-6.90141 -11.20173,-13.58575 -15.63393,-22.77472 -5.27996,-10.94654 -8.37196,-21.66294 -9.95427,-34.49992 l -0.59986,-4.866566 -1.41111,0.21189 c -3.18534,0.478296 -10.42055,2.443776 -13.79741,3.748116 -6.96329,2.68963 -13.9432,6.76042 -20.10285,11.7243 -2.68928,2.16721 -11.43168,10.94019 -11.43168,11.47166 0,0.13478 2.57969,2.3224 5.73264,4.86138 9.19461,7.40414 13.41131,11.1323 20.66898,18.2743 7.66802,7.54581 11.33212,11.78281 15.29856,17.69053 5.04981,7.52133 8.95067,16.99267 10.51713,25.5357 1.06131,5.78816 1.30872,14.21868 0.56498,19.252 -2.63896,17.85934 -14.34168,33.74198 -31.69305,43.01302 l -2.74558,1.46699 3.83437,2.19471 c 14.34698,8.21191 31.45072,10.86363 47.97377,7.43774 17.84296,-3.69956 35.26531,-15.79773 45.70338,-31.73668 2.35894,-3.60209 2.84199,-4.6074 5.3396,-11.1125 0.89396,-2.32833 1.94843,-4.51114 2.34326,-4.85069 0.63861,-0.54919 1.61217,-0.61736 8.81589,-0.61736 4.84337,0 8.36891,0.14498 8.77207,0.36075 0.6611,0.35381 0.66013,0.39622 -0.0505,2.20486 -2.51165,6.39275 -9.34509,16.0376 -19.07679,26.92533 -16.05075,17.95742 -36.52224,28.92384 -59.90987,32.09323 -4.70561,0.63768 -15.69128,0.90676 -20.28472,0.49684 z m -32.35416,-34.34394 c 2.73665,-0.99731 7.26068,-3.52883 10.02106,-5.6075 7.78098,-5.85938 12.47365,-14.82876 13.18851,-25.20798 0.67479,-9.79753 -2.41617,-19.57228 -8.95496,-28.31882 -3.20977,-4.2935 -10.09066,-12.12003 -15.92874,-18.1178 -6.08425,-6.25066 -20.70886,-18.84479 -21.23359,-18.28552 -0.39806,0.42425 -2.78004,8.16034 -3.65107,11.85779 -1.7633,7.48506 -2.1176,11.03113 -2.1176,21.19414 0,9.94139 0.23158,12.51494 1.77771,19.75556 3.30818,15.49238 10.19997,29.09879 20.63225,40.73407 3.11271,3.47166 2.63494,3.31948 6.26643,1.99606 z"
           id="path63" />
        <path
           style="fill:#000000;fill-opacity:1"
           d="m -725.76827,281.11683 c -0.48187,-0.77967 -0.57551,-2.83374 -0.16515,-3.62235 0.36936,-0.7098 0.87201,-0.93168 2.84042,-1.25381 1.81042,-0.29628 2.62471,-0.62446 3.3507,-1.35044 l 0.95907,-0.95906 v -64.28575 -64.28575 l -21.1847,-0.0909 -21.1847,-0.0909 -7.735,11.73259 c -27.64279,41.92905 -28.34956,43.0667 -27.89089,44.89417 0.11989,0.4777 0.70051,1.4181 1.29027,2.0898 1.21845,1.38774 1.49655,2.91617 0.63277,3.47777 -0.41214,0.26796 -1.90045,0.24082 -5.19069,-0.0947 -3.20526,-0.3268 -6.98163,-0.40411 -12.37554,-0.25335 -4.55394,0.12729 -7.84486,0.084 -7.96151,-0.10475 -0.10936,-0.17695 0.02,-0.84466 0.28751,-1.48379 0.792,-1.89239 117.4388,-176.701852 118.27526,-177.249922 1.23447,-0.80885 2.70788,-1.08975 3.96421,-0.75576 2.36023,0.62745 2.17995,-9.64791 2.17995,124.251802 0,93.46905 0.0973,121.74025 0.42146,122.45169 0.53548,1.17525 1.95807,1.91123 4.20971,2.1779 2.21595,0.26245 2.9616,1.18671 2.67589,3.31688 -0.1057,0.78804 -0.24522,1.4853 -0.31004,1.54948 -0.0648,0.0642 -1.30848,-0.0256 -2.76369,-0.19948 -7.18442,-0.85849 -29.53986,-0.69126 -33.3872,0.24975 -0.4154,0.1016 -0.83755,0.0516 -0.93811,-0.11113 z m 7.16143,-175.69666 c 0,-20.438932 -0.071,-23.813492 -0.4918,-23.371512 -0.41352,0.43435 -30.64194,45.508932 -31.39805,46.818652 -0.20208,0.35005 3.05928,0.44097 15.81764,0.44097 h 16.07221 z"
           id="path62" />
      </g>
      <g
         id="g71"
         transform="translate(-824.00007)"
         style="fill:#000000;fill-opacity:1">
        <path
           id="path1"
           d="m -1358.5007,2061.5579 c 4.2701,0 9.9637,-0.7764 15.7866,-0.7764 4.9171,0 9.5755,0.2588 12.0341,0.2588 2.1997,0 3.7525,-0.3882 3.7525,-1.4233 0,-1.1646 -1.294,-1.8116 -4.2701,-2.7174 -4.2702,-1.0352 -7.6345,-3.6232 -7.6345,-7.5051 0,-1.6822 4.1407,-15.5279 5.3053,-19.0216 0.647,-1.8116 1.5528,-2.3292 2.3292,-2.3292 h 24.8445 c 2.4586,0 3.235,0.1294 3.6232,1.4234 1.9409,6.5993 5.1759,17.5982 5.1759,21.3507 0,2.9762 -2.3292,5.0466 -8.0227,5.9524 -2.4586,0.3882 -4.3996,1.4234 -4.3996,2.588 0,1.0351 1.5528,1.5527 3.7526,1.5527 3.235,0 8.7991,-0.1294 13.9751,-0.1294 5.8229,0 14.622,0.7764 18.2452,0.7764 2.3291,0 3.8819,-0.2588 3.8819,-1.294 0,-1.1645 -1.294,-2.4585 -4.3995,-3.1055 -5.3054,-0.9058 -9.5755,-2.588 -13.3281,-13.1987 -4.2701,-12.4222 -15.0102,-43.6073 -23.4211,-70.3928 -0.3882,-1.0352 -0.5176,-2.1998 -0.9058,-2.9762 -0.1294,-0.2588 -0.647,-0.2588 -0.7764,-0.1294 -0.5176,0.7764 -0.9058,3.4938 -2.4586,4.529 -1.5528,1.0351 -3.1056,1.4233 -4.7877,1.9409 -0.2588,2.8468 -0.9058,5.176 -1.8116,7.6346 -8.9285,24.4563 -14.7515,39.4665 -24.7152,62.1113 -2.8467,6.5993 -6.8581,8.7991 -11.2576,10.0931 -2.9762,1.0352 -4.3996,1.941 -4.3996,3.1055 0,1.0352 1.5528,1.6822 3.882,1.6822 z m 30.7968,-37.9138 c -1.6821,0 -2.7173,0 -2.7173,-0.9058 0,-0.2587 0.1294,-0.6469 0.2588,-1.0351 l 12.034,-32.3497 c 0.5176,-1.4234 0.7764,-2.1998 1.0352,-2.1998 0.3882,0 0.647,0.7764 1.1646,2.3292 l 10.3519,32.2203 c 0.1294,0.5176 0.2588,1.0351 0.2588,1.2939 0,0.647 -0.5176,0.647 -1.941,0.647 z m 83.8503,39.3372 c 17.3394,0 28.7265,-10.0931 28.7265,-25.8797 0,-13.1987 -9.8343,-19.4098 -19.0216,-24.9739 -9.9637,-6.0818 -18.504,-11.3871 -18.504,-19.2804 0,-11.1283 7.2464,-15.1397 15.1397,-15.1397 7.5051,0 12.1634,5.176 15.7866,14.4927 0.5175,1.0352 2.1998,1.8116 3.7526,1.8116 1.0352,0 1.9409,-0.3882 1.9409,-1.4234 0,-4.2702 -1.5527,-9.4461 -2.5879,-13.0693 -0.3883,-1.4234 -1.4234,-2.8468 -2.8468,-3.3644 -2.8468,-1.1645 -7.5051,-2.8467 -13.8457,-2.8467 -18.504,0 -27.5619,10.6107 -27.5619,23.9387 0,12.8105 11.5165,18.7628 21.8684,25.2327 9.3167,5.823 14.8808,9.3167 14.8808,20.0568 0,9.8343 -6.7287,16.1749 -15.916,16.1749 -7.5051,0 -15.269,-5.3054 -18.6334,-18.8922 -0.3882,-1.0352 -1.294,-1.4234 -2.1998,-1.4234 -1.4233,0 -2.5879,0.647 -2.5879,1.8116 0.2588,3.6231 0.3882,10.2224 1.294,13.8456 0.2587,1.0352 1.0351,1.941 1.6821,2.588 4.9172,4.1407 11.2577,6.3405 18.6334,6.3405 z m 61.3673,0 c 17.3394,0 28.7265,-10.0931 28.7265,-25.8797 0,-13.1987 -9.8343,-19.4098 -19.0216,-24.9739 -9.9637,-6.0818 -18.504,-11.3871 -18.504,-19.2804 0,-11.1283 7.2463,-15.1397 15.1397,-15.1397 7.5051,0 12.1634,5.176 15.7866,14.4927 0.5175,1.0352 2.1998,1.8116 3.7526,1.8116 1.0351,0 1.9409,-0.3882 1.9409,-1.4234 0,-4.2702 -1.5528,-9.4461 -2.5879,-13.0693 -0.3883,-1.4234 -1.4234,-2.8468 -2.8468,-3.3644 -2.8468,-1.1645 -7.5051,-2.8467 -13.8457,-2.8467 -18.504,0 -27.5619,10.6107 -27.5619,23.9387 0,12.8105 11.5165,18.7628 21.8684,25.2327 9.3167,5.823 14.8808,9.3167 14.8808,20.0568 0,9.8343 -6.7287,16.1749 -15.916,16.1749 -7.5051,0 -15.269,-5.3054 -18.6334,-18.8922 -0.3882,-1.0352 -1.294,-1.4234 -2.1998,-1.4234 -1.4234,0 -2.5879,0.647 -2.5879,1.8116 0.2588,3.6231 0.3882,10.2224 1.2939,13.8456 0.2589,1.0352 1.0352,1.941 1.6822,2.588 4.9172,4.1407 11.2577,6.3405 18.6334,6.3405 z m 84.3032,-0.2588 c 29.2441,0 44.9013,-22.2565 44.9013,-46.0659 0,-26.0091 -20.5743,-43.3485 -43.7367,-43.3485 -29.3735,0 -45.0307,22.2565 -45.0307,46.0659 0,26.0091 20.5744,43.3485 43.8661,43.3485 z m 1.941,-5.3053 c -21.9978,0 -33.126,-20.1862 -33.126,-44.6425 0,-20.5744 10.2224,-33.9025 30.1498,-33.9025 22.1272,0 33.2555,19.9274 33.2555,44.2543 0,20.7038 -10.0931,34.2907 -30.2793,34.2907 z m 102.6455,5.4347 c 8.5403,0 18.504,-1.1646 24.9739,-3.7525 2.7174,-0.9058 2.8468,-1.0352 4.2701,-3.6232 1.5528,-3.7526 3.4938,-10.6107 3.4938,-12.8105 0,-2.7173 -3.235,-2.5879 -4.5289,-0.3882 -5.6936,10.4813 -13.5869,16.5631 -26.268,16.5631 -21.8683,0 -36.2316,-22.2566 -36.2316,-43.7368 0,-19.4098 14.7515,-37.655 35.3258,-37.655 7.2464,0 13.7163,1.6822 18.1158,4.529 4.6584,3.235 6.47,7.8933 8.1522,14.622 0.7763,3.1056 4.6583,1.941 4.5289,-0.1294 -0.2588,-6.8581 -0.7763,-10.9989 -1.1646,-15.1396 -0.2588,-2.3292 -1.1646,-3.882 -3.8819,-4.529 -8.9285,-2.1997 -13.3281,-3.3643 -23.4212,-3.3643 -27.0443,0 -50.983,19.2804 -50.983,44.9013 0,26.9149 22.9035,44.5131 47.6187,44.5131 z m 46.3894,-1.294 c 7.1169,0 10.3518,-0.647 16.9512,-0.647 5.9523,0 8.2815,0.647 15.3984,0.647 2.1998,0 3.7526,-0.3882 3.7526,-1.4234 0,-1.1645 -1.294,-1.8115 -4.2702,-2.3291 -6.5993,-1.294 -10.4813,-3.6232 -10.4813,-9.8343 v -59.6528 c 0,-6.2111 2.8468,-8.2815 9.4461,-9.4461 2.9762,-0.647 4.2702,-1.5528 4.2702,-2.7174 0,-1.0351 -1.5528,-1.4233 -3.7526,-1.4233 -7.1169,0 -8.7991,0.3882 -14.3632,0.3882 -6.0818,0 -8.4109,-0.3882 -15.5279,-0.3882 -2.1997,0 -3.7525,0.3882 -3.7525,1.4233 0,1.1646 1.294,2.0704 4.2701,2.7174 6.5994,1.1646 8.9285,3.235 8.9285,9.4461 v 59.6528 c 0,6.2111 -3.7525,8.5403 -10.3518,9.8343 -2.9762,0.5176 -4.3996,1.1646 -4.3996,2.3291 0,1.0352 1.6822,1.4234 3.882,1.4234 z m 42.1516,0 c 4.2701,0 9.9636,-0.7764 15.7866,-0.7764 4.9171,0 9.5755,0.2588 12.0341,0.2588 2.1997,0 3.7525,-0.3882 3.7525,-1.4233 0,-1.1646 -1.294,-1.8116 -4.2701,-2.7174 -4.2702,-1.0352 -7.6346,-3.6232 -7.6346,-7.5051 0,-1.6822 4.1408,-15.5279 5.3054,-19.0216 0.6469,-1.8116 1.5528,-2.3292 2.3292,-2.3292 h 24.8445 c 2.4586,0 3.235,0.1294 3.6232,1.4234 1.9409,6.5993 5.1759,17.5982 5.1759,21.3507 0,2.9762 -2.3292,5.0466 -8.0227,5.9524 -2.4586,0.3882 -4.3996,1.4234 -4.3996,2.588 0,1.0351 1.5528,1.5527 3.7526,1.5527 3.235,0 8.7991,-0.1294 13.975,-0.1294 5.823,0 14.6221,0.7764 18.2452,0.7764 2.3292,0 3.882,-0.2588 3.882,-1.294 0,-1.1645 -1.294,-2.4585 -4.3996,-3.1055 -5.3053,-0.9058 -9.5754,-2.588 -13.328,-13.1987 -4.2702,-12.4222 -15.0102,-43.6073 -23.4212,-70.3928 -0.3882,-1.0352 -0.5175,-2.1998 -0.9057,-2.9762 -0.1294,-0.2588 -0.647,-0.2588 -0.7764,-0.1294 -0.5175,0.7764 -0.9058,3.4938 -2.4586,4.529 -1.5528,1.0351 -3.1055,1.4233 -4.7877,1.9409 -0.2588,2.8468 -0.9058,5.176 -1.8116,7.6346 -8.9285,24.4563 -14.7514,39.4665 -24.7151,62.1113 -2.8468,6.5993 -6.8582,8.7991 -11.2577,10.0931 -2.9762,1.0352 -4.3996,1.941 -4.3996,3.1055 0,1.0352 1.5528,1.6822 3.882,1.6822 z m 30.7968,-37.9138 c -1.6822,0 -2.7174,0 -2.7174,-0.9058 0,-0.2587 0.1295,-0.6469 0.2589,-1.0351 l 12.034,-32.3497 c 0.5176,-1.4234 0.7764,-2.1998 1.0352,-2.1998 0.3883,0 0.647,0.7764 1.1646,2.3292 l 10.3519,32.2203 c 0.1294,0.5176 0.2588,1.0351 0.2588,1.2939 0,0.647 -0.5175,0.647 -1.9409,0.647 z m 127.3283,37.9138 c 1.2939,0 1.8115,-1.1646 2.3291,-2.1997 1.4234,-3.235 4.9172,-17.8571 4.9172,-19.2804 0,-1.1646 -0.3883,-1.6822 -1.1646,-1.6822 -1.4234,0 -2.588,1.6822 -2.9762,2.7173 -3.3643,9.058 -8.5403,13.7163 -16.3042,14.3633 -6.2111,0.3882 -12.6811,0.647 -18.6334,0.647 -5.8229,0 -11.1283,-0.2588 -14.8808,-0.647 -1.0352,-0.1294 -1.5528,-1.1646 -1.5528,-2.1998 0,-0.5176 0.1294,-1.1646 0.3882,-1.5528 16.4336,-25.3621 26.3973,-38.8195 44.6425,-63.4053 l 8.0227,-10.7401 c 0.5176,-0.647 -0.6469,-2.3291 -1.4233,-2.3291 -9.7049,0.2587 -19.5392,0.3881 -30.4087,0.3881 h -16.6924 c -4.529,0 -9.5755,-1.2939 -11.3871,-2.0703 -1.4234,-0.647 -3.3644,-1.941 -4.0114,-1.941 -0.6469,0 -1.941,0.3882 -2.0704,2.3292 -0.3882,5.5641 -2.5879,12.8104 -3.4937,15.5278 -0.3883,1.0352 -0.9058,2.588 -0.9058,3.6232 0,0.7763 0.3882,1.4233 1.1646,1.4233 1.941,0 2.9762,-2.5879 3.6232,-4.2701 2.4585,-6.4699 8.7991,-9.3167 12.9398,-9.7049 3.3644,-0.2588 8.4109,-0.2588 13.4575,-0.2588 7.1169,0 14.622,0.1294 19.2804,0.2588 2.0703,0.1294 2.5879,0.5176 2.5879,1.0352 0,0.3882 -0.2588,0.647 -0.5175,1.0352 -16.9512,25.3621 -28.0795,39.9841 -45.9365,64.5699 -3.1056,4.1407 -7.6345,10.9989 -7.6345,12.2928 0,0 0.1294,1.8116 0.9057,1.8116 h 10.0931 c 5.0466,0 10.4813,-0.1294 15.7867,-0.1294 11.6459,0 24.7151,0.3882 39.8547,0.3882 z m 15.5278,0 c 7.1169,0 10.3519,-0.647 16.9512,-0.647 5.9523,0 8.2815,0.647 15.3984,0.647 2.1998,0 3.7526,-0.3882 3.7526,-1.4234 0,-1.1645 -1.294,-1.8115 -4.2701,-2.3291 -6.5994,-1.294 -10.4813,-3.6232 -10.4813,-9.8343 v -59.6528 c 0,-6.2111 2.8467,-8.2815 9.4461,-9.4461 2.9761,-0.647 4.2701,-1.5528 4.2701,-2.7174 0,-1.0351 -1.5528,-1.4233 -3.7525,-1.4233 -7.117,0 -8.7991,0.3882 -14.3633,0.3882 -6.0817,0 -8.4109,-0.3882 -15.5278,-0.3882 -2.1998,0 -3.7526,0.3882 -3.7526,1.4233 0,1.1646 1.294,2.0704 4.2702,2.7174 6.5993,1.1646 8.9285,3.235 8.9285,9.4461 v 59.6528 c 0,6.2111 -3.7526,8.5403 -10.3519,9.8343 -2.9762,0.5176 -4.3996,1.1646 -4.3996,2.3291 0,1.0352 1.6822,1.4234 3.882,1.4234 z m 88.3792,1.1646 c 29.2441,0 44.9014,-22.2565 44.9014,-46.0659 0,-26.0091 -20.5744,-43.3485 -43.7368,-43.3485 -29.3735,0 -45.0307,22.2565 -45.0307,46.0659 0,26.0091 20.5744,43.3485 43.8661,43.3485 z m 1.941,-5.3053 c -21.9977,0 -33.126,-20.1862 -33.126,-44.6425 0,-20.5744 10.2225,-33.9025 30.1499,-33.9025 22.1271,0 33.2554,19.9274 33.2554,44.2543 0,20.7038 -10.0931,34.2907 -30.2793,34.2907 z m 137.0655,5.6935 c 1.4234,0 2.8468,-0.5176 2.8468,-3.235 0,-1.6821 -0.647,-6.4699 -0.647,-12.8104 0,-20.8332 0.1294,-58.747 0.2588,-61.0762 0.2589,-4.3995 1.6822,-5.9523 8.2816,-7.1169 2.9761,-0.647 4.3995,-1.5528 4.3995,-2.7174 0,-1.0351 -1.6822,-1.4233 -3.8819,-1.4233 -8.0228,0 -8.7992,0.3882 -15.1397,0.3882 h -7.5051 c -2.3292,0 -5.4347,0.3881 -5.4347,1.4233 0,1.1646 2.8467,2.1998 5.9523,2.7174 2.8468,0.5176 7.5051,3.7526 7.6345,7.2463 0,24.0682 -0.1294,48.6539 -0.2588,53.7005 -0.1294,1.9409 -0.647,2.7173 -1.294,2.7173 -1.1646,0 -2.7174,-1.8116 -3.3644,-2.5879 -2.5879,-3.235 -49.3008,-59.7822 -51.8888,-63.4054 -0.9058,-1.1646 -1.5528,-2.1997 -3.1056,-2.1997 -9.5755,0 -10.0931,-0.3882 -20.3156,-0.647 -0.9057,0 -3.1055,0.2588 -3.1055,1.8115 0,1.5528 3.3643,2.9762 4.1407,3.235 7.764,2.4586 13.0693,5.4347 13.0693,14.8808 0,21.739 -1.294,42.831 -2.4586,52.7947 -0.5175,5.4347 -2.588,9.4461 -7.6345,10.7401 -2.9762,0.9058 -4.2702,1.4234 -4.2702,2.5879 0,1.0352 1.5528,1.4234 3.7526,1.4234 7.1169,0 7.2463,-0.647 12.0341,-0.647 4.9171,0 5.3053,0.647 12.4222,0.647 2.1998,0 3.882,-0.3882 3.882,-1.4234 0,-1.1645 -1.4234,-1.8115 -4.3995,-2.3291 -6.5994,-1.294 -8.411,-5.823 -8.411,-10.6107 0,-16.3042 0.3883,-36.4904 0.647,-49.5597 0,-1.0352 0.2588,-2.7174 1.1646,-2.7174 0.6469,0 1.4234,0.5176 2.7173,2.0704 3.1056,3.7526 46.1954,54.6062 48.6539,57.8412 4.1408,5.8229 9.7049,8.2815 11.2577,8.2815 z m 25.1033,-1.5528 c 7.117,0 9.3167,-0.7764 15.2691,-0.7764 13.1986,0 24.3269,0.7764 41.2781,0.7764 1.0352,0 1.294,-1.0352 1.8116,-2.1997 1.5528,-3.6232 4.1408,-12.9399 4.1408,-15.3985 0,-1.0352 -0.5176,-1.6822 -1.4234,-1.8116 -1.0352,-0.1294 -1.6822,0.647 -2.1998,1.6822 -2.7174,5.3054 -4.6583,8.4109 -7.5051,10.2225 -2.7174,1.6822 -6.3405,2.1998 -12.0341,2.1998 h -9.7049 c -5.9523,0 -8.7991,-2.0704 -8.7991,-8.7991 v -25.3621 c 0,-2.9762 1.5528,-3.3644 4.529,-3.3644 h 12.2928 c 3.4938,0 5.0466,1.8116 6.0818,5.8229 0.6469,2.8468 1.6821,4.2702 2.9761,4.2702 1.1646,0 1.294,-1.0352 1.294,-2.1998 0,-1.0352 -0.2588,-7.5051 -0.2588,-10.2225 0,-2.0704 0.3882,-8.0227 0.3882,-9.1873 0,-1.294 -1.1646,-2.0704 -1.8115,-2.0704 -1.0352,0 -1.8116,0.9058 -2.3292,2.8468 -1.294,4.9172 -2.4586,6.4699 -7.6345,6.4699 h -13.0693 c -1.294,0 -2.4586,-1.294 -2.4586,-2.8467 v -28.0795 c 0,-2.4586 3.3644,-4.1408 4.7878,-4.1408 h 17.3394 c 3.235,0 6.3405,0.7764 8.7991,3.4938 1.1646,1.294 1.941,4.3995 2.9762,7.2463 0.2588,0.9058 0.5175,1.294 1.4233,1.294 0.7764,0 1.8116,-0.3882 1.8116,-1.941 0,-3.4938 -1.0352,-8.5403 -1.941,-13.5869 -0.1294,-0.9057 -1.4233,-1.1645 -2.4585,-1.1645 -0.647,0 -5.176,0.1294 -11.1283,0.2588 -5.5641,0 -12.2929,0.1294 -18.1158,0.1294 -9.1873,0 -13.4575,-0.3882 -23.4212,-0.3882 -2.1997,0 -3.7525,0.3882 -3.7525,1.4233 0,1.1646 1.294,2.0704 4.3995,2.7174 6.5994,1.1646 8.7991,3.235 8.7991,9.5755 v 59.394 c 0,6.3405 -3.2349,8.6697 -9.8343,9.9637 -2.9761,0.5176 -4.2701,1.1646 -4.2701,2.3291 0,1.0352 1.5528,1.4234 3.7525,1.4234 z m 98.5371,0 c 7.1169,0 10.3519,-0.647 16.9512,-0.647 5.9523,0 8.2815,0.647 15.3984,0.647 2.1998,0 3.7526,-0.3882 3.7526,-1.4234 0,-1.1645 -1.294,-1.8115 -4.2702,-2.3291 -6.5993,-1.294 -10.4812,-3.6232 -10.4812,-9.8343 v -59.6528 c 0,-6.2111 2.8467,-8.2815 9.4461,-9.4461 2.9761,-0.647 4.2701,-1.5528 4.2701,-2.7174 0,-1.0351 -1.5528,-1.4233 -3.7526,-1.4233 -7.1169,0 -8.7991,0.3882 -14.3632,0.3882 -6.0817,0 -8.4109,-0.3882 -15.5278,-0.3882 -2.1998,0 -3.7526,0.3882 -3.7526,1.4233 0,1.1646 1.294,2.0704 4.2702,2.7174 6.5993,1.1646 8.9285,3.235 8.9285,9.4461 v 59.6528 c 0,6.2111 -3.7526,8.5403 -10.3519,9.8343 -2.9762,0.5176 -4.3996,1.1646 -4.3996,2.3291 0,1.0352 1.6822,1.4234 3.882,1.4234 z m 126.6813,1.5528 c 1.4233,0 2.8467,-0.5176 2.8467,-3.235 0,-1.6821 -0.6471,-6.4699 -0.6471,-12.8104 0,-20.8332 0.1292,-58.747 0.2584,-61.0762 0.2584,-4.3995 1.6823,-5.9523 8.2815,-7.1169 2.9763,-0.647 4.3996,-1.5528 4.3996,-2.7174 0,-1.0351 -1.6821,-1.4233 -3.8819,-1.4233 -8.0227,0 -8.7992,0.3882 -15.1396,0.3882 h -7.5052 c -2.3292,0 -5.4347,0.3881 -5.4347,1.4233 0,1.1646 2.8467,2.1998 5.9523,2.7174 2.8468,0.5176 7.5051,3.7526 7.6345,7.2463 0,24.0682 -0.1292,48.6539 -0.2584,53.7005 -0.1291,1.9409 -0.647,2.7173 -1.2939,2.7173 -1.1646,0 -2.7174,-1.8116 -3.3644,-2.5879 -2.588,-3.235 -49.3009,-59.7822 -51.8888,-63.4054 -0.9058,-1.1646 -1.5528,-2.1997 -3.1056,-2.1997 -9.5755,0 -10.0931,-0.3882 -20.3156,-0.647 -0.9058,0 -3.1055,0.2588 -3.1055,1.8115 0,1.5528 3.3643,2.9762 4.1407,3.235 7.7639,2.4586 13.0693,5.4347 13.0693,14.8808 0,21.739 -1.294,42.831 -2.4586,52.7947 -0.5175,5.4347 -2.588,9.4461 -7.6345,10.7401 -2.9762,0.9058 -4.2702,1.4234 -4.2702,2.5879 0,1.0352 1.5528,1.4234 3.7526,1.4234 7.1169,0 7.2463,-0.647 12.0341,-0.647 4.9171,0 5.3053,0.647 12.4222,0.647 2.1998,0 3.882,-0.3882 3.882,-1.4234 0,-1.1645 -1.4234,-1.8115 -4.3996,-2.3291 -6.5993,-1.294 -8.4109,-5.823 -8.4109,-10.6107 0,-16.3042 0.3883,-36.4904 0.647,-49.5597 0,-1.0352 0.2588,-2.7174 1.1646,-2.7174 0.6469,0 1.4233,0.5176 2.7173,2.0704 3.1056,3.7526 46.1953,54.6062 48.6539,57.8412 4.1408,5.8229 9.7049,8.2815 11.2578,8.2815 z m 44.6101,-1.5528 c 7.1169,0 10.3519,-0.647 16.9512,-0.647 6.0817,0 8.2815,0.647 15.3984,0.647 2.32921,0 3.88204,-0.3882 3.88204,-1.4234 0,-1.1645 -1.29401,-1.8115 -4.39954,-2.3291 -6.5994,-1.294 -10.3519,-4.0114 -10.3519,-10.3519 v -51.8889 c 0,-14.4926 0.647,-15.1396 6.5993,-15.1396 h 13.32809 c 8.41092,0 11.38708,2.3292 12.03403,6.0817 0.64706,3.3644 1.29401,5.4348 2.58803,5.4348 1.2939,0 2.07037,-2.7174 2.07037,-4.2702 v -1.5528 c 0,-3.4937 0.51787,-2.9761 1.29391,-7.8933 0.12919,-0.7764 0.51787,-2.7173 0.51787,-3.6231 0,-1.294 -0.38868,-3.1056 -0.90545,-3.1056 -2.07038,0 -2.97615,1.6822 -5.17594,2.7174 -2.84685,1.294 -6.46996,1.9409 -12.42227,1.9409 h -46.45404 c -3.7527,0 -8.2816,-0.7763 -9.3167,-2.5879 -0.7763,-1.4234 -2.5881,-4.2702 -3.235,-4.2702 -0.6471,0 -1.941,0.1294 -2.3292,3.1056 -0.7763,5.4347 -1.5529,8.7991 -4.0114,13.8456 -0.3887,0.7764 -0.647,1.8116 -0.647,2.588 0,0.9058 0.2583,1.6822 0.9054,1.6822 1.941,0 4.5289,-3.4938 5.4347,-4.9172 1.8116,-3.4937 6.5993,-5.1759 10.7401,-5.1759 h 6.2111 c 4.529,0 6.8581,0 9.4461,0.5176 2.0704,0.3882 2.7174,3.235 2.7174,15.269 v 51.2419 c 0,6.3405 -3.7525,9.0579 -10.3519,10.3519 -2.9762,0.5176 -4.2702,1.1646 -4.2702,2.3291 0,1.0352 1.5529,1.4234 3.7526,1.4234 z m 68.51651,0 c 7.11702,0 9.3167,-0.7764 15.26912,-0.7764 13.19863,0 24.32688,0.7764 41.27814,0.7764 1.03464,0 1.29402,-1.0352 1.81155,-2.1997 1.55284,-3.6232 4.14076,-12.9399 4.14076,-15.3985 0,-1.0352 -0.51787,-1.6822 -1.42343,-1.8116 -1.03463,-0.1294 -1.68214,0.647 -2.19968,1.6822 -2.71744,5.3054 -4.6584,8.4109 -7.50514,10.2225 -2.71744,1.6822 -6.34055,2.1998 -12.03414,2.1998 h -9.70483 c -5.95231,0 -8.79916,-2.0704 -8.79916,-8.7991 v -25.3621 c 0,-2.9762 1.55284,-3.3644 4.52899,-3.3644 h 12.29286 c 3.4938,0 5.04653,1.8116 6.08172,5.8229 0.64706,2.8468 1.68225,4.2702 2.97615,4.2702 1.1646,0 1.29402,-1.0352 1.29402,-2.1998 0,-1.0352 -0.25839,-7.5051 -0.25839,-10.2225 0,-2.0704 0.38868,-8.0227 0.38868,-9.1873 0,-1.294 -1.1646,-2.0704 -1.81155,-2.0704 -1.03464,0 -1.81167,0.9058 -2.3292,2.8468 -1.29402,4.9172 -2.45862,6.4699 -7.63456,6.4699 H -117.276 c -1.29402,0 -2.45862,-1.294 -2.45862,-2.8467 v -28.0795 c 0,-2.4586 3.36439,-4.1408 4.78782,-4.1408 h 17.33939 c 3.23498,0 6.34054,0.7764 8.79905,3.4938 1.1646,1.294 1.94107,4.3995 2.97626,7.2463 0.25839,0.9058 0.51787,1.294 1.42332,1.294 0.77625,0 1.81155,-0.3882 1.81155,-1.941 0,-3.4938 -1.03464,-8.5403 -1.94096,-13.5869 -0.1292,-0.9057 -1.42332,-1.1645 -2.45851,-1.1645 -0.64706,0 -5.17594,0.1294 -11.12836,0.2588 -5.56407,0 -12.29286,0.1294 -18.11575,0.1294 -9.18729,0 -13.45746,-0.3882 -23.42111,-0.3882 -2.19979,0 -3.75263,0.3882 -3.75263,1.4233 0,1.1646 1.29401,2.0704 4.39958,2.7174 6.59937,1.1646 8.79905,3.235 8.79905,9.5755 v 59.394 c 0,6.3405 -3.23487,8.6697 -9.83424,9.9637 -2.97615,0.5176 -4.27017,1.1646 -4.27017,2.3291 0,1.0352 1.55284,1.4234 3.75252,1.4234 z m 149.9083791,2.0704 c 3.2349799,0 10.6106099,-0.7764 10.6106099,-4.5289 0,-1.0352 -0.64707,-1.5528 -1.94097,-1.5528 -6.21113,0 -10.6105998,-0.2588 -15.1395996,-4.2702 -12.4222595,-11.2577 -18.6333994,-21.092 -26.7854994,-33.5142 -0.51787,-0.7764 -0.64706,-1.4234 0,-1.8116 7.24633,-3.6232 15.5278399,-10.2225 15.5278399,-22.1272 0,-14.3632 -10.4812999,-21.6095 -29.6323499,-21.6095 -7.76387,0 -10.22248,0.647 -15.26901,0.647 -5.43477,0 -5.8229,-0.1294 -12.93981,-0.1294 -2.19979,0 -3.75263,0.3882 -3.75263,1.4233 0,1.1646 1.29402,2.4586 4.27017,2.7174 7.63456,0.7764 8.1521,2.588 8.1521,12.5517 v 56.2884 c 0,6.4699 -3.10557,8.7991 -9.70483,10.0931 -2.97615,0.5176 -4.39958,1.1646 -4.39958,2.3291 0,1.0352 1.68214,1.4234 3.88193,1.4234 7.11691,0 10.4813,-0.9058 17.21009,-0.9058 4.91712,0 5.82289,0.9058 12.9398,0.9058 2.19979,0 3.75252,-0.3882 3.75252,-1.4234 0,-1.1645 -1.2939,-1.8115 -4.27006,-2.3291 -6.59937,-1.294 -8.92857,-5.6936 -8.92857,-11.3871 v -23.2918 c 0,-1.5527 0.51787,-2.7173 2.07038,-2.5879 2.3292,0.2588 6.59937,0.9058 10.35189,2.7173 2.58803,1.294 4.27017,2.8468 5.69359,5.176 9.05788,14.7514 13.58687,20.1862 20.0567199,28.0795 4.6583998,5.6935 10.7401196,7.1169 18.2452692,7.1169 z M -40.09066,2017.433 c -4.27006,0 -6.9875,-0.2588 -6.9875,-4.5289 0,-10.6107 0.12919,-17.9865 0.25838,-22.5154 0.38868,-9.0579 1.42343,-12.2929 7.11691,-12.2929 16.69244,0 19.40977,9.1873 19.40977,19.798 0,10.2225 -7.63445,19.5392 -19.798,19.5392 z m 147.54683,45.6777 c 1.42342,0 2.84674,-0.5176 2.84674,-3.235 0,-1.6821 -0.64706,-6.4699 -0.64706,-12.8104 0,-20.8332 0.12919,-58.747 0.25838,-61.0762 0.25838,-4.3995 1.68214,-5.9523 8.28151,-7.1169 2.97615,-0.647 4.39947,-1.5528 4.39947,-2.7174 0,-1.0351 -1.68214,-1.4233 -3.88193,-1.4233 -8.02269,0 -8.79905,0.3882 -15.1396,0.3882 h -7.505141 c -2.32921,0 -5.43477,0.3881 -5.43477,1.4233 0,1.1646 2.84674,2.1998 5.95231,2.7174 2.84685,0.5176 7.505141,3.7526 7.634551,7.2463 0,24.0682 -0.12919,48.6539 -0.25838,53.7005 -0.12919,1.9409 -0.64706,2.7173 -1.2939,2.7173 -1.1646,0 -2.717441,-1.8116 -3.364391,-2.5879 -2.58803,-3.235 -49.30094,-59.7822 -51.88886,-63.4054 -0.90545,-1.1646 -1.55284,-2.1997 -3.10557,-2.1997 -9.57552,0 -10.09306,-0.3882 -20.31554,-0.647 -0.90544,0 -3.10557,0.2588 -3.10557,1.8115 0,1.5528 3.36429,2.9762 4.14076,3.235 7.76386,2.4586 13.06922,5.4347 13.06922,14.8808 0,21.739 -1.29401,42.831 -2.45862,52.7947 -0.51787,5.4347 -2.58791,9.4461 -7.63445,10.7401 -2.97615,0.9058 -4.27016,1.4234 -4.27016,2.5879 0,1.0352 1.55272,1.4234 3.75252,1.4234 7.1169,0 7.24632,-0.647 12.03414,-0.647 4.91711,0 5.30524,0.647 12.42226,0.647 2.19968,0 3.88193,-0.3882 3.88193,-1.4234 0,-1.1645 -1.42342,-1.8115 -4.39958,-2.3291 -6.59937,-1.294 -8.41092,-5.823 -8.41092,-10.6107 0,-16.3042 0.38868,-36.4904 0.64706,-49.5597 0,-1.0352 0.25838,-2.7174 1.16449,-2.7174 0.64706,0 1.42343,0.5176 2.71744,2.0704 3.10557,3.7526 46.19527,54.6062 48.65388,57.8412 4.140761,5.8229 9.704831,8.2815 11.257671,8.2815 z m 20.05682,-1.5528 c 4.27006,0 9.96365,-0.7764 15.78655,-0.7764 4.91723,0 9.57553,0.2588 12.03414,0.2588 2.19979,0 3.75252,-0.3882 3.75252,-1.4233 0,-1.1646 -1.29401,-1.8116 -4.27017,-2.7174 -4.27017,-1.0352 -7.63445,-3.6232 -7.63445,-7.5051 0,-1.6822 4.14076,-15.5279 5.30525,-19.0216 0.64706,-1.8116 1.55284,-2.3292 2.3292,-2.3292 h 24.84453 c 2.45862,0 3.23498,0.1294 3.62322,1.4234 1.94097,6.5993 5.17595,17.5982 5.17595,21.3507 0,2.9762 -2.32921,5.0466 -8.0228,5.9524 -2.45851,0.3882 -4.39947,1.4234 -4.39947,2.588 0,1.0351 1.55273,1.5527 3.75252,1.5527 3.23498,0 8.79916,-0.1294 13.9751,-0.1294 5.8229,0 14.62195,0.7764 18.24517,0.7764 2.3292,0 3.88193,-0.2588 3.88193,-1.294 0,-1.1645 -1.29402,-2.4585 -4.39958,-3.1055 -5.30525,-0.9058 -9.57542,-2.588 -13.32805,-13.1987 -4.27017,-12.4222 -15.01018,-43.6073 -23.4211,-70.3928 -0.38868,-1.0352 -0.51788,-2.1998 -0.90545,-2.9762 -0.12919,-0.2588 -0.64706,-0.2588 -0.77625,-0.1294 -0.51787,0.7764 -0.90545,3.4938 -2.45862,4.529 -1.55284,1.0351 -3.10557,1.4233 -4.78771,1.9409 -0.25838,2.8468 -0.90544,5.176 -1.81166,7.6346 -8.92846,24.4563 -14.75136,39.4665 -24.71512,62.1113 -2.84674,6.5993 -6.85809,8.7991 -11.25767,10.0931 -2.97615,1.0352 -4.39958,1.941 -4.39958,3.1055 0,1.0352 1.55284,1.6822 3.88204,1.6822 z m 30.79684,-37.9138 c -1.68225,0 -2.71743,0 -2.71743,-0.9058 0,-0.2587 0.12919,-0.6469 0.25838,-1.0351 l 12.03414,-32.3497 c 0.51787,-1.4234 0.77625,-2.1998 1.03464,-2.1998 0.38757,0 0.64706,0.7764 1.16449,2.3292 l 10.35188,32.2203 c 0.1292,0.5176 0.25839,1.0351 0.25839,1.2939 0,0.647 -0.51787,0.647 -1.94097,0.647 z m 127.32824,37.9138 c 1.29401,0 1.81155,-1.1646 2.3292,-2.1997 1.42332,-3.235 4.91712,-17.8571 4.91712,-19.2804 0,-1.1646 -0.38868,-1.6822 -1.1646,-1.6822 -1.42342,0 -2.58803,1.6822 -2.97615,2.7173 -3.36439,9.058 -8.54034,13.7163 -16.3042,14.3633 -6.21113,0.3882 -12.68109,0.647 -18.6334,0.647 -5.82301,0 -11.12836,-0.2588 -14.88088,-0.647 -1.03464,-0.1294 -1.55284,-1.1646 -1.55284,-2.1998 0,-0.5176 0.12919,-1.1646 0.38868,-1.5528 16.43361,-25.3621 26.39737,-38.8195 44.64253,-63.4053 l 8.02269,-10.7401 c 0.51787,-0.647 -0.64706,-2.3291 -1.42332,-2.3291 -9.70493,0.2587 -19.53928,0.3881 -30.40871,0.3881 h -16.69244 c -4.52899,0 -9.57552,-1.2939 -11.38707,-2.0703 -1.42343,-0.647 -3.3644,-1.941 -4.01135,-1.941 -0.64706,0 -1.94096,0.3882 -2.07038,2.3292 -0.38867,5.5641 -2.58802,12.8104 -3.4938,15.5278 -0.38757,1.0352 -0.90545,2.588 -0.90545,3.6232 0,0.7763 0.38868,1.4233 1.16461,1.4233 1.94096,0 2.97615,-2.5879 3.62321,-4.2701 2.45851,-6.4699 8.79905,-9.3167 12.93981,-9.7049 3.36439,-0.2588 8.41092,-0.2588 13.45745,-0.2588 7.11691,0 14.62206,0.1294 19.28036,0.2588 2.07037,0.1294 2.58802,0.5176 2.58802,1.0352 0,0.3882 -0.25838,0.647 -0.51787,1.0352 -16.95115,25.3621 -28.0794,39.9841 -45.93644,64.5699 -3.10556,4.1407 -7.63455,10.9989 -7.63455,12.2928 0,0 0.12919,1.8116 0.90544,1.8116 h 10.09318 c 5.04653,0 10.48119,-0.1294 15.78654,-0.1294 11.64591,0 24.71512,0.3882 39.85483,0.3882 z m 15.56019,0 c 7.11691,0 10.35189,-0.647 16.95115,-0.647 5.95242,0 8.28151,0.647 15.39842,0.647 2.19979,0 3.75263,-0.3882 3.75263,-1.4234 0,-1.1645 -1.29402,-1.8115 -4.27017,-2.3291 -6.59937,-1.294 -10.4813,-3.6232 -10.4813,-9.8343 v -59.6528 c 0,-6.2111 2.84674,-8.2815 9.44611,-9.4461 2.97615,-0.647 4.27017,-1.5528 4.27017,-2.7174 0,-1.0351 -1.55284,-1.4233 -3.75263,-1.4233 -7.11691,0 -8.79905,0.3882 -14.36323,0.3882 -6.08172,0 -8.41093,-0.3882 -15.52784,-0.3882 -2.19979,0 -3.75252,0.3882 -3.75252,1.4233 0,1.1646 1.29402,2.0704 4.27017,2.7174 6.59926,1.1646 8.92847,3.235 8.92847,9.4461 v 59.6528 c 0,6.2111 -3.75252,8.5403 -10.35189,9.8343 -2.97616,0.5176 -4.39958,1.1646 -4.39958,2.3291 0,1.0352 1.68225,1.4234 3.88204,1.4234 z m 88.34683,1.1646 c 29.24411,0 44.90136,-22.2565 44.90136,-46.0659 0,-26.0091 -20.57437,-43.3485 -43.73676,-43.3485 -29.37342,0 -45.03066,22.2565 -45.03066,46.0659 0,26.0091 20.57436,43.3485 43.86606,43.3485 z m 1.94107,-5.3053 c -21.99779,0 -33.12604,-20.1862 -33.12604,-44.6425 0,-20.5744 10.22248,-33.9025 30.14978,-33.9025 22.1272,0 33.25546,19.9274 33.25546,44.2543 0,20.7038 -10.09307,34.2907 -30.2792,34.2907 z m 137.09777,5.6935 c 1.42343,0 2.84674,-0.5176 2.84674,-3.235 0,-1.6821 -0.64706,-6.4699 -0.64706,-12.8104 0,-20.8332 0.12919,-58.747 0.25839,-61.0762 0.25838,-4.3995 1.68214,-5.9523 8.28151,-7.1169 2.97615,-0.647 4.39947,-1.5528 4.39947,-2.7174 0,-1.0351 -1.68214,-1.4233 -3.88193,-1.4233 -8.02269,0 -8.79905,0.3882 -15.1396,0.3882 h -7.50515 c -2.3292,0 -5.43477,0.3881 -5.43477,1.4233 0,1.1646 2.84686,2.1998 5.95242,2.7174 2.84674,0.5176 7.50504,3.7526 7.63445,7.2463 0,24.0682 -0.12919,48.6539 -0.25838,53.7005 -0.12919,1.9409 -0.64706,2.7173 -1.29391,2.7173 -1.1646,0 -2.71744,-1.8116 -3.36439,-2.5879 -2.58802,-3.235 -49.30083,-59.7822 -51.88885,-63.4054 -0.90545,-1.1646 -1.55273,-2.1997 -3.10557,-2.1997 -9.57553,0 -10.09307,-0.3882 -20.31554,-0.647 -0.90545,0 -3.10557,0.2588 -3.10557,1.8115 0,1.5528 3.36428,2.9762 4.14076,3.235 7.76386,2.4586 13.06922,5.4347 13.06922,14.8808 0,21.739 -1.29402,42.831 -2.45862,52.7947 -0.51787,5.4347 -2.58792,9.4461 -7.63445,10.7401 -2.97615,0.9058 -4.27017,1.4234 -4.27017,2.5879 0,1.0352 1.55273,1.4234 3.75252,1.4234 7.11691,0 7.24632,-0.647 12.03414,-0.647 4.91712,0 5.30536,0.647 12.42227,0.647 2.19979,0 3.88193,-0.3882 3.88193,-1.4234 0,-1.1645 -1.42343,-1.8115 -4.39958,-2.3291 -6.59926,-1.294 -8.41093,-5.823 -8.41093,-10.6107 0,-16.3042 0.38868,-36.4904 0.64707,-49.5597 0,-1.0352 0.25838,-2.7174 1.1646,-2.7174 0.64706,0 1.42331,0.5176 2.71733,2.0704 3.10556,3.7526 46.19526,54.6062 48.65388,57.8412 4.14075,5.8229 9.70493,8.2815 11.25766,8.2815 z m 20.05683,-1.5528 c 4.27017,0 9.96365,-0.7764 15.78655,-0.7764 4.91723,0 9.57552,0.2588 12.03414,0.2588 2.19979,0 3.75252,-0.3882 3.75252,-1.4233 0,-1.1646 -1.29402,-1.8116 -4.27017,-2.7174 -4.27017,-1.0352 -7.63445,-3.6232 -7.63445,-7.5051 0,-1.6822 4.14075,-15.5279 5.30535,-19.0216 0.64707,-1.8116 1.55273,-2.3292 2.3291,-2.3292 h 24.84453 c 2.45862,0 3.23498,0.1294 3.62322,1.4234 1.94096,6.5993 5.17594,17.5982 5.17594,21.3507 0,2.9762 -2.3292,5.0466 -8.02268,5.9524 -2.45862,0.3882 -4.39959,1.4234 -4.39959,2.588 0,1.0351 1.55273,1.5527 3.75252,1.5527 3.23498,0 8.79916,-0.1294 13.97511,-0.1294 5.82289,0 14.62206,0.7764 18.24516,0.7764 2.3292,0 3.88193,-0.2588 3.88193,-1.294 0,-1.1645 -1.2939,-2.4585 -4.39947,-3.1055 -5.30535,-0.9058 -9.57552,-2.588 -13.32815,-13.1987 -4.27006,-12.4222 -15.01019,-43.6073 -23.42111,-70.3928 -0.38868,-1.0352 -0.51787,-2.1998 -0.90544,-2.9762 -0.1292,-0.2588 -0.64707,-0.2588 -0.77626,-0.1294 -0.51787,0.7764 -0.90544,3.4938 -2.45861,4.529 -1.55273,1.0351 -3.10557,1.4233 -4.78771,1.9409 -0.25838,2.8468 -0.90545,5.176 -1.81166,7.6346 -8.92847,24.4563 -14.75136,39.4665 -24.71512,62.1113 -2.84675,6.5993 -6.85809,8.7991 -11.25767,10.0931 -2.97615,1.0352 -4.39958,1.941 -4.39958,3.1055 0,1.0352 1.55284,1.6822 3.88204,1.6822 z m 30.79684,-37.9138 c -1.68214,0 -2.71733,0 -2.71733,-0.9058 0,-0.2587 0.12919,-0.6469 0.25838,-1.0351 l 12.03414,-32.3497 c 0.51788,-1.4234 0.77626,-2.1998 1.03464,-2.1998 0.38868,0 0.64706,0.7764 1.1646,2.3292 l 10.35189,32.2203 c 0.12919,0.5176 0.25839,1.0351 0.25839,1.2939 0,0.647 -0.51788,0.647 -1.94097,0.647 z m 64.14936,37.9138 c 0,0 11.25767,-0.647 17.85704,-0.647 13.19863,0 27.56186,0.647 45.28948,0.647 1.29402,0 1.68214,-1.0352 1.81156,-2.1997 0.51787,-5.5642 1.68225,-9.9637 3.4938,-16.8219 0,-0.1294 0.25838,-0.3882 0.25838,-0.647 0,-1.0352 -0.64706,-2.3291 -1.68225,-2.3291 -1.1646,0 -2.4585,2.8467 -2.84674,3.8819 -2.3292,4.7878 -3.4938,6.3406 -6.85808,9.4461 -1.68226,1.5528 -5.56419,3.3644 -10.35189,3.3644 h -16.30431 c -8.79905,0 -10.22248,-2.588 -10.22248,-8.0227 v -62.1114 c 0,-5.1759 5.17595,-6.0817 11.77532,-7.2463 2.97615,-0.647 4.39958,-1.5528 4.39958,-2.7174 0,-1.0351 -1.68225,-1.4233 -3.88204,-1.4233 -7.11691,0 -10.09307,0.3882 -16.56303,0.3882 -5.82289,0 -7.76386,-0.3882 -14.88077,-0.3882 -2.19979,0 -3.75263,0.3882 -3.75263,1.4233 0,1.1646 1.29402,2.0704 4.27017,2.7174 6.59937,1.1646 8.1521,1.8116 8.1521,8.1521 v 61.2056 c 0,5.8229 -3.88193,8.1521 -10.74002,9.5755 -0.51787,0.1294 -2.84685,0.647 -2.84685,2.1997 0,0.9058 1.29402,1.5528 3.62322,1.5528 z m 78.54494,0 c 7.11691,0 9.3167,-0.7764 15.26901,-0.7764 13.19874,0 24.327,0.7764 41.27815,0.7764 1.03463,0 1.29401,-1.0352 1.81166,-2.1997 1.55273,-3.6232 4.14075,-12.9399 4.14075,-15.3985 0,-1.0352 -0.51787,-1.6822 -1.42342,-1.8116 -1.03464,-0.1294 -1.68214,0.647 -2.19979,1.6822 -2.71733,5.3054 -4.6583,8.4109 -7.50515,10.2225 -2.71733,1.6822 -6.34043,2.1998 -12.03403,2.1998 h -9.70494 c -5.9523,0 -8.79905,-2.0704 -8.79905,-8.7991 v -25.3621 c 0,-2.9762 1.55273,-3.3644 4.529,-3.3644 h 12.29285 c 3.49369,0 5.04653,1.8116 6.08172,5.8229 0.64706,2.8468 1.68214,4.2702 2.97616,4.2702 1.1646,0 1.29401,-1.0352 1.29401,-2.1998 0,-1.0352 -0.25838,-7.5051 -0.25838,-10.2225 0,-2.0704 0.38868,-8.0227 0.38868,-9.1873 0,-1.294 -1.16461,-2.0704 -1.81167,-2.0704 -1.03463,0 -1.81155,0.9058 -2.32909,2.8468 -1.29401,4.9172 -2.45861,6.4699 -7.63456,6.4699 h -13.06922 c -1.29401,0 -2.45861,-1.294 -2.45861,-2.8467 v -28.0795 c 0,-2.4586 3.36439,-4.1408 4.7877,-4.1408 h 17.3395 c 3.23487,0 6.34044,0.7764 8.79905,3.4938 1.1646,1.294 1.94097,4.3995 2.97616,7.2463 0.25838,0.9058 0.51787,1.294 1.42342,1.294 0.77626,0 1.81156,-0.3882 1.81156,-1.941 0,-3.4938 -1.03464,-8.5403 -1.94097,-13.5869 -0.12919,-0.9057 -1.42343,-1.1645 -2.45862,-1.1645 -0.64706,0 -5.17594,0.1294 -11.12825,0.2588 -5.56418,0 -12.29285,0.1294 -18.11575,0.1294 -9.1874,0 -13.45745,-0.3882 -23.42122,-0.3882 -2.19979,0 -3.75251,0.3882 -3.75251,1.4233 0,1.1646 1.29401,2.0704 4.39958,2.7174 6.59926,1.1646 8.79905,3.235 8.79905,9.5755 v 59.394 c 0,6.3405 -3.23498,8.6697 -9.83424,9.9637 -2.97627,0.5176 -4.27017,1.1646 -4.27017,2.3291 0,1.0352 1.55273,1.4234 3.75252,1.4234 z m 0,0"
           style="fill:#000000;fill-opacity:1;fill-rule:nonzero;stroke:none;stroke-width:11.042"
           aria-label="ASSOCIAZIONEINTERNAZIONALE" />
        <g
           id="g70"
           transform="translate(824,-363.38839)"
           style="fill:#000000;fill-opacity:1">
          <path
             id="path2"
             d="m -2078.2378,2594.037 c 17.3394,0 28.7264,-10.0931 28.7264,-25.8797 0,-13.1987 -9.8342,-19.4098 -19.0215,-24.974 -9.9637,-6.0817 -18.504,-11.387 -18.504,-19.2803 0,-11.1283 7.2463,-15.1397 15.1396,-15.1397 7.5051,0 12.1635,5.176 15.7866,14.4927 0.5176,1.0352 2.1998,1.8115 3.7526,1.8115 1.0352,0 1.941,-0.3881 1.941,-1.4233 0,-4.2702 -1.5528,-9.4461 -2.588,-13.0693 -0.3882,-1.4234 -1.4234,-2.8468 -2.8468,-3.3644 -2.8468,-1.1646 -7.5051,-2.8467 -13.8456,-2.8467 -18.504,0 -27.5619,10.6107 -27.5619,23.9387 0,12.8105 11.5164,18.7628 21.8683,25.2327 9.3167,5.823 14.8809,9.3167 14.8809,20.0568 0,9.8343 -6.7288,16.1749 -15.9161,16.1749 -7.5051,0 -15.269,-5.3054 -18.6334,-18.8922 -0.3882,-1.0352 -1.2939,-1.4234 -2.1997,-1.4234 -1.4234,0 -2.588,0.647 -2.588,1.8115 0.2588,3.6232 0.3882,10.2225 1.294,13.8457 0.2588,1.0352 1.0352,1.941 1.6822,2.588 4.9171,4.1407 11.2576,6.3405 18.6334,6.3405 z m 62.6936,-1.4234 c 7.1169,0 10.3519,-0.647 16.9512,-0.647 6.0817,0 8.2815,0.647 15.3984,0.647 2.3292,0 3.882,-0.3882 3.882,-1.4234 0,-1.1646 -1.294,-1.8115 -4.3996,-2.3291 -6.5993,-1.294 -10.3518,-4.0114 -10.3518,-10.3519 v -51.8889 c 0,-14.4926 0.6469,-15.1396 6.5993,-15.1396 h 13.328 c 8.411,0 11.3871,2.3292 12.0341,6.0817 0.647,3.3644 1.294,5.4348 2.588,5.4348 1.294,0 2.0704,-2.7174 2.0704,-4.2702 v -1.5528 c 0,-3.4937 0.5175,-2.9761 1.2939,-7.8933 0.1295,-0.7764 0.5176,-2.7174 0.5176,-3.6231 0,-1.294 -0.3883,-3.1056 -0.9058,-3.1056 -2.0704,0 -2.9762,1.6822 -5.1759,2.7174 -2.8468,1.2939 -6.47,1.9409 -12.4223,1.9409 h -46.4541 c -3.7525,0 -8.2815,-0.7764 -9.3167,-2.5879 -0.7763,-1.4234 -2.5879,-4.2702 -3.2349,-4.2702 -0.647,0 -1.941,0.1294 -2.3292,3.1056 -0.7764,5.4347 -1.5528,8.7991 -4.0114,13.8456 -0.3882,0.7764 -0.647,1.8116 -0.647,2.588 0,0.9058 0.2588,1.6822 0.9058,1.6822 1.941,0 4.529,-3.4938 5.4348,-4.9172 1.8116,-3.4937 6.5993,-5.1759 10.7401,-5.1759 h 6.2111 c 4.5289,0 6.8581,0 9.4461,0.5176 2.0704,0.3882 2.7174,3.2349 2.7174,15.269 v 51.2419 c 0,6.3405 -3.7526,9.0579 -10.3519,10.3519 -2.9762,0.5176 -4.2702,1.1645 -4.2702,2.3291 0,1.0352 1.5528,1.4234 3.7526,1.4234 z m 108.8566,1.1646 c 19.4098,0 34.1612,-14.3632 34.8082,-34.8082 0.3882,-12.1635 0.3882,-24.0682 1.294,-39.2078 0.2588,-5.3053 1.941,-8.9285 6.5993,-9.8343 2.9762,-0.7764 4.3996,-1.5528 4.3996,-2.7174 0,-1.0352 -1.6822,-1.4233 -3.882,-1.4233 -2.9762,0 -6.4699,0.3881 -10.7401,0.3881 -3.7525,0 -5.9523,-0.1294 -9.8343,-0.1294 -2.1998,0 -3.8819,0.3882 -3.8819,1.4234 0,1.1646 2.5879,2.1998 4.3995,2.7174 3.7526,1.0352 5.3054,7.6345 5.4348,14.3632 0.2588,10.0931 0.5175,22.5154 0.5175,28.3383 0,20.5744 -8.1521,34.2907 -26.2679,34.2907 -16.1748,0 -27.6913,-9.4461 -27.6913,-30.5381 v -37.1374 c 0,-5.3053 3.3643,-8.7991 5.5641,-9.4461 2.8468,-1.0352 4.2702,-1.5528 4.2702,-2.7174 0,-1.0352 -1.5528,-1.4234 -3.7526,-1.4234 -2.8468,0 -6.4699,0.2588 -10.6107,0.2588 -4.9171,0 -8.6697,-0.3882 -12.681,-0.3882 -2.1998,0 -3.882,0.3882 -3.882,1.4234 0,1.1646 1.4234,2.0704 4.3996,2.9762 2.9761,0.7764 6.0817,3.235 6.0817,9.5755 v 40.5018 c 0,20.1861 11.9047,33.5142 35.4552,33.5142 z m 97.3077,-0.9058 c 25.2328,0 45.9365,-20.7038 45.9365,-46.0659 0,-23.0329 -14.2338,-41.7957 -49.9478,-41.7957 -3.6232,0 -16.9513,1.0351 -22.6448,1.0351 -6.3405,0 -7.8933,-0.2587 -14.622,-0.2587 -2.1998,0 -3.7526,0.5176 -3.7526,1.6821 0,1.4234 1.294,1.8116 4.2702,2.4586 6.5993,1.1646 8.9285,3.235 8.9285,9.5755 v 59.394 c 0,6.3405 -2.3292,8.6697 -8.9285,9.9637 -2.9762,0.5176 -4.2702,0.647 -4.2702,2.0703 0,1.294 1.5528,1.6822 3.7526,1.6822 6.9875,0 8.5403,-0.647 13.8456,-0.647 10.4813,0 24.8446,0.9058 27.4325,0.9058 z m -1.5528,-4.6583 c -9.8342,0 -19.7979,-1.5528 -19.7979,-12.1635 v -58.8764 c 0,-8.0227 6.4699,-8.1521 17.9864,-8.1521 18.1158,0 36.7492,14.7515 36.7492,39.9842 0,23.0329 -14.3633,39.2078 -34.9377,39.2078 z m 58.5206,4.3995 c 7.1169,0 10.3519,-0.647 16.9512,-0.647 5.9523,0 8.2815,0.647 15.3984,0.647 2.1998,0 3.7526,-0.3882 3.7526,-1.4234 0,-1.1646 -1.294,-1.8115 -4.2702,-2.3291 -6.5993,-1.294 -10.4813,-3.6232 -10.4813,-9.8343 v -59.6528 c 0,-6.2111 2.8468,-8.2815 9.4461,-9.4461 2.9762,-0.647 4.2702,-1.5528 4.2702,-2.7174 0,-1.0352 -1.5528,-1.4233 -3.7526,-1.4233 -7.1169,0 -8.7991,0.3881 -14.3632,0.3881 -6.0818,0 -8.4109,-0.3881 -15.5278,-0.3881 -2.1998,0 -3.7526,0.3881 -3.7526,1.4233 0,1.1646 1.294,2.0704 4.2701,2.7174 6.5994,1.1646 8.9285,3.235 8.9285,9.4461 v 59.6528 c 0,6.2111 -3.7525,8.5403 -10.3518,9.8343 -2.9762,0.5176 -4.3996,1.1645 -4.3996,2.3291 0,1.0352 1.6822,1.4234 3.882,1.4234 z m 113.8384,0.2588 c 25.2327,0 45.9365,-20.7038 45.9365,-46.0659 0,-23.0329 -14.2338,-41.7957 -49.9479,-41.7957 -3.6231,0 -16.9512,1.0351 -22.6447,1.0351 -6.3406,0 -7.8933,-0.2587 -14.6221,-0.2587 -2.1997,0 -3.7525,0.5176 -3.7525,1.6821 0,1.4234 1.294,1.8116 4.2701,2.4586 6.5994,1.1646 8.9285,3.235 8.9285,9.5755 v 59.394 c 0,6.3405 -2.3291,8.6697 -8.9285,9.9637 -2.9761,0.5176 -4.2701,0.647 -4.2701,2.0703 0,1.294 1.5528,1.6822 3.7525,1.6822 6.9876,0 8.5403,-0.647 13.8457,-0.647 10.4813,0 24.8445,0.9058 27.4325,0.9058 z m -1.5528,-4.6583 c -9.8343,0 -19.798,-1.5528 -19.798,-12.1635 v -58.8764 c 0,-8.0227 6.47,-8.1521 17.9864,-8.1521 18.1158,0 36.7492,14.7515 36.7492,39.9842 0,23.0329 -14.3632,39.2078 -34.9376,39.2078 z m 58.5205,4.3995 c 7.117,0 10.3519,-0.647 16.9513,-0.647 5.9523,0 8.2815,0.647 15.3984,0.647 2.1998,0 3.7526,-0.3882 3.7526,-1.4234 0,-1.1646 -1.294,-1.8115 -4.2702,-2.3291 -6.5993,-1.294 -10.4813,-3.6232 -10.4813,-9.8343 v -59.6528 c 0,-6.2111 2.8468,-8.2815 9.4461,-9.4461 2.9762,-0.647 4.2702,-1.5528 4.2702,-2.7174 0,-1.0352 -1.5528,-1.4233 -3.7526,-1.4233 -7.1169,0 -8.7991,0.3881 -14.3632,0.3881 -6.0818,0 -8.411,-0.3881 -15.5279,-0.3881 -2.1998,0 -3.7525,0.3881 -3.7525,1.4233 0,1.1646 1.2939,2.0704 4.2701,2.7174 6.5993,1.1646 8.9285,3.235 8.9285,9.4461 v 59.6528 c 0,6.2111 -3.7525,8.5403 -10.3519,9.8343 -2.9761,0.5176 -4.3995,1.1645 -4.3995,2.3291 0,1.0352 1.6822,1.4234 3.8819,1.4234 z m 118.6586,1.294 c 8.5403,0 18.504,-1.1646 24.9739,-3.7526 2.7174,-0.9057 2.8468,-1.0351 4.2702,-3.6231 1.5527,-3.7526 3.4937,-10.6107 3.4937,-12.8105 0,-2.7173 -3.235,-2.5879 -4.5289,-0.3882 -5.6936,10.4813 -13.5869,16.5631 -26.268,16.5631 -21.8683,0 -36.2316,-22.2566 -36.2316,-43.7368 0,-19.4098 14.7515,-37.655 35.3259,-37.655 7.2463,0 13.7162,1.6822 18.1158,4.529 4.6583,3.2349 6.4699,7.8933 8.1521,14.622 0.7763,3.1056 4.6583,1.941 4.5289,-0.1294 -0.2588,-6.8581 -0.7763,-10.9989 -1.1646,-15.1396 -0.2588,-2.3292 -1.1646,-3.882 -3.8819,-4.529 -8.9285,-2.1997 -13.3281,-3.3643 -23.4212,-3.3643 -27.0443,0 -50.983,19.2804 -50.983,44.9013 0,26.9149 22.9035,44.5131 47.6187,44.5131 z m 43.6397,-1.294 c 4.2701,0 9.9636,-0.7764 15.7866,-0.7764 4.9171,0 9.5755,0.2588 12.0341,0.2588 2.1997,0 3.7525,-0.3882 3.7525,-1.4234 0,-1.1645 -1.294,-1.8115 -4.2701,-2.7173 -4.2702,-1.0352 -7.6346,-3.6232 -7.6346,-7.5051 0,-1.6822 4.1408,-15.5279 5.3054,-19.0216 0.6469,-1.8116 1.5528,-2.3292 2.3292,-2.3292 h 24.8445 c 2.4586,0 3.235,0.1294 3.6232,1.4234 1.9409,6.5993 5.1759,17.5982 5.1759,21.3507 0,2.9762 -2.3292,5.0466 -8.0227,5.9524 -2.4586,0.3882 -4.3996,1.4234 -4.3996,2.5879 0,1.0352 1.5528,1.5528 3.7526,1.5528 3.2349,0 8.7991,-0.1294 13.975,-0.1294 5.823,0 14.6221,0.7764 18.2452,0.7764 2.3292,0 3.882,-0.2588 3.882,-1.294 0,-1.1646 -1.294,-2.4585 -4.3996,-3.1055 -5.3053,-0.9058 -9.5754,-2.588 -13.328,-13.1987 -4.2702,-12.4223 -15.0103,-43.6073 -23.4212,-70.3928 -0.3882,-1.0352 -0.5175,-2.1998 -0.9057,-2.9762 -0.1295,-0.2588 -0.647,-0.2588 -0.7764,-0.1294 -0.5175,0.7764 -0.9058,3.4938 -2.4586,4.5289 -1.5528,1.0352 -3.1056,1.4234 -4.7877,1.941 -0.2589,2.8468 -0.9058,5.176 -1.8116,7.6345 -8.9285,24.4564 -14.7514,39.4666 -24.7151,62.1114 -2.8468,6.5993 -6.8582,8.7991 -11.2577,10.0931 -2.9762,1.0352 -4.3996,1.9409 -4.3996,3.1055 0,1.0352 1.5528,1.6822 3.882,1.6822 z m 30.7968,-37.9138 c -1.6822,0 -2.7174,0 -2.7174,-0.9058 0,-0.2588 0.1295,-0.647 0.2589,-1.0351 l 12.034,-32.3497 c 0.5176,-1.4234 0.7764,-2.1998 1.0352,-2.1998 0.3883,0 0.647,0.7764 1.1646,2.3292 l 10.3519,32.2203 c 0.1294,0.5175 0.2588,1.0351 0.2588,1.2939 0,0.647 -0.5175,0.647 -1.941,0.647 z m 145.0559,39.4666 c 1.4233,0 2.8467,-0.5176 2.8467,-3.235 0,-1.6821 -0.6469,-6.4699 -0.6469,-12.8104 0,-20.8332 0.1294,-58.747 0.2588,-61.0762 0.2588,-4.3995 1.6822,-5.9523 8.2815,-7.1169 2.9762,-0.647 4.3996,-1.5528 4.3996,-2.7174 0,-1.0352 -1.6822,-1.4233 -3.882,-1.4233 -8.0227,0 -8.7991,0.3881 -15.1396,0.3881 h -7.5051 c -2.3292,0 -5.4348,0.3882 -5.4348,1.4234 0,1.1646 2.8468,2.1998 5.9523,2.7174 2.8468,0.5176 7.5052,3.7526 7.6346,7.2463 0,24.0682 -0.1295,48.6539 -0.2589,53.7004 -0.1294,1.941 -0.6469,2.7174 -1.294,2.7174 -1.1645,0 -2.7173,-1.8116 -3.3643,-2.588 -2.588,-3.2349 -49.3009,-59.7821 -51.8889,-63.4053 -0.9057,-1.1646 -1.5527,-2.1998 -3.1055,-2.1998 -9.5755,0 -10.0931,-0.3881 -20.3156,-0.6469 -0.9058,0 -3.1056,0.2587 -3.1056,1.8115 0,1.5528 3.3644,2.9762 4.1408,3.235 7.7639,2.4586 13.0692,5.4347 13.0692,14.8808 0,21.739 -1.294,42.831 -2.4585,52.7947 -0.5176,5.4347 -2.588,9.4461 -7.6346,10.7401 -2.9761,0.9057 -4.2701,1.4233 -4.2701,2.5879 0,1.0352 1.5528,1.4234 3.7525,1.4234 7.117,0 7.2464,-0.647 12.0341,-0.647 4.9172,0 5.3054,0.647 12.4223,0.647 2.1998,0 3.882,-0.3882 3.882,-1.4234 0,-1.1646 -1.4234,-1.8115 -4.3996,-2.3291 -6.5993,-1.294 -8.4109,-5.823 -8.4109,-10.6107 0,-16.3043 0.3882,-36.4904 0.6469,-49.5597 0,-1.0352 0.2589,-2.7174 1.1646,-2.7174 0.647,0 1.4234,0.5176 2.7174,2.0704 3.1056,3.7526 46.1953,54.6062 48.6539,57.8412 4.1407,5.8229 9.7049,8.2815 11.2577,8.2815 z m 44.6425,-1.5528 c 7.1169,0 10.3519,-0.647 16.9512,-0.647 6.0817,0 8.2815,0.647 15.3984,0.647 2.3292,0 3.882,-0.3882 3.882,-1.4234 0,-1.1646 -1.294,-1.8115 -4.3996,-2.3291 -6.5993,-1.294 -10.3518,-4.0114 -10.3518,-10.3519 v -51.8889 c 0,-14.4926 0.6469,-15.1396 6.5993,-15.1396 h 13.328 c 8.4109,0 11.3871,2.3292 12.0341,6.0817 0.647,3.3644 1.294,5.4348 2.588,5.4348 1.294,0 2.0704,-2.7174 2.0704,-4.2702 v -1.5528 c 0,-3.4937 0.5175,-2.9761 1.2939,-7.8933 0.1295,-0.7764 0.5176,-2.7174 0.5176,-3.6231 0,-1.294 -0.3882,-3.1056 -0.9058,-3.1056 -2.0704,0 -2.9762,1.6822 -5.1759,2.7174 -2.8468,1.2939 -6.47,1.9409 -12.4223,1.9409 h -46.4541 c -3.7526,0 -8.2815,-0.7764 -9.3167,-2.5879 -0.7764,-1.4234 -2.588,-4.2702 -3.235,-4.2702 -0.6469,0 -1.941,0.1294 -2.3291,3.1056 -0.7764,5.4347 -1.5528,8.7991 -4.0114,13.8456 -0.3882,0.7764 -0.647,1.8116 -0.647,2.588 0,0.9058 0.2589,1.6822 0.9058,1.6822 1.941,0 4.529,-3.4938 5.4348,-4.9172 1.8115,-3.4937 6.5993,-5.1759 10.7401,-5.1759 h 6.2111 c 4.5289,0 6.8581,0 9.4461,0.5176 2.0704,0.3882 2.7174,3.2349 2.7174,15.269 v 51.2419 c 0,6.3405 -3.7526,9.0579 -10.3519,10.3519 -2.9762,0.5176 -4.2702,1.1645 -4.2702,2.3291 0,1.0352 1.5528,1.4234 3.7526,1.4234 z m 107.0126,1.1646 c 29.2441,0 44.9014,-22.2566 44.9014,-46.0659 0,-26.0091 -20.5744,-43.3485 -43.7368,-43.3485 -29.3735,0 -45.0307,22.2565 -45.0307,46.0659 0,26.0091 20.5744,43.3485 43.8661,43.3485 z m 1.941,-5.3053 c -21.9977,0 -33.126,-20.1862 -33.126,-44.6426 0,-20.5743 10.2225,-33.9024 30.1498,-33.9024 22.1272,0 33.2555,19.9274 33.2555,44.2543 0,20.7038 -10.0931,34.2907 -30.2793,34.2907 z m 127.13419,5.3053 c 16.69243,0 28.72646,-8.4109 31.44379,-8.7991 1.81166,-0.2588 1.81166,-1.8116 1.81166,-2.4586 0,-0.7764 -1.1646,-1.4234 -1.68225,-2.3291 -0.38868,-0.7764 -0.77625,-1.1646 -0.77625,-2.0704 v -3.6232 c 0,-3.235 0.12919,-6.0817 0.64706,-9.8343 0.51787,-3.6231 1.68225,-5.4347 5.43477,-6.4699 0.77625,-0.1294 2.84674,-1.1646 2.84674,-2.3292 0,-1.8116 -2.07037,-2.1998 -2.84674,-2.1998 -4.65829,0 -7.11691,0.5176 -11.6459,0.5176 -7.24632,0 -10.22248,-0.5176 -16.69244,-0.5176 -0.64706,0 -2.58791,0.9058 -2.58791,2.3292 0,1.294 1.94096,2.1998 2.58791,2.1998 2.71744,0 10.74013,1.1646 12.93992,4.0113 0.51787,0.7764 0.64706,2.1998 0.64706,4.0114 0,2.3292 -0.25838,5.4347 -0.25838,7.6345 0,4.6584 -1.94108,8.1521 -3.88204,10.2225 -1.68214,1.5528 -5.95231,4.9172 -16.17479,4.9172 -17.59821,0 -34.54947,-14.7515 -34.54947,-39.7254 0,-20.9626 13.84569,-39.8548 34.29065,-39.8548 12.55168,0 19.28046,4.9172 20.9626,7.1169 2.19979,2.4586 3.10557,4.1408 4.14076,6.9876 0.51787,1.5527 1.1646,3.4937 2.97615,3.4937 1.1646,0 2.07038,-1.294 2.07038,-2.5879 0,-3.4938 -0.64706,-8.9286 -1.42343,-13.9751 -0.12919,-1.0352 -0.38757,-1.294 -1.16449,-1.6822 -3.4938,-1.6822 -20.31565,-4.2701 -26.39737,-4.2701 -26.26796,0 -48.52448,20.3155 -48.52448,46.4541 0,24.3269 21.35074,42.8309 45.80715,42.8309 z m 128.58978,0.9058 c 3.23498,0 10.61072,-0.7764 10.61072,-4.529 0,-1.0351 -0.64707,-1.5527 -1.94097,-1.5527 -6.21113,0 -10.61071,-0.2588 -15.1396,-4.2702 -12.42226,-11.2577 -18.6334,-21.092 -26.78549,-33.5142 -0.51787,-0.7764 -0.64707,-1.4234 0,-1.8116 7.24632,-3.6232 15.52783,-10.2225 15.52783,-22.1272 0,-14.3632 -10.4813,-21.6095 -29.63235,-21.6095 -7.76386,0 -10.22248,0.647 -15.26901,0.647 -5.43477,0 -5.8229,-0.1294 -12.93992,-0.1294 -2.19968,0 -3.75252,0.3881 -3.75252,1.4233 0,1.1646 1.29402,2.4586 4.27017,2.7174 7.63456,0.7764 8.1521,2.588 8.1521,12.5517 v 56.2884 c 0,6.4699 -3.10557,8.7991 -9.70494,10.0931 -2.97615,0.5176 -4.39947,1.1645 -4.39947,2.3291 0,1.0352 1.68214,1.4234 3.88193,1.4234 7.11691,0 10.48131,-0.9058 17.20998,-0.9058 4.91723,0 5.82301,0.9058 12.93992,0.9058 2.19979,0 3.75251,-0.3882 3.75251,-1.4234 0,-1.1646 -1.29401,-1.8115 -4.27016,-2.3291 -6.59926,-1.294 -8.92847,-5.6936 -8.92847,-11.3871 v -23.2918 c 0,-1.5527 0.51787,-2.7173 2.07038,-2.5879 2.3292,0.2588 6.59937,0.9057 10.35189,2.7173 2.58792,1.294 4.27017,2.8468 5.69348,5.176 9.05799,14.7514 13.58687,20.1862 20.05683,28.0795 4.6584,5.6935 10.74013,7.1169 18.24516,7.1169 z m -49.43024,-46.1953 c -4.27017,0 -6.9875,-0.2588 -6.9875,-4.529 0,-10.6106 0.12919,-17.9864 0.25839,-22.5153 0.38867,-9.0579 1.42331,-12.2929 7.11691,-12.2929 16.69243,0 19.40976,9.1873 19.40976,19.798 0,10.2225 -7.63456,19.5392 -19.798,19.5392 z m 68.096,44.1249 c 7.11702,0 9.3167,-0.7764 15.26912,-0.7764 13.19863,0 24.32688,0.7764 41.27814,0.7764 1.03464,0 1.29401,-1.0352 1.81155,-2.1998 1.55284,-3.6231 4.14076,-12.9398 4.14076,-15.3984 0,-1.0352 -0.51787,-1.6822 -1.42343,-1.8116 -1.03464,-0.1294 -1.68214,0.647 -2.19968,1.6822 -2.71744,5.3054 -4.6584,8.4109 -7.50515,10.2225 -2.71744,1.6822 -6.34054,2.1998 -12.03414,2.1998 h -9.70482 c -5.95231,0 -8.79916,-2.0704 -8.79916,-8.7991 v -25.3622 c 0,-2.9761 1.55284,-3.3643 4.52899,-3.3643 h 12.29285 c 3.49381,0 5.04654,1.8116 6.08173,5.8229 0.64706,2.8468 1.68225,4.2702 2.97615,4.2702 1.1646,0 1.29401,-1.0352 1.29401,-2.1998 0,-1.0352 -0.25838,-7.5051 -0.25838,-10.2225 0,-2.0704 0.38868,-8.0227 0.38868,-9.1873 0,-1.294 -1.1646,-2.0704 -1.81155,-2.0704 -1.03464,0 -1.81167,0.9058 -2.32921,2.8468 -1.29401,4.9171 -2.45861,6.4699 -7.63456,6.4699 h -13.06921 c -1.29402,0 -2.45862,-1.294 -2.45862,-2.8467 v -28.0795 c 0,-2.4586 3.36439,-4.1408 4.78782,-4.1408 h 17.33938 c 3.23498,0 6.34055,0.7764 8.79905,3.4938 1.16461,1.294 1.94108,4.3995 2.97627,7.2463 0.25838,0.9058 0.51787,1.294 1.42332,1.294 0.77625,0 1.81155,-0.3882 1.81155,-1.941 0,-3.4938 -1.03464,-8.5403 -1.94097,-13.5869 -0.12919,-0.9057 -1.42331,-1.1645 -2.4585,-1.1645 -0.64706,0 -5.17595,0.1294 -11.12837,0.2587 -5.56407,0 -12.29285,0.1294 -18.11575,0.1294 -9.18728,0 -13.45745,-0.3881 -23.4211,-0.3881 -2.19979,0 -3.75263,0.3881 -3.75263,1.4233 0,1.1646 1.29401,2.0704 4.39958,2.7174 6.59937,1.1646 8.79905,3.235 8.79905,9.5755 v 59.394 c 0,6.3405 -3.23487,8.6697 -9.83424,9.9637 -2.97616,0.5176 -4.27017,1.1645 -4.27017,2.3291 0,1.0352 1.55284,1.4234 3.75252,1.4234 z m 117.5587,1.1646 c 16.69243,0 28.72646,-8.4109 31.44379,-8.7991 1.81167,-0.2588 1.81167,-1.8116 1.81167,-2.4586 0,-0.7764 -1.16461,-1.4234 -1.68226,-2.3291 -0.38757,-0.7764 -0.77625,-1.1646 -0.77625,-2.0704 v -3.6232 c 0,-3.2349 0.12919,-6.0817 0.64706,-9.8343 0.51787,-3.6231 1.68225,-5.4347 5.43477,-6.4699 0.77626,-0.1294 2.84674,-1.1646 2.84674,-2.3292 0,-1.8116 -2.07037,-2.1998 -2.84674,-2.1998 -4.65829,0 -7.11691,0.5176 -11.6459,0.5176 -7.24632,0 -10.22248,-0.5176 -16.69232,-0.5176 -0.64707,0 -2.58803,0.9058 -2.58803,2.3292 0,1.294 1.94096,2.1998 2.58803,2.1998 2.71732,0 10.74001,1.1646 12.9398,4.0113 0.51787,0.7764 0.64706,2.1998 0.64706,4.0114 0,2.3292 -0.25838,5.4347 -0.25838,7.6345 0,4.6584 -1.94097,8.1521 -3.88204,10.2225 -1.68214,1.5528 -5.95231,4.9172 -16.17479,4.9172 -17.59821,0 -34.54936,-14.7515 -34.54936,-39.7254 0,-20.9626 13.84559,-39.8548 34.29054,-39.8548 12.55168,0 19.28046,4.9172 20.9626,7.1169 2.19979,2.4586 3.10557,4.1408 4.14076,6.9876 0.51787,1.5527 1.1646,3.4937 2.97615,3.4937 1.1646,0 2.07038,-1.294 2.07038,-2.5879 0,-3.4938 -0.64706,-8.9286 -1.42332,-13.9751 -0.12919,-1.0352 -0.38867,-1.294 -1.1646,-1.6822 -3.4938,-1.6822 -20.31565,-4.2701 -26.39737,-4.2701 -26.26785,0 -48.52447,20.3155 -48.52447,46.4541 0,24.3269 21.35084,42.8309 45.80714,42.8309 z m 94.29925,0 c 29.24411,0 44.90125,-22.2566 44.90125,-46.0659 0,-26.0091 -20.57437,-43.3485 -43.73665,-43.3485 -29.37353,0 -45.03077,22.2565 -45.03077,46.0659 0,26.0091 20.57436,43.3485 43.86617,43.3485 z m 1.94096,-5.3053 c -21.99779,0 -33.12604,-20.1862 -33.12604,-44.6426 0,-20.5743 10.22248,-33.9024 30.14989,-33.9024 22.12709,0 33.25546,19.9274 33.25546,44.2543 0,20.7038 -10.09318,34.2907 -30.27931,34.2907 z m 133.05408,6.2111 c 3.23498,0 10.61071,-0.7764 10.61071,-4.529 0,-1.0351 -0.64706,-1.5527 -1.94097,-1.5527 -6.21113,0 -10.61071,-0.2588 -15.13959,-4.2702 -12.42227,-11.2577 -18.6334,-21.092 -26.78561,-33.5142 -0.51787,-0.7764 -0.64706,-1.4234 0,-1.8116 7.24632,-3.6232 15.52783,-10.2225 15.52783,-22.1272 0,-14.3632 -10.48119,-21.6095 -29.63224,-21.6095 -7.76386,0 -10.22248,0.647 -15.26901,0.647 -5.43477,0 -5.823,-0.1294 -12.93991,-0.1294 -2.19979,0 -3.75252,0.3881 -3.75252,1.4233 0,1.1646 1.29401,2.4586 4.27017,2.7174 7.63444,0.7764 8.15209,2.588 8.15209,12.5517 v 56.2884 c 0,6.4699 -3.10556,8.7991 -9.70493,10.0931 -2.97616,0.5176 -4.39947,1.1645 -4.39947,2.3291 0,1.0352 1.68214,1.4234 3.88193,1.4234 7.11691,0 10.4813,-0.9058 17.20997,-0.9058 4.91712,0 5.82301,0.9058 12.93992,0.9058 2.19979,0 3.75252,-0.3882 3.75252,-1.4234 0,-1.1646 -1.29402,-1.8115 -4.27017,-2.3291 -6.59926,-1.294 -8.92846,-5.6936 -8.92846,-11.3871 v -23.2918 c 0,-1.5527 0.51787,-2.7173 2.07037,-2.5879 2.32921,0.2588 6.59926,0.9057 10.35189,2.7173 2.58792,1.294 4.27017,2.8468 5.69349,5.176 9.05798,14.7514 13.58686,20.1862 20.05682,28.0795 4.6583,5.6935 10.74013,7.1169 18.24517,7.1169 z m -49.43025,-46.1953 c -4.27016,0 -6.98749,-0.2588 -6.98749,-4.529 0,-10.6106 0.12919,-17.9864 0.25838,-22.5153 0.38757,-9.0579 1.42331,-12.2929 7.11691,-12.2929 16.69243,0 19.40976,9.1873 19.40976,19.798 0,10.2225 -7.63456,19.5392 -19.798,19.5392 z m 65.79926,44.1249 c 7.11691,0 10.35189,-0.647 16.95115,-0.647 5.95231,0 8.28151,0.647 15.39842,0.647 2.19979,0 3.75263,-0.3882 3.75263,-1.4234 0,-1.1646 -1.29401,-1.8115 -4.27017,-2.3291 -6.59937,-1.294 -10.4813,-3.6232 -10.4813,-9.8343 v -59.6528 c 0,-6.2111 2.84674,-8.2815 9.44611,-9.4461 2.97616,-0.647 4.27017,-1.5528 4.27017,-2.7174 0,-1.0352 -1.55284,-1.4233 -3.75263,-1.4233 -7.11691,0 -8.79905,0.3881 -14.36323,0.3881 -6.08172,0 -8.41092,-0.3881 -15.52783,-0.3881 -2.19979,0 -3.75252,0.3881 -3.75252,1.4233 0,1.1646 1.29401,2.0704 4.27017,2.7174 6.59926,1.1646 8.92846,3.235 8.92846,9.4461 v 59.6528 c 0,6.2111 -3.75252,8.5403 -10.35189,9.8343 -2.97615,0.5176 -4.39958,1.1645 -4.39958,2.3291 0,1.0352 1.68225,1.4234 3.88204,1.4234 z m 42.15157,0 c 4.27017,0 9.96365,-0.7764 15.78666,-0.7764 4.91712,0 9.57541,0.2588 12.03403,0.2588 2.19979,0 3.75251,-0.3882 3.75251,-1.4234 0,-1.1645 -1.2939,-1.8115 -4.27016,-2.7173 -4.27006,-1.0352 -7.63445,-3.6232 -7.63445,-7.5051 0,-1.6822 4.14075,-15.5279 5.30535,-19.0216 0.64707,-1.8116 1.55273,-2.3292 2.3291,-2.3292 h 24.84453 c 2.45861,0 3.23498,0.1294 3.62322,1.4234 1.94096,6.5993 5.17594,17.5982 5.17594,21.3507 0,2.9762 -2.3292,5.0466 -8.02269,5.9524 -2.45861,0.3882 -4.39958,1.4234 -4.39958,2.5879 0,1.0352 1.55273,1.5528 3.75252,1.5528 3.23498,0 8.79916,-0.1294 13.97511,-0.1294 5.82289,0 14.62205,0.7764 18.24516,0.7764 2.3292,0 3.88193,-0.2588 3.88193,-1.294 0,-1.1646 -1.2939,-2.4585 -4.39947,-3.1055 -5.30536,-0.9058 -9.57552,-2.588 -13.32804,-13.1987 -4.27017,-12.4223 -15.0103,-43.6073 -23.42122,-70.3928 -0.38868,-1.0352 -0.51787,-2.1998 -0.90545,-2.9762 -0.12919,-0.2588 -0.64706,-0.2588 -0.77625,-0.1294 -0.51787,0.7764 -0.90544,3.4938 -2.45861,4.5289 -1.55273,1.0352 -3.10557,1.4234 -4.78771,1.941 -0.25838,2.8468 -0.90545,5.176 -1.81155,7.6345 -8.92858,24.4564 -14.75147,39.4666 -24.71524,62.1114 -2.84674,6.5993 -6.85808,8.7991 -11.25766,10.0931 -2.97616,1.0352 -4.39947,1.9409 -4.39947,3.1055 0,1.0352 1.55273,1.6822 3.88193,1.6822 z m 30.79684,-37.9138 c -1.68214,0 -2.71733,0 -2.71733,-0.9058 0,-0.2588 0.12919,-0.647 0.25838,-1.0351 l 12.03414,-32.3497 c 0.51787,-1.4234 0.77626,-2.1998 1.03464,-2.1998 0.38758,0 0.64706,0.7764 1.1646,2.3292 l 10.35189,32.2203 c 0.12919,0.5175 0.25838,1.0351 0.25838,1.2939 0,0.647 -0.51787,0.647 -1.94096,0.647 z m 145.05586,39.4666 c 1.42343,0 2.84674,-0.5176 2.84674,-3.235 0,-1.6821 -0.64706,-6.4699 -0.64706,-12.8104 0,-20.8332 0.12919,-58.747 0.25838,-61.0762 0.25839,-4.3995 1.68214,-5.9523 8.28151,-7.1169 2.97616,-0.647 4.39947,-1.5528 4.39947,-2.7174 0,-1.0352 -1.68214,-1.4233 -3.88193,-1.4233 -8.02268,0 -8.79905,0.3881 -15.13959,0.3881 h -7.50515 c -2.3292,0 -5.43477,0.3882 -5.43477,1.4234 0,1.1646 2.84674,2.1998 5.95231,2.7174 2.84685,0.5176 7.50515,3.7526 7.63456,7.2463 0,24.0682 -0.12919,48.6539 -0.25839,53.7004 -0.12919,1.941 -0.64706,2.7174 -1.2939,2.7174 -1.1646,0 -2.71744,-1.8116 -3.36439,-2.588 -2.58803,-3.2349 -49.30094,-59.7821 -51.88886,-63.4053 -0.90544,-1.1646 -1.55284,-2.1997 -3.10556,-2.1997 -9.57553,0 -10.09307,-0.3882 -20.31555,-0.647 -0.90544,0 -3.10556,0.2587 -3.10556,1.8115 0,1.5528 3.36428,2.9762 4.14075,3.235 7.76387,2.4586 13.06922,5.4347 13.06922,14.8808 0,21.739 -1.29401,42.831 -2.45861,52.7947 -0.51787,5.4347 -2.58792,9.4461 -7.63445,10.7401 -2.97616,0.9058 -4.27017,1.4233 -4.27017,2.5879 0,1.0352 1.55273,1.4234 3.75252,1.4234 7.11691,0 7.24632,-0.647 12.03414,-0.647 4.91712,0 5.30524,0.647 12.42226,0.647 2.19968,0 3.88194,-0.3882 3.88194,-1.4234 0,-1.1646 -1.42343,-1.8115 -4.39958,-2.3291 -6.59938,-1.294 -8.41093,-5.823 -8.41093,-10.6107 0,-16.3043 0.38868,-36.4904 0.64706,-49.5597 0,-1.0352 0.25839,-2.7174 1.16449,-2.7174 0.64707,0 1.42343,0.5176 2.71744,2.0704 3.10557,3.7526 46.19527,54.6062 48.65388,57.8412 4.14076,5.8229 9.70483,8.2815 11.25767,8.2815 z m 66.25209,-0.3882 c 29.24411,0 44.90136,-22.2566 44.90136,-46.0659 0,-26.0091 -20.57448,-43.3485 -43.73676,-43.3485 -29.37353,0 -45.03077,22.2565 -45.03077,46.0659 0,26.0091 20.57436,43.3485 43.86617,43.3485 z m 1.94096,-5.3053 c -21.99779,0 -33.12604,-20.1862 -33.12604,-44.6426 0,-20.5743 10.22248,-33.9024 30.14989,-33.9024 22.1272,0 33.25546,19.9274 33.25546,44.2543 0,20.7038 -10.09307,34.2907 -30.27931,34.2907 z m 0,0"
             style="fill:#000000;fill-opacity:1;fill-rule:nonzero;stroke:none;stroke-width:11.042"
             aria-label="STUDIDICANTOGREGORIANO" />
          <path
             id="path3"
             d="m -1687.0982,2801.9483 c 17.3394,0 28.7265,-10.0931 28.7265,-25.8797 0,-13.1987 -9.8343,-19.4098 -19.0216,-24.9739 -9.9637,-6.0818 -18.504,-11.3871 -18.504,-19.2804 0,-11.1283 7.2463,-15.1397 15.1396,-15.1397 7.5052,0 12.1635,5.176 15.7867,14.4927 0.5176,1.0352 2.1998,1.8116 3.7525,1.8116 1.0352,0 1.941,-0.3882 1.941,-1.4234 0,-4.2702 -1.5528,-9.4461 -2.588,-13.0693 -0.3881,-1.4234 -1.4233,-2.8467 -2.8467,-3.3643 -2.8468,-1.1646 -7.5051,-2.8468 -13.8457,-2.8468 -18.504,0 -27.5619,10.6107 -27.5619,23.9387 0,12.8105 11.5165,18.7628 21.8684,25.2328 9.3167,5.8229 14.8808,9.3167 14.8808,20.0567 0,9.8343 -6.7287,16.1749 -15.916,16.1749 -7.5051,0 -15.269,-5.3054 -18.6334,-18.8922 -0.3882,-1.0352 -1.294,-1.4234 -2.1998,-1.4234 -1.4234,0 -2.588,0.647 -2.588,1.8116 0.2588,3.6231 0.3882,10.2225 1.294,13.8456 0.2588,1.0352 1.0352,1.941 1.6822,2.588 4.9172,4.1408 11.2577,6.3405 18.6334,6.3405 z m 43.1545,-1.4234 c 7.1169,0 9.3167,-0.7763 15.269,-0.7763 13.1987,0 24.3269,0.7763 41.2781,0.7763 1.0352,0 1.294,-1.0351 1.8116,-2.1997 1.5528,-3.6232 4.1408,-12.9399 4.1408,-15.3985 0,-1.0352 -0.5176,-1.6822 -1.4234,-1.8115 -1.0352,-0.1295 -1.6822,0.6469 -2.1998,1.6821 -2.7173,5.3054 -4.6583,8.4109 -7.5051,10.2225 -2.7174,1.6822 -6.3405,2.1998 -12.0341,2.1998 h -9.7049 c -5.9523,0 -8.7991,-2.0704 -8.7991,-8.7991 v -25.3621 c 0,-2.9762 1.5528,-3.3644 4.529,-3.3644 h 12.2929 c 3.4937,0 5.0465,1.8116 6.0817,5.8229 0.6469,2.8468 1.6822,4.2702 2.9762,4.2702 1.1645,0 1.2939,-1.0352 1.2939,-2.1998 0,-1.0352 -0.2588,-7.5051 -0.2588,-10.2225 0,-2.0704 0.3883,-8.0227 0.3883,-9.1873 0,-1.294 -1.1646,-2.0704 -1.8116,-2.0704 -1.0352,0 -1.8116,0.9058 -2.3292,2.8468 -1.294,4.9172 -2.4586,6.4699 -7.6345,6.4699 h -13.0693 c -1.294,0 -2.4586,-1.2939 -2.4586,-2.8467 v -28.0795 c 0,-2.4586 3.3644,-4.1408 4.7878,-4.1408 h 17.3394 c 3.235,0 6.3405,0.7764 8.7991,3.4938 1.1646,1.294 1.941,4.3995 2.9762,7.2463 0.2588,0.9058 0.5175,1.294 1.4234,1.294 0.7763,0 1.8115,-0.3882 1.8115,-1.941 0,-3.4937 -1.0352,-8.5403 -1.9409,-13.5868 -0.1295,-0.9058 -1.4234,-1.1646 -2.4586,-1.1646 -0.647,0 -5.176,0.1294 -11.1283,0.2588 -5.5641,0 -12.2929,0.1294 -18.1158,0.1294 -9.1873,0 -13.4575,-0.3882 -23.4212,-0.3882 -2.1997,0 -3.7525,0.3882 -3.7525,1.4234 0,1.1645 1.294,2.0703 4.3995,2.7173 6.5994,1.1646 8.7991,3.235 8.7991,9.5755 v 59.394 c 0,6.3405 -3.2349,8.6697 -9.8342,9.9637 -2.9762,0.5176 -4.2702,1.1646 -4.2702,2.3292 0,1.0351 1.5528,1.4233 3.7526,1.4233 z m 110.0211,35.7141 c 5.9524,0 16.9512,-6.3406 16.9512,-15.3985 0,-6.2111 -4.9171,-10.2225 -8.6697,-11.7752 -1.294,-0.5176 -1.6821,-1.5528 -0.7763,-2.8468 l 2.8468,-4.3996 c 8.4109,-0.1294 17.857,-1.294 24.0681,-3.7525 2.7174,-0.9058 2.8468,-1.0352 4.2701,-3.6232 1.5528,-3.7526 3.4938,-10.6107 3.4938,-12.8105 0,-2.7173 -3.235,-2.5879 -4.5289,-0.3881 -5.6936,10.4812 -13.5869,16.563 -26.268,16.563 -21.8683,0 -36.2316,-22.2566 -36.2316,-43.7368 0,-19.4097 14.7515,-37.655 35.3258,-37.655 7.2464,0 13.7163,1.6822 18.1158,4.529 4.6584,3.235 6.47,7.8933 8.1522,14.622 0.7763,3.1056 4.6583,1.941 4.5289,-0.1294 -0.2588,-6.8581 -0.7763,-10.9988 -1.1646,-15.1396 -0.2588,-2.3292 -1.1646,-3.882 -3.8819,-4.5289 -8.9285,-2.1998 -13.3281,-3.3644 -23.4212,-3.3644 -27.0443,0 -50.983,19.2804 -50.983,44.9013 0,25.6209 20.9625,42.9603 44.3837,44.3837 l -8.5404,11.3871 c -0.3882,0.5176 -0.7763,1.0352 -0.7763,1.941 0,0.7764 1.1646,2.3292 3.4937,2.3292 1.1646,0 1.8116,-0.3882 3.3644,-0.3882 3.6232,0 6.2111,2.0703 6.2111,7.1169 0,2.8468 -1.6821,5.0465 -5.5641,5.0465 -6.4699,0 -7.2463,-1.6821 -8.2815,-1.6821 -1.0352,0 -2.0704,1.4233 -2.0704,4.5289 0,2.588 2.0704,4.2702 5.9524,4.2702 z m 82.621,-127.7165 c 0.3883,0 1.294,-1.6822 2.8468,-2.9761 1.1646,-0.9058 3.1056,-1.6822 4.3996,-1.6822 4.1407,0 15.1396,1.1646 17.3394,1.1646 0.5175,0 2.7174,-0.5176 3.7525,-1.941 1.8116,-2.0704 4.1408,-5.176 6.2112,-7.3757 0.9057,-0.9058 1.9409,-1.8116 1.9409,-2.3292 0,-1.294 -1.2939,-2.1998 -2.5879,-2.1998 -0.5176,0 -1.4234,1.4234 -2.588,2.588 -1.294,1.294 -3.235,2.4586 -5.1759,2.4586 -2.3292,0 -5.5642,-0.2588 -8.411,-0.5176 -2.5879,-0.2588 -6.0817,-0.3882 -9.0578,-0.3882 -3.235,0 -10.7401,9.8343 -10.7401,11.1283 0,0.9057 1.1645,2.0703 2.0703,2.0703 z m -29.5028,92.0024 c 4.2701,0 9.9636,-0.7763 15.7866,-0.7763 4.9171,0 9.5755,0.2587 12.0341,0.2587 2.1997,0 3.7525,-0.3881 3.7525,-1.4233 0,-1.1646 -1.294,-1.8116 -4.2701,-2.7174 -4.2702,-1.0352 -7.6345,-3.6232 -7.6345,-7.5051 0,-1.6822 4.1407,-15.5279 5.3053,-19.0216 0.6469,-1.8116 1.5528,-2.3292 2.3292,-2.3292 h 24.8445 c 2.4586,0 3.235,0.1294 3.6232,1.4234 1.9409,6.5993 5.1759,17.5982 5.1759,21.3508 0,2.9761 -2.3292,5.0465 -8.0227,5.9523 -2.4586,0.3882 -4.3996,1.4234 -4.3996,2.588 0,1.0352 1.5528,1.5527 3.7526,1.5527 3.235,0 8.7991,-0.1293 13.9751,-0.1293 5.8229,0 14.622,0.7763 18.2451,0.7763 2.3292,0 3.882,-0.2588 3.882,-1.2939 0,-1.1646 -1.294,-2.4586 -4.3995,-3.1056 -5.3054,-0.9058 -9.5755,-2.588 -13.3281,-13.1987 -4.2702,-12.4222 -15.0102,-43.6073 -23.4212,-70.3928 -0.3882,-1.0352 -0.5175,-2.1998 -0.9057,-2.9762 -0.1294,-0.2588 -0.647,-0.2588 -0.7764,-0.1294 -0.5175,0.7764 -0.9058,3.4938 -2.4586,4.529 -1.5528,1.0352 -3.1055,1.4234 -4.7877,1.9409 -0.2588,2.8468 -0.9058,5.176 -1.8116,7.6346 -8.9285,24.4563 -14.7514,39.4665 -24.7151,62.1113 -2.8468,6.5993 -6.8582,8.7991 -11.2577,10.0931 -2.9762,1.0352 -4.3996,1.941 -4.3996,3.1056 0,1.0351 1.5528,1.6821 3.882,1.6821 z m 30.7968,-37.9138 c -1.6822,0 -2.7173,0 -2.7173,-0.9057 0,-0.2588 0.1294,-0.647 0.2588,-1.0352 l 12.0341,-32.3497 c 0.5175,-1.4234 0.7763,-2.1998 1.0351,-2.1998 0.3883,0 0.647,0.7764 1.1646,2.3292 l 10.3519,32.2203 c 0.1294,0.5176 0.2588,1.0352 0.2588,1.294 0,0.647 -0.5175,0.647 -1.9409,0.647 z m 102.7749,39.0784 c 29.2441,0 44.9013,-22.2565 44.9013,-46.0659 0,-26.0091 -20.5744,-43.3485 -43.7367,-43.3485 -29.3735,0 -45.0308,22.2565 -45.0308,46.0659 0,26.0091 20.5744,43.3485 43.8662,43.3485 z m 1.9409,-5.3053 c -21.9977,0 -33.126,-20.1862 -33.126,-44.6425 0,-20.5744 10.2225,-33.9025 30.1499,-33.9025 22.1271,0 33.2554,19.9274 33.2554,44.2544 0,20.7037 -10.0931,34.2906 -30.2793,34.2906 z m 81.7153,4.1407 c 7.6345,0 10.3519,-0.647 17.21,-0.647 5.1759,0 10.0931,0.5176 12.4223,0.5176 10.093,0 16.9512,-1.6821 22.5153,-4.5289 5.4348,-2.7174 13.7163,-7.1169 13.7163,-21.6096 0,-15.269 -10.8695,-19.151 -18.7628,-21.7389 -0.7764,-0.2588 -0.647,-1.0352 0,-1.294 4.3995,-1.8116 6.0817,-2.9762 8.7991,-5.6936 2.0704,-2.0703 4.5289,-6.7287 4.5289,-12.681 0,-14.3633 -9.9637,-19.6686 -30.6674,-19.6686 -7.6346,0 -9.5755,0.647 -14.6221,0.647 -5.4347,0 -6.5993,-0.1294 -13.7162,-0.1294 -2.1998,0 -3.7526,0.3882 -3.7526,1.4234 0,1.1645 1.294,2.4585 4.2702,2.7173 6.4699,0.5176 8.9285,3.235 8.9285,9.5755 v 59.394 c 0,6.3405 -3.7526,8.6697 -10.3519,9.9637 -2.9762,0.5176 -4.3996,1.1646 -4.3996,2.3292 0,1.0351 1.6822,1.4233 3.882,1.4233 z m 27.1737,-49.5596 c -2.0704,0 -6.0818,-0.2588 -6.0818,-4.9172 v -23.0329 c 0,-3.882 1.4234,-5.9524 8.6698,-5.9524 16.3042,0 19.2803,9.9637 19.2803,17.4688 0,7.6346 -4.0113,11.5165 -5.8229,12.5517 -5.4347,2.9762 -11.2577,3.882 -16.0454,3.882 z m 4.3995,43.9955 c -6.7287,0 -10.4813,-1.941 -10.4813,-9.3167 v -26.2679 c 0,-1.6822 1.8116,-4.7878 7.5052,-4.7878 8.0227,0 12.681,1.941 15.1396,3.3644 3.4938,1.941 9.7049,6.8581 9.7049,16.9512 0,11.3871 -10.2225,20.0568 -21.8684,20.0568 z m 123.6728,7.6345 c 3.2349,0 10.6107,-0.7764 10.6107,-4.5289 0,-1.0352 -0.647,-1.5528 -1.941,-1.5528 -6.2112,0 -10.6107,-0.2588 -15.1397,-4.2702 -12.4222,-11.2576 -18.6334,-21.0919 -26.7855,-33.5142 -0.5175,-0.7764 -0.6469,-1.4234 0,-1.8116 7.2463,-3.6232 15.5279,-10.2225 15.5279,-22.1272 0,-14.3632 -10.4813,-21.6095 -29.6323,-21.6095 -7.7639,0 -10.2225,0.647 -15.2691,0.647 -5.4347,0 -5.8229,-0.1294 -12.9398,-0.1294 -2.1998,0 -3.7526,0.3882 -3.7526,1.4234 0,1.1645 1.294,2.4585 4.2702,2.7173 7.6345,0.7764 8.1521,2.588 8.1521,12.5517 v 56.2884 c 0,6.4699 -3.1056,8.7991 -9.7049,10.0931 -2.9762,0.5176 -4.3996,1.1646 -4.3996,2.3292 0,1.0351 1.6822,1.4233 3.882,1.4233 7.1169,0 10.4813,-0.9057 17.21,-0.9057 4.9172,0 5.8229,0.9057 12.9399,0.9057 2.1997,0 3.7525,-0.3882 3.7525,-1.4233 0,-1.1646 -1.294,-1.8116 -4.2701,-2.3292 -6.5994,-1.294 -8.9285,-5.6936 -8.9285,-11.3871 v -23.2917 c 0,-1.5528 0.5175,-2.7174 2.0703,-2.588 2.3292,0.2588 6.5994,0.9058 10.3519,2.7174 2.588,1.2939 4.2702,2.8467 5.6936,5.1759 9.0579,14.7514 13.5868,20.1862 20.0568,28.0795 4.6583,5.6935 10.74,7.1169 18.2452,7.1169 z m -49.4303,-46.1953 c -4.2702,0 -6.9875,-0.2588 -6.9875,-4.5289 0,-10.6107 0.1294,-17.9864 0.2588,-22.5154 0.3882,-9.0579 1.4234,-12.2929 7.1169,-12.2929 16.6924,0 19.4098,9.1873 19.4098,19.798 0,10.2225 -7.6345,19.5392 -19.798,19.5392 z m 68.3548,44.1249 c 4.2702,0 9.9637,-0.7763 15.7866,-0.7763 4.9172,0 9.5755,0.2587 12.0341,0.2587 2.1998,0 3.7526,-0.3881 3.7526,-1.4233 0,-1.1646 -1.294,-1.8116 -4.2702,-2.7174 -4.2701,-1.0352 -7.6345,-3.6232 -7.6345,-7.5051 0,-1.6822 4.1408,-15.5279 5.3053,-19.0216 0.647,-1.8116 1.5528,-2.3292 2.3292,-2.3292 h 24.8446 c 2.4585,0 3.2349,0.1294 3.6231,1.4234 1.941,6.5993 5.176,17.5982 5.176,21.3508 0,2.9761 -2.3292,5.0465 -8.0228,5.9523 -2.4585,0.3882 -4.3995,1.4234 -4.3995,2.588 0,1.0352 1.5528,1.5527 3.7526,1.5527 3.2349,0 8.7991,-0.1293 13.975,-0.1293 5.8229,0 14.622,0.7763 18.2452,0.7763 2.3292,0 3.882,-0.2588 3.882,-1.2939 0,-1.1646 -1.294,-2.4586 -4.3996,-3.1056 -5.3053,-0.9058 -9.5755,-2.588 -13.328,-13.1987 -4.2702,-12.4222 -15.0103,-43.6073 -23.4212,-70.3928 -0.3882,-1.0352 -0.5175,-2.1998 -0.9058,-2.9762 -0.1294,-0.2588 -0.6469,-0.2588 -0.7763,-0.1294 -0.5176,0.7764 -0.9058,3.4938 -2.4586,4.529 -1.5528,1.0352 -3.1056,1.4234 -4.7878,1.9409 -0.2588,2.8468 -0.9057,5.176 -1.8115,7.6346 -8.9286,24.4563 -14.7515,39.4665 -24.7152,62.1113 -2.8468,6.5993 -6.8581,8.7991 -11.2577,10.0931 -2.9761,1.0352 -4.3995,1.941 -4.3995,3.1056 0,1.0351 1.5528,1.6821 3.882,1.6821 z m 30.7969,-37.9138 c -1.6822,0 -2.7174,0 -2.7174,-0.9057 0,-0.2588 0.1294,-0.647 0.2588,-1.0352 l 12.0341,-32.3497 c 0.5175,-1.4234 0.7764,-2.1998 1.0352,-2.1998 0.3882,0 0.6469,0.7764 1.1646,2.3292 l 10.3519,32.2203 c 0.1294,0.5176 0.2588,1.0352 0.2588,1.294 0,0.647 -0.5176,0.647 -1.941,0.647 z m 83.85028,39.3372 c 17.33942,0 28.7265,-10.0931 28.7265,-25.8797 0,-13.1987 -9.83429,-19.4098 -19.0216,-24.9739 -9.96369,-6.0818 -18.504,-11.3871 -18.504,-19.2804 0,-11.1283 7.24632,-15.1397 15.13964,-15.1397 7.50511,0 12.16346,5.176 15.78662,14.4927 0.51754,1.0352 2.19978,1.8116 3.75257,1.8116 1.03518,0 1.94097,-0.3882 1.94097,-1.4234 0,-4.2702 -1.55278,-9.4461 -2.58797,-13.0693 -0.38824,-1.4234 -1.42338,-2.8467 -2.84676,-3.3643 -2.84678,-1.1646 -7.50513,-2.8468 -13.84565,-2.8468 -18.50401,0 -27.56191,10.6107 -27.56191,23.9387 0,12.8105 11.51648,18.7628 21.86837,25.2328 9.3167,5.8229 14.88084,9.3167 14.88084,20.0567 0,9.8343 -6.72873,16.1749 -15.91603,16.1749 -7.50513,0 -15.26904,-5.3054 -18.6334,-18.8922 -0.38824,-1.0352 -1.29399,-1.4234 -2.19978,-1.4234 -1.42338,0 -2.58797,0.647 -2.58797,1.8116 0.25882,3.6231 0.38823,10.2225 1.29398,13.8456 0.25882,1.0352 1.03519,1.941 1.68218,2.588 4.91716,4.1408 11.25768,6.3405 18.6334,6.3405 z m 40.79292,-1.4234 c 7.11692,0 10.35189,-0.647 16.95121,-0.647 5.95234,0 8.28151,0.647 15.39845,0.647 2.19976,0 3.75255,-0.3882 3.75255,-1.4233 0,-1.1646 -1.29398,-1.8116 -4.27015,-2.3292 -6.59934,-1.294 -10.48129,-3.6232 -10.48129,-9.8343 v -59.6528 c 0,-6.2111 2.84676,-8.2815 9.4461,-9.4461 2.97617,-0.647 4.27015,-1.5528 4.27015,-2.7173 0,-1.0352 -1.55279,-1.4234 -3.75255,-1.4234 -7.11694,0 -8.79911,0.3882 -14.36326,0.3882 -6.08173,0 -8.4109,-0.3882 -15.52783,-0.3882 -2.19977,0 -3.75255,0.3882 -3.75255,1.4234 0,1.1645 1.29398,2.0703 4.27014,2.7173 6.59934,1.1646 8.92851,3.235 8.92851,9.4461 v 59.6528 c 0,6.2111 -3.75256,8.5403 -10.35189,9.8343 -2.97616,0.5176 -4.39955,1.1646 -4.39955,2.3292 0,1.0351 1.68218,1.4233 3.88196,1.4233 z m 45.80711,0 c 0,0 11.25768,-0.647 17.857,-0.647 13.19867,0 27.56191,0.647 45.28952,0.647 1.29398,0 1.68218,-1.0351 1.81158,-2.1997 0.51754,-5.5642 1.68218,-9.9637 3.49376,-16.8219 0,-0.1294 0.25882,-0.3881 0.25882,-0.647 0,-1.0351 -0.64695,-2.3291 -1.68218,-2.3291 -1.16459,0 -2.45857,2.8467 -2.84676,3.8819 -2.32919,4.7878 -3.49378,6.3406 -6.85813,9.4461 -1.68219,1.5528 -5.56414,3.3644 -10.35189,3.3644 h -16.30426 c -8.7991,0 -10.22248,-2.588 -10.22248,-8.0227 v -62.1114 c 0,-5.1759 5.17594,-6.0817 11.77527,-7.2463 2.97617,-0.647 4.39956,-1.5528 4.39956,-2.7173 0,-1.0352 -1.68219,-1.4234 -3.88197,-1.4234 -7.11692,0 -10.09308,0.3882 -16.56302,0.3882 -5.82293,0 -7.76392,-0.3882 -14.88084,-0.3882 -2.19978,0 -3.75256,0.3882 -3.75256,1.4234 0,1.1645 1.29399,2.0703 4.27016,2.7173 6.59932,1.1646 8.15211,1.8116 8.15211,8.1521 v 61.2056 c 0,5.8229 -3.88196,8.1521 -10.74009,9.5755 -0.51754,0.1294 -2.84676,0.647 -2.84676,2.1998 0,0.9057 1.29398,1.5527 3.62316,1.5527 z m 78.5126,0 c 7.11692,0 9.3167,-0.7763 15.26905,-0.7763 13.19865,0 24.32693,0.7763 41.27815,0.7763 1.03519,0 1.29398,-1.0351 1.81158,-2.1997 1.55278,-3.6232 4.14075,-12.9399 4.14075,-15.3985 0,-1.0352 -0.51754,-1.6822 -1.42338,-1.8115 -1.03519,-0.1295 -1.68219,0.6469 -2.19978,1.6821 -2.71736,5.3054 -4.65835,8.4109 -7.50511,10.2225 -2.71738,1.6822 -6.34054,2.1998 -12.03408,2.1998 h -9.70489 c -5.95234,0 -8.79911,-2.0704 -8.79911,-8.7991 v -25.3621 c 0,-2.9762 1.55279,-3.3644 4.52895,-3.3644 h 12.29287 c 3.49377,0 5.04655,1.8116 6.08174,5.8229 0.64695,2.8468 1.68217,4.2702 2.97617,4.2702 1.16459,0 1.29398,-1.0352 1.29398,-2.1998 0,-1.0352 -0.25883,-7.5051 -0.25883,-10.2225 0,-2.0704 0.38824,-8.0227 0.38824,-9.1873 0,-1.294 -1.16459,-2.0704 -1.81158,-2.0704 -1.03519,0 -1.81158,0.9058 -2.32918,2.8468 -1.29398,4.9172 -2.45857,6.4699 -7.63451,6.4699 h -13.06927 c -1.29398,0 -2.45857,-1.2939 -2.45857,-2.8467 v -28.0795 c 0,-2.4586 3.36436,-4.1408 4.78776,-4.1408 h 17.3394 c 3.23497,0 6.34054,0.7764 8.79911,3.4938 1.16459,1.294 1.94098,4.3995 2.97617,7.2463 0.25882,0.9058 0.51753,1.294 1.42339,1.294 0.77636,0 1.81157,-0.3882 1.81157,-1.941 0,-3.4937 -1.03519,-8.5403 -1.94097,-13.5868 -0.12942,-0.9058 -1.42339,-1.1646 -2.45857,-1.1646 -0.64696,0 -5.17595,0.1294 -11.12829,0.2588 -5.56414,0 -12.29287,0.1294 -18.11581,0.1294 -9.1873,0 -13.45745,-0.3882 -23.42115,-0.3882 -2.19977,0 -3.75255,0.3882 -3.75255,1.4234 0,1.1645 1.29398,2.0703 4.39955,2.7173 6.59932,1.1646 8.7991,3.235 8.7991,9.5755 v 59.394 c 0,6.3405 -3.23496,8.6697 -9.83429,9.9637 -2.97617,0.5176 -4.27016,1.1646 -4.27016,2.3292 0,1.0351 1.55279,1.4233 3.75256,1.4233 z m 72.10739,0 c 7.11692,0 10.35189,-0.647 16.95121,-0.647 5.95233,0 8.28151,0.647 15.39843,0.647 2.19978,0 3.75257,-0.3882 3.75257,-1.4233 0,-1.1646 -1.29399,-1.8116 -4.27016,-2.3292 -6.59933,-1.294 -10.48129,-3.6232 -10.48129,-9.8343 v -59.6528 c 0,-6.2111 2.84677,-8.2815 9.4461,-9.4461 2.97617,-0.647 4.27016,-1.5528 4.27016,-2.7173 0,-1.0352 -1.55279,-1.4234 -3.75256,-1.4234 -7.11693,0 -8.79911,0.3882 -14.36325,0.3882 -6.08173,0 -8.41091,-0.3882 -15.52783,-0.3882 -2.19978,0 -3.75256,0.3882 -3.75256,1.4234 0,1.1645 1.29399,2.0703 4.27015,2.7173 6.59933,1.1646 8.92851,3.235 8.92851,9.4461 v 59.6528 c 0,6.2111 -3.75256,8.5403 -10.35189,9.8343 -2.97618,0.5176 -4.39956,1.1646 -4.39956,2.3292 0,1.0351 1.68219,1.4233 3.88197,1.4233 z m 122.66988,2.0704 c 3.23496,0 10.61064,-0.7764 10.61064,-4.5289 0,-1.0352 -0.64706,-1.5528 -1.94097,-1.5528 -6.2111,0 -10.61066,-0.2588 -15.1396,-4.2702 -12.42227,-11.2576 -18.6334,-21.0919 -26.78551,-33.5142 -0.51754,-0.7764 -0.64696,-1.4234 0,-1.8116 7.24632,-3.6232 15.52783,-10.2225 15.52783,-22.1272 0,-14.3632 -10.48129,-21.6095 -29.63229,-21.6095 -7.76391,0 -10.22248,0.647 -15.26903,0.647 -5.43474,0 -5.82294,-0.1294 -12.93986,-0.1294 -2.19978,0 -3.75256,0.3882 -3.75256,1.4234 0,1.1645 1.29398,2.4585 4.27016,2.7173 7.63451,0.7764 8.15211,2.588 8.15211,12.5517 v 56.2884 c 0,6.4699 -3.10557,8.7991 -9.7049,10.0931 -2.97617,0.5176 -4.39956,1.1646 -4.39956,2.3292 0,1.0351 1.68219,1.4233 3.88197,1.4233 7.11692,0 10.48128,-0.9057 17.21001,-0.9057 4.91715,0 5.82294,0.9057 12.93986,0.9057 2.19978,0 3.75256,-0.3882 3.75256,-1.4233 0,-1.1646 -1.29398,-1.8116 -4.27016,-2.3292 -6.59932,-1.294 -8.92849,-5.6936 -8.92849,-11.3871 v -23.2917 c 0,-1.5528 0.51754,-2.7174 2.07037,-2.588 2.32917,0.2588 6.59933,0.9058 10.35189,2.7174 2.58798,1.2939 4.27015,2.8467 5.69354,5.1759 9.0579,14.7514 13.58685,20.1862 20.05678,28.0795 4.65836,5.6935 10.74009,7.1169 18.24521,7.1169 z M -664.29919,2756.4 c -4.27016,0 -6.98752,-0.2588 -6.98752,-4.5289 0,-10.6107 0.12941,-17.9864 0.25882,-22.5154 0.38824,-9.0579 1.42338,-12.2929 7.11692,-12.2929 16.69243,0 19.4098,9.1873 19.4098,19.798 0,10.2225 -7.63452,19.5392 -19.79799,19.5392 z m 68.32242,44.1249 c 4.27017,0 9.96376,-0.7763 15.78666,-0.7763 4.91712,0 9.57552,0.2587 12.03414,0.2587 2.19968,0 3.75252,-0.3881 3.75252,-1.4233 0,-1.1646 -1.29402,-1.8116 -4.27017,-2.7174 -4.27017,-1.0352 -7.63456,-3.6232 -7.63456,-7.5051 0,-1.6822 4.14075,-15.5279 5.30536,-19.0216 0.64706,-1.8116 1.55283,-2.3292 2.3292,-2.3292 h 24.84453 c 2.45862,0 3.23498,0.1294 3.62322,1.4234 1.94096,6.5993 5.17594,17.5982 5.17594,21.3508 0,2.9761 -2.3292,5.0465 -8.02279,5.9523 -2.45851,0.3882 -4.39947,1.4234 -4.39947,2.588 0,1.0352 1.55272,1.5527 3.75251,1.5527 3.23498,0 8.79906,-0.1293 13.975,-0.1293 5.82301,0 14.62206,0.7763 18.24527,0.7763 2.32921,0 3.88193,-0.2588 3.88193,-1.2939 0,-1.1646 -1.29401,-2.4586 -4.39958,-3.1056 -5.30535,-0.9058 -9.57541,-2.588 -13.32804,-13.1987 -4.27017,-12.4222 -15.01018,-43.6073 -23.42111,-70.3928 -0.38868,-1.0352 -0.51787,-2.1998 -0.90544,-2.9762 -0.12919,-0.2588 -0.64706,-0.2588 -0.77626,-0.1294 -0.51787,0.7764 -0.90544,3.4938 -2.4585,4.529 -1.55284,1.0352 -3.10557,1.4234 -4.78782,1.9409 -0.25838,2.8468 -0.90544,5.176 -1.81155,7.6346 -8.92846,24.4563 -14.75147,39.4665 -24.71512,62.1113 -2.84674,6.5993 -6.85809,8.7991 -11.25767,10.0931 -2.97615,1.0352 -4.39958,1.941 -4.39958,3.1056 0,1.0351 1.55284,1.6821 3.88193,1.6821 z m 30.79695,-37.9138 c -1.68225,0 -2.71744,0 -2.71744,-0.9057 0,-0.2588 0.12919,-0.647 0.25839,-1.0352 l 12.03403,-32.3497 c 0.51787,-1.4234 0.77625,-2.1998 1.03463,-2.1998 0.38868,0 0.64706,0.7764 1.1646,2.3292 l 10.35189,32.2203 c 0.12919,0.5176 0.25839,1.0352 0.25839,1.294 0,0.647 -0.51787,0.647 -1.94097,0.647 z m 0,0"
             style="fill:#000000;fill-opacity:1;fill-rule:nonzero;stroke:none;stroke-width:11.042"
             aria-label="SEÇÃOBRASILEIRA" />
          <path
             id="path4"
             d="M -2252.14,2664.016 H 29.902198"
             style="fill:#000000;stroke:#000000;stroke-width:4.39472;stroke-linecap:butt;stroke-linejoin:miter;stroke-miterlimit:10;stroke-dasharray:none;stroke-opacity:1;fill-opacity:1" />
        </g>
      </g>
    </g>
  </g>
</svg>
